<svg width="24" height="25" viewBox="0 0 24 25" fill="none" xmlns="http://www.w3.org/2000/svg">
<g id="img-consumable">
<g id="Group">
<g id="Group_2">
<path id="Vector" d="M19.5165 19.3589C19.5165 19.2373 19.4181 19.1384 19.2965 19.1384H4.79395C4.67237 19.1384 4.57373 19.2373 4.57373 19.3589V22.8313C4.57373 22.9528 4.67237 23.0512 4.79395 23.0512H19.2965C19.4181 23.0512 19.5165 22.9528 19.5165 22.8313L19.5154 21.5553C19.5154 21.5516 19.5107 21.4833 19.5102 21.4796C19.5118 21.4693 19.5165 21.43 19.5165 21.4192V19.3589Z" fill="#95AEC2"/>
<path id="Vector_2" d="M19.2965 2.60693H4.79395C4.67237 2.60693 4.57373 2.70531 4.57373 2.82689V12.5057C4.57373 12.6273 4.67237 12.7257 4.79395 12.7257H19.2965C19.4181 12.7257 19.5165 12.6273 19.5165 12.5057V2.82689C19.5165 2.70531 19.4181 2.60693 19.2965 2.60693Z" fill="#6EC4A7"/>
<path id="Vector_3" d="M23.6838 13.8121L0.405645 13.8115C0.347095 13.8115 0.291183 13.8347 0.25004 13.8759C0.208634 13.917 0.185425 13.9732 0.185425 14.032V20.7346C0.185425 20.8562 0.284062 20.9551 0.405645 20.9551H3.2685C3.39008 20.9551 3.48872 20.8562 3.48872 20.7346V18.596C3.48872 18.2966 3.73215 18.0529 4.03149 18.0529H20.0595C20.3589 18.0529 20.6026 18.2966 20.6026 18.596V20.7346C20.6026 20.8562 20.7009 20.9551 20.8225 20.9551H22.1169C23.1023 20.9551 23.9038 20.1536 23.9038 19.1693V14.032C23.9038 13.9104 23.8054 13.8121 23.6838 13.8121ZM15.7923 15.9304C15.7923 16.2297 15.5486 16.4734 15.2492 16.4734H13.7415C13.4421 16.4734 13.199 16.2297 13.199 15.9304C13.199 15.631 13.4421 15.3873 13.7415 15.3873H15.2492C15.5486 15.3873 15.7923 15.631 15.7923 15.9304ZM10.8905 15.9304C10.8905 16.2297 10.6473 16.4734 10.348 16.4734H8.83993C8.54085 16.4734 8.29742 16.2297 8.29742 15.9304C8.29742 15.631 8.54059 15.3873 8.83993 15.3873H10.348C10.6473 15.3873 10.8905 15.631 10.8905 15.9304Z" fill="#647F94"/>
</g>
</g>
</g>
</svg>
