<svg width="25" height="24" viewBox="0 0 25 24" fill="none" xmlns="http://www.w3.org/2000/svg">
<g id="img-blog" clip-path="url(#clip0_7283_11528)">
<path id="Vector" d="M5.28412 9.23669C5.06315 9.23669 4.8512 9.3265 4.6948 9.48639C4.53841 9.64628 4.45035 9.8632 4.44995 10.0895C4.44995 10.3161 4.53784 10.5334 4.69427 10.6937C4.85071 10.8539 5.06289 10.9439 5.28412 10.9439C5.5051 10.9435 5.71689 10.8533 5.873 10.6931C6.02912 10.5329 6.1168 10.3158 6.1168 10.0895C6.1164 9.86346 6.02855 9.64677 5.87248 9.48692C5.7164 9.32707 5.50484 9.2371 5.28412 9.23669Z" fill="#62BC48"/>
<path id="Vector_2" d="M13.5179 9.14758C13.2791 9.14758 13.0502 9.24471 12.8813 9.41762C12.7125 9.59052 12.6177 9.82503 12.6177 10.0695C12.6177 10.3141 12.7125 10.5485 12.8813 10.7214C13.0502 10.8943 13.2791 10.9915 13.5179 10.9915C13.7566 10.9915 13.9856 10.8943 14.1544 10.7214C14.3232 10.5485 14.4181 10.3141 14.4181 10.0695C14.4181 9.82503 14.3232 9.59052 14.1544 9.41762C13.9856 9.24471 13.7566 9.14758 13.5179 9.14758Z" fill="#62BC48"/>
<path id="Vector_3" d="M20.9728 0.756105H3.23466C2.37583 0.756105 1.55217 1.10543 0.944746 1.72725C0.337326 2.34908 -0.00411881 3.19252 -0.0045166 4.07212V14.853C-0.00253007 15.7315 0.339616 16.5734 0.946864 17.1939C1.55411 17.8144 2.37687 18.1628 3.23466 18.1628H9.49696L11.6364 23.3043C11.6364 23.3043 11.7864 23.7484 12.1375 23.7484C12.4916 23.7484 12.6386 23.3043 12.6386 23.3043L14.7691 18.1628H20.9758C21.8345 18.1628 22.658 17.8135 23.2652 17.1916C23.8724 16.5697 24.2135 15.7263 24.2135 14.8468V4.06597C24.2119 3.18704 23.8697 2.3447 23.262 1.72407C22.6544 1.10343 21.831 0.755289 20.9728 0.756105ZM7.60656 10.2831C7.59606 12.253 5.60665 12.3099 5.60665 12.3099C5.3825 12.3103 5.1606 12.2643 4.95431 12.1745C4.74802 12.0847 4.56164 11.953 4.4064 11.7874V12.1424H2.9571V6.02361C3.04712 6.03898 4.4064 6.02361 4.4064 6.02361V8.36387C4.74697 7.76766 5.73267 7.77841 5.73267 7.77841C7.87812 7.98278 7.60956 10.2862 7.60956 10.2862M10.1601 7.96587V12.1562H8.7423V8.00737C8.7423 7.44343 8.05816 7.2867 8.05816 7.2867V5.82538C10.3236 5.91912 10.1586 7.96587 10.1586 7.96587M13.5193 12.316C12.2065 12.316 11.1428 11.3126 11.1428 10.0741C11.1428 8.83559 12.2065 7.83375 13.5193 7.83375C14.8321 7.83375 15.8958 8.83713 15.8958 10.0741C15.8958 11.3111 14.8321 12.316 13.5193 12.316ZM21.2879 12.316C21.2879 12.316 21.3089 14.4443 19.1965 14.4443H18.5528V13.0613H18.9399C18.9399 13.0613 19.8281 13.1458 19.8176 11.746C19.8176 11.746 19.6436 12.313 18.3998 12.313C18.3998 12.313 16.6339 12.1823 16.6339 10.4183V9.7499C16.6339 9.7499 16.6759 7.92131 18.6129 7.77534C18.8479 7.75921 19.0833 7.80216 19.2985 7.90045C19.5137 7.99873 19.7022 8.1494 19.8476 8.3393V7.89058H21.2864L21.2879 12.316Z" fill="#36B44A"/>
<path id="Vector_4" d="M19.0315 9.1676C18.7987 9.1676 18.5755 9.2623 18.4109 9.43088C18.2463 9.59946 18.1538 9.82813 18.1538 10.0665C18.1538 10.3049 18.2463 10.5336 18.4109 10.7022C18.5755 10.8707 18.7987 10.9654 19.0315 10.9654C19.2643 10.9654 19.4875 10.8707 19.6521 10.7022C19.8167 10.5336 19.9092 10.3049 19.9092 10.0665C19.9092 9.82813 19.8167 9.59946 19.6521 9.43088C19.4875 9.2623 19.2643 9.1676 19.0315 9.1676Z" fill="#62BC48"/>
</g>
<defs>
<clipPath id="clip0_7283_11528">
<rect width="24.2105" height="23" fill="white" transform="translate(0 0.75)"/>
</clipPath>
</defs>
</svg>
