<svg width="16" height="17" viewBox="0 0 16 17" fill="none" xmlns="http://www.w3.org/2000/svg">
<path d="M3.59961 7.10645C4.11507 7.10645 4.5332 7.52457 4.5332 8.04004C4.53297 8.55531 4.11493 8.97266 3.59961 8.97266C3.08446 8.97245 2.66722 8.55518 2.66699 8.04004C2.66699 7.5247 3.08432 7.10666 3.59961 7.10645ZM8.00098 7.10645C8.51644 7.10645 8.93457 7.52457 8.93457 8.04004C8.93434 8.55531 8.5163 8.97266 8.00098 8.97266C7.48568 8.97262 7.06761 8.55529 7.06738 8.04004C7.06738 7.52459 7.48554 7.10648 8.00098 7.10645ZM12.3994 7.10645C12.9149 7.10645 13.333 7.52457 13.333 8.04004C13.3328 8.55531 12.9147 8.97266 12.3994 8.97266C11.8841 8.97262 11.466 8.55529 11.4658 8.04004C11.4658 7.52459 11.884 7.10648 12.3994 7.10645Z" fill="#33363D"/>
</svg>
