<svg width="24" height="24" viewBox="0 0 24 24" fill="none" xmlns="http://www.w3.org/2000/svg">
<path d="M12 2C17.5228 2 22 6.47715 22 12C22 17.5228 17.5228 22 12 22C6.47715 22 2 17.5228 2 12C2 6.47715 6.47715 2 12 2ZM12 3.59961C7.36081 3.59961 3.59961 7.36081 3.59961 12C3.59961 16.6392 7.36081 20.4004 12 20.4004C16.6392 20.4004 20.4004 16.6392 20.4004 12C20.4004 7.36081 16.6392 3.59961 12 3.59961ZM12.5 15C12.7761 15 13 15.2239 13 15.5V16.5C13 16.7761 12.7761 17 12.5 17H11.5C11.2239 17 11 16.7761 11 16.5V15.5C11 15.2239 11.2239 15 11.5 15H12.5ZM12.5 7C12.7761 7 13 7.22386 13 7.5V13.5C13 13.7761 12.7761 14 12.5 14H11.5C11.2239 14 11 13.7761 11 13.5V7.5C11 7.22386 11.2239 7 11.5 7H12.5Z" fill="#8A949E"/>
</svg>
