<svg width="16" height="19" viewBox="0 0 16 19" fill="none" xmlns="http://www.w3.org/2000/svg">
<path d="M1 2.5C0.716667 2.5 0.479167 2.40417 0.2875 2.2125C0.0958333 2.02083 0 1.78333 0 1.5C0 1.21667 0.0958333 0.979167 0.2875 0.7875C0.479167 0.595833 0.716667 0.5 1 0.5H15C15.2833 0.5 15.5208 0.595833 15.7125 0.7875C15.9042 0.979167 16 1.21667 16 1.5C16 1.78333 15.9042 2.02083 15.7125 2.2125C15.5208 2.40417 15.2833 2.5 15 2.5H1ZM8 18.5C7.71667 18.5 7.47917 18.4042 7.2875 18.2125C7.09583 18.0208 7 17.7833 7 17.5V8.3L5.1 10.2C4.91667 10.3833 4.68333 10.475 4.4 10.475C4.11667 10.475 3.88333 10.3833 3.7 10.2C3.51667 10.0167 3.425 9.78333 3.425 9.5C3.425 9.21667 3.51667 8.98333 3.7 8.8L7.3 5.2C7.4 5.1 7.50833 5.02917 7.625 4.9875C7.74167 4.94583 7.86667 4.925 8 4.925C8.13333 4.925 8.25833 4.94583 8.375 4.9875C8.49167 5.02917 8.6 5.1 8.7 5.2L12.3 8.8C12.4833 8.98333 12.575 9.21667 12.575 9.5C12.575 9.78333 12.4833 10.0167 12.3 10.2C12.1167 10.3833 11.8833 10.475 11.6 10.475C11.3167 10.475 11.0833 10.3833 10.9 10.2L9 8.3V17.5C9 17.7833 8.90417 18.0208 8.7125 18.2125C8.52083 18.4042 8.28333 18.5 8 18.5Z" fill="#33363D"/>
</svg>
