<svg width="467" height="401" viewBox="0 0 467 401" fill="none" xmlns="http://www.w3.org/2000/svg">
<path d="M428.698 77.188C429.606 74.455 431.692 72.5851 435.254 72.0793C439.087 71.5351 441.701 73.8365 442.681 77.6507C443.686 81.5608 442.292 85.1041 438.848 86.8206C435.18 88.645 431.103 87.3552 429.307 83.8479C428.169 81.6279 428.012 79.2498 428.698 77.188Z" fill="#FFD16A"/>
<path d="M341.914 310.071L341.049 300.182C341.049 300.182 299.736 300.329 285.162 306.378C270.587 312.427 245.122 336.207 245.122 336.207L261.48 358.607C261.48 358.607 283.882 336.902 297.934 335.647C311.986 334.391 340.524 336.207 340.524 336.207L341.914 310.071Z" fill="#43A9BE"/>
<path d="M136.205 317.043C137.078 316.048 143.467 306.378 143.467 306.378C143.467 306.378 206.803 299.932 218.711 303.057C230.619 306.182 262.275 336.194 262.275 336.194L252.502 359.976C252.502 359.976 206.795 334.857 198.933 334.757C191.071 334.656 140.734 345.046 140.734 345.046L136.205 317.043Z" fill="#FFEFD1"/>
<path d="M291.153 370.395L255.044 344.641L241.48 363.74L277.59 389.494L291.153 370.395Z" fill="#A75F6D"/>
<path d="M227.615 360.332L234.005 318.839C245.121 323.411 263.085 337.472 270.271 342.883C270.271 342.883 257.691 375.088 251.768 379.334L227.615 360.332Z" fill="#FFD16A"/>
<path d="M297.903 230.005C304.294 231.827 309.315 237.232 310.298 243.349C310.97 247.525 309.895 251.747 309.347 255.939C308.8 260.131 308.879 264.699 311.501 268.156C315.165 272.986 322.945 274.534 325.454 279.958C327.647 284.699 324.49 290.376 319.838 293.219C317.596 294.59 315.031 295.499 312.934 297.054C310.836 298.608 309.22 301.119 309.917 303.519C310.545 305.679 312.768 307.037 314.403 308.686C319.582 313.911 318.53 322.74 313.515 328.101C308.5 333.462 300.573 335.799 292.92 336.206C296.379 333.113 296.622 327.894 294.879 323.748C293.137 319.601 289.793 316.237 286.666 312.857C283.538 309.476 280.467 305.806 279.469 301.454C278.022 295.142 281.067 289.018 282.023 282.86C283.114 275.827 279.962 271.407 276.789 265.329C271.875 255.915 271.182 243.678 279.047 235.089C283.538 230.186 291.263 228.113 297.903 230.005Z" fill="#F48A4E"/>
<path d="M345.492 434.13C344.904 440.893 343.306 450.125 341.335 459.78C325.802 463.533 312.718 464.791 301.853 464.592L302.385 453.957C302.385 453.957 302.37 454.028 302.338 454.156L299.5 464.607C296.138 464.496 292.998 464.28 290.073 463.97C275.646 462.457 266.465 458.792 261.481 455.71C263.683 435.643 266.219 410.773 270.273 400.05C270.957 398.226 271.687 396.816 272.467 395.9C281.433 385.417 333.561 387.99 333.561 387.99C333.561 387.99 335.62 391.415 338.044 396.944C341.915 405.778 346.708 419.982 345.492 434.13Z" fill="#0095DC"/>
<path d="M338.043 396.944C300.915 409.698 277.219 402.759 270.271 400.05C270.955 398.226 271.686 396.816 272.465 395.9C281.432 385.417 333.56 387.99 333.56 387.99C333.56 387.99 335.62 391.416 338.043 396.944Z" fill="#0084C6"/>
<path d="M268.142 356.01C268.142 356.01 263.763 372.056 260.011 383.661C258.294 388.969 256.706 393.344 255.732 394.833C254.303 397.025 246.287 399.439 238.062 401.406C228.444 403.706 218.538 405.391 218.538 405.391L213.681 391.341C213.681 391.341 235.781 380.646 239.339 378.774C239.57 378.651 239.722 378.571 239.786 378.528C240.306 378.181 242.773 368.412 245.118 358.701C247.485 348.932 249.715 339.221 249.715 339.221L258.358 333.552L260.978 331.831L262.276 336.191L268.142 356.01Z" fill="#FECBAF"/>
<path d="M238.062 401.407C228.444 403.706 218.538 405.391 218.538 405.391L213.681 391.341C213.681 391.341 235.781 380.646 239.339 378.774C238.733 382.946 237.002 395.976 238.062 401.407Z" fill="#F2B3A0"/>
<path d="M268.142 356.014C268.142 356.014 263.762 372.058 260.01 383.664C258.961 368.082 249.192 360.992 245.122 358.698C247.483 348.931 249.716 339.22 249.716 339.22L258.356 333.549L262.275 336.194L268.142 356.014Z" fill="#F2B3A0"/>
<path d="M332.559 355.798C334.451 362.904 339.22 382.931 334.475 387.99C329.642 393.144 277.243 403.643 270.113 396.976C268.961 395.9 268.007 393.813 267.22 391.2C264.422 381.911 263.706 366.059 263.706 366.059L242.419 354.501C242.419 354.501 249.804 322.485 266.718 319.975C283.626 317.474 313.203 313.236 313.203 313.236C313.203 313.236 320.119 312.176 327.686 317.044C331.176 319.282 345.738 334.226 347.908 336.21L331.86 353.282C331.86 353.282 332.138 354.221 332.559 355.798Z" fill="#FF889C"/>
<path d="M334.475 387.99C329.642 393.144 277.243 403.644 270.113 396.976C268.961 395.9 268.007 393.813 267.22 391.2C272.076 391.878 277.203 391.479 282.021 390.547C288.213 389.352 294.238 387.345 299.938 384.652C310.04 379.881 319.134 372.942 326.383 364.418C327.957 362.57 330.541 358.826 332.56 355.799C334.45 362.904 339.22 382.932 334.475 387.99Z" fill="#F27999"/>
<path d="M263.376 364.356C261.16 354.438 259.753 344.338 259.174 334.191C257.392 344.51 258.786 354.948 263.376 364.356Z" fill="#F27999"/>
<path d="M263.376 363.386C259.271 356.554 256.432 348.962 255.042 341.109C254.504 349.197 257.525 357.788 263.376 363.386Z" fill="#F27999"/>
<path d="M312.291 313.238C312.291 313.238 308.469 332.99 286.991 335.892C265.12 338.848 265.806 319.977 265.806 319.977C265.806 319.977 272.197 317.779 275.273 315.429C275.425 315.318 275.56 315.198 275.695 315.086C278.564 312.609 275.695 305.408 275.695 305.408L292.594 297.88C292.594 297.88 293.278 303.042 295.05 307.065C295.996 309.232 297.252 311.064 298.889 311.582C303.563 313.079 312.291 313.238 312.291 313.238Z" fill="#FECBAF"/>
<path d="M295.05 307.064C292.482 309.685 289.43 311.844 286.083 313.286C282.681 314.736 278.969 315.461 275.273 315.429C275.424 315.318 275.559 315.198 275.694 315.086C278.564 312.609 275.694 305.408 275.694 305.408L292.593 297.88C292.593 297.88 293.277 303.042 295.05 307.064Z" fill="#F2B3A0"/>
<path d="M245.5 284.125C244.968 287.215 248.229 290.359 252.785 291.149C257.34 291.937 261.465 290.072 261.998 286.982C262.531 283.892 259.27 280.747 254.714 279.958C250.158 279.168 246.033 281.035 245.5 284.125Z" fill="#F2B3A0"/>
<path d="M253.309 283.708C255.129 300.553 266.564 312.028 280.308 310.155C294.483 308.222 303.812 295.269 301.991 278.424C300.171 261.578 287.797 249.105 274.353 250.564C260.911 252.024 251.489 266.862 253.309 283.708Z" fill="#FECBAF"/>
<path d="M297.546 274.199C291.822 271.458 286.909 267.039 283.574 261.63C275.825 268.893 266.171 274.095 255.767 276.177C254.511 278.625 253.497 281.396 253.141 284.126C251.965 277.958 252.42 271.487 254.448 265.546C264.166 261.067 273.966 256.902 284.077 253.404C288.97 257.725 293.993 262.362 298.887 266.683C298.658 269.167 297.775 271.715 297.546 274.199Z" fill="#F2B3A0"/>
<path d="M305.33 280.397C304.883 282.379 301.78 282.458 301.275 283.991C299.255 279.516 297.091 274.635 297.091 274.635C297.091 274.635 294.4 272.242 291.261 268.59C288.736 265.668 285.922 261.93 283.966 257.975C279.846 263.058 274.442 266.826 268.503 269.783C264.16 271.945 259.528 273.673 254.91 275.155C253.95 278.677 253.561 282.119 253.749 286.739C250.148 280.007 248.207 273.688 249.319 264.613C249.499 263.181 249.838 261.771 250.307 260.39C251.736 256.225 254.384 252.357 257.479 249.248C258.958 247.751 260.538 246.435 262.141 245.329C272.112 238.481 282.458 242.422 285.749 245.929C293.151 243.658 301.052 246.074 304.321 254.866C304.797 256.153 305.201 257.889 305.511 259.885C305.678 260.955 305.822 262.104 305.93 263.298C306.484 269.06 306.362 275.871 305.33 280.397Z" fill="#FFA458"/>
<path d="M250.307 260.39C255.09 265.321 261.664 268.467 268.504 269.783C264.161 271.945 259.529 273.674 254.911 275.156C253.951 278.677 253.561 282.119 253.749 286.74C250.149 280.008 248.208 273.688 249.319 264.614C249.499 263.181 249.837 261.771 250.307 260.39Z" fill="#F99653"/>
<path d="M305.33 280.397C304.883 282.379 301.78 282.458 301.275 283.991C299.255 279.516 297.091 274.635 297.091 274.635C297.091 274.635 294.4 272.241 291.261 268.59C294.277 267.845 297.257 266.919 300.178 265.893C302.119 265.213 304.132 264.381 305.929 263.297C306.484 269.06 306.362 275.871 305.33 280.397Z" fill="#F99653"/>
<path d="M294.407 284.713C295.674 287.687 300.062 288.661 304.21 286.887C308.357 285.113 310.692 281.265 309.425 278.29C308.159 275.316 303.77 274.342 299.623 276.116C295.476 277.89 293.141 281.738 294.407 284.713Z" fill="#FECBAF"/>
<path d="M305.509 259.882C304.187 257.677 302.621 255.648 300.723 253.917C296.122 249.727 289.04 247.255 283.464 250.001C278.574 246.086 271.802 245.021 265.672 246.264C262.807 246.849 260.067 247.885 257.482 249.247C258.959 247.752 260.539 246.434 262.142 245.331C272.112 238.477 282.459 242.423 285.746 245.931C293.154 243.659 301.056 246.072 304.32 254.865C304.8 256.152 305.198 257.891 305.509 259.882Z" fill="#FFC76E"/>
<path d="M271.537 288.628C271.522 289.813 271.788 291.083 272.418 291.921" stroke="#D85555" stroke-miterlimit="10" stroke-linecap="round" stroke-linejoin="round"/>
<path d="M273.632 296.996C276.456 296.508 281.539 294.843 285.563 289.882C287.238 292.907 286.251 297.006 283.159 298.889C278.806 301.538 274.572 299.871 273.632 296.996Z" fill="white"/>
<path d="M284.242 282.665C284.538 284.018 285.628 284.927 286.677 284.697C287.725 284.466 288.334 283.183 288.038 281.83C287.742 280.478 286.652 279.568 285.604 279.798C284.555 280.029 283.946 281.313 284.242 282.665Z" fill="#313D51"/>
<path d="M290.893 276.561C289.625 275.232 287.894 274.462 286.15 274.452C284.406 274.441 282.667 275.19 281.387 276.503C281.841 273.999 283.795 271.901 286.096 271.894C288.398 271.888 290.427 274.06 290.893 276.561Z" fill="#FFA458"/>
<path d="M263.776 287.156C264.073 288.509 265.162 289.418 266.21 289.188C267.258 288.958 267.868 287.674 267.572 286.322C267.276 284.969 266.186 284.06 265.138 284.29C264.09 284.521 263.48 285.804 263.776 287.156Z" fill="#313D51"/>
<path d="M266.932 280.786C265.562 279.647 263.723 279.185 262.025 279.552C260.327 279.92 258.798 281.111 257.945 282.731C258.056 281.629 258.111 280.392 258.57 279.399C259.028 278.406 259.774 277.532 260.736 277.135C261.953 276.633 263.365 276.963 264.465 277.714C265.564 278.464 266.212 279.619 266.932 280.786Z" fill="#FFA458"/>
<path d="M151.118 339.222L119.768 362.565L127.83 386.068L161.7 364.043L151.118 339.222Z" fill="#A75F6D"/>
<path d="M235.847 396.771C235.653 398.766 235.696 401.652 235.876 404.876C236.44 414.971 238.322 428.413 238.322 428.413C202.78 439.664 162.216 421.572 162.216 421.572C162.216 421.572 169.099 394.622 170.081 388.997C170.42 387.052 170.549 383.69 170.571 380.132C170.621 373.437 170.297 366.032 170.297 366.032L156.011 372.944C145.873 362.322 143.464 340.882 143.464 340.882C143.464 340.882 162.36 325.119 177.83 317.092C189.778 310.889 206.727 310.071 206.727 310.071C206.727 310.071 233.178 317.816 235.516 319.594C241.52 324.171 241.591 348.966 241.512 359.277C241.454 367.001 236.54 389.735 235.847 396.771Z" fill="#FFD16A"/>
<path d="M238.322 428.414C202.78 439.665 162.216 421.574 162.216 421.574C162.216 421.574 169.099 394.624 170.081 388.998C170.42 387.053 170.549 383.691 170.571 380.133C178.262 392.043 191.632 400.25 205.63 403.504C215.544 405.811 225.739 405.97 235.877 404.878C236.439 414.972 238.322 428.414 238.322 428.414Z" fill="#F7C263"/>
<path d="M171.005 363.75C173.633 352.082 174.584 340.034 173.817 328.095C176.709 340.284 176.121 352.32 171.005 363.75Z" fill="#F7C263"/>
<path d="M171.454 363.793C172.524 354.696 171.813 345.393 169.374 336.566C169.473 345.812 170.315 354.618 171.454 363.793Z" fill="#F7C263"/>
<path d="M240.663 367.905C242.353 355.744 242.063 343.309 239.809 331.24C244.804 342.769 245.195 356.186 240.663 367.905Z" fill="#F7C263"/>
<path d="M219.777 316.326C219.777 322.532 215.469 329.086 206.844 329.086C197.092 329.086 192.775 319.551 191.305 312.86C193.276 311.689 194.627 308.813 195.526 306.335C196.813 302.822 197.203 298.481 197.203 294.673C203.395 296.298 210.557 296.936 216.972 297.111C216.042 301.373 216.32 308.455 217.934 312.652C218.426 313.927 219.038 315.745 219.777 316.326Z" fill="#FECBAF"/>
<path d="M217.933 312.652C210.048 313.6 201.765 311.258 195.525 306.335C196.813 302.822 197.202 298.481 197.202 294.673C203.394 296.298 210.556 296.936 216.971 297.111C216.041 301.373 216.319 308.455 217.933 312.652Z" fill="#F2B3A0"/>
<path d="M233.416 284.045C233.231 285.268 232.985 286.463 232.695 287.618C229.409 300.759 219.752 309.15 207.22 308.323C191.652 307.291 179.342 289.046 183.211 272.161C183.234 272.037 183.266 271.906 183.297 271.783C187.438 254.789 202.007 243.758 215.854 247.144C229.693 250.529 236.07 266.755 233.416 284.045Z" fill="#FECBAF"/>
<path d="M233.416 284.045C233.231 285.268 232.985 286.463 232.695 287.617C232.375 286.129 231.5 284.644 230.505 283.45C228.757 281.356 226.537 279.429 225.946 276.767C225.245 273.606 227.065 270.164 225.895 267.145C225.189 265.328 223.544 264.069 222.41 262.49C221.455 261.157 220.867 259.589 220.042 258.17C219.218 256.751 218.054 255.406 216.475 254.963C214.897 254.521 212.246 255.403 211.92 257.008C210.723 255.073 207.714 255.074 205.884 256.413C204.046 257.76 203.106 259.983 202.257 262.095C201.416 264.206 200.507 266.432 198.705 267.827C196.87 269.245 194.33 269.61 192.721 271.283C190.971 273.104 190.845 275.894 190.759 278.42C190.68 280.946 190.404 283.766 188.485 285.412L188.825 281.69C185.827 279.363 183.945 275.894 183.21 272.16C183.233 272.037 183.265 271.906 183.295 271.783C187.436 254.789 202.005 243.757 215.852 247.143C229.693 250.528 236.07 266.755 233.416 284.045Z" fill="#F2B3A0"/>
<path d="M199.222 254.999C199.222 254.999 207.6 252.264 212.149 254.783L211.378 249.243L198.933 249.528L199.222 254.999Z" fill="#5D3C68"/>
<path d="M212.149 254.783C212.149 254.783 219.223 252.624 225.272 255.894L224.904 248.583L213.955 248.917L212.149 254.783Z" fill="#5D3C68"/>
<path d="M251.415 300.308C249.989 299.906 249.232 300.422 248.408 301.144C247.576 301.873 246.918 302.793 245.985 303.384C244.208 304.5 241.88 304.082 239.851 304.604C238.29 305.014 236.387 305.646 235.009 307.756C233.054 304.704 235.332 302.674 235.356 300.401C235.388 298.13 235.513 295.731 233.635 294.458C232.184 293.461 231.516 292.919 231.289 291.171C231.072 289.391 231.874 288.261 232.473 286.65C232.528 286.513 232.585 286.368 232.632 286.222C233.064 284.921 232.474 283.493 231.703 282.352C230.939 281.218 229.966 280.188 229.476 278.9C228.165 275.404 230.884 271.533 230.231 267.86C229.519 263.87 225.168 261.49 223.862 257.658C222.825 254.632 222.953 251.694 219.054 251.076C215.154 250.467 212.15 254.78 212.15 254.78C212.143 254.772 212.143 254.763 212.129 254.755C212.086 254.689 212.028 254.615 211.971 254.542C211.956 254.517 211.941 254.508 211.927 254.485C210.499 252.747 205.938 249.229 203.3 251.784C201.923 253.128 201.172 255.432 201.038 257.346C200.903 259.268 200.769 261.307 199.651 262.87C197.551 265.802 192.925 265.842 190.662 268.647C187.605 272.434 190.649 279.28 189.94 283.807C189.837 284.464 189.651 285.07 189.361 285.607C188.411 287.361 186.602 288.357 185.234 289.803C182.855 292.343 187.451 297.934 182.712 303.07C180.392 300.112 176.468 297.141 172.726 297.385C170.973 297.503 169.171 298.008 167.507 297.443C165.445 296.744 165.206 294.057 163.912 292.305C162.609 290.552 160.538 288.875 158.462 289.535C157.576 288.23 158.93 286.509 160.353 285.825C161.782 285.148 163.53 284.741 164.279 283.35C165.769 280.575 160.838 278.127 161.389 275.021C162.039 271.326 168.043 271.192 169.458 267.717C170.452 265.264 168.642 262.267 169.819 259.895C170.923 257.675 173.082 256.426 175.044 254.955C176.139 254.14 177.161 253.258 177.918 252.117C178.814 250.743 181.907 241.334 189.392 236.291C190.833 235.311 192.451 234.497 194.24 233.937C198.484 232.615 203.479 233.543 207.382 235.864C213.88 228.768 225.088 234.224 228.548 237.893C232.271 241.836 230.705 243.59 233.7 245.199C234.674 245.72 235.821 245.823 236.795 246.337C238.72 247.347 239.861 249.7 239.758 251.873C239.415 258.907 242.127 259.427 242.16 262.798C242.173 263.713 242.041 264.587 241.897 265.415C241.501 267.64 240.959 269.599 242.477 271.521C243.417 272.705 244.635 273.672 245.675 274.752C246.327 275.426 246.914 276.15 247.323 276.988C248.87 280.193 247.414 283.947 247.209 287.505C246.957 291.982 253.312 292.347 251.415 300.308Z" fill="#452950"/>
<path d="M189.604 283.731C189.719 283.762 189.826 283.784 189.942 283.807C189.839 284.464 189.653 285.07 189.363 285.607C188.413 287.361 186.604 288.357 185.236 289.803C182.857 292.343 187.453 297.934 182.714 303.07C180.394 300.113 176.471 297.141 172.728 297.386C170.975 297.503 169.174 298.008 167.509 297.443C165.447 296.744 165.208 294.057 163.914 292.305C162.611 290.552 160.54 288.875 158.464 289.536C157.578 288.23 158.932 286.509 160.355 285.825C161.784 285.148 163.533 284.741 164.281 283.35C165.771 280.575 160.84 278.127 161.391 275.021C162.041 271.326 168.045 271.192 169.46 267.717C170.454 265.264 168.644 262.267 169.821 259.895C170.925 257.675 173.084 256.427 175.047 254.955C174.426 257.923 174.971 260.169 176.127 262.273C176.919 263.705 178.639 264.663 178.81 266.3C178.973 267.825 178.312 269.316 178.069 270.84C177.586 273.974 178.983 277.218 181.238 279.452C183.494 281.679 186.515 282.992 189.604 283.731Z" fill="#3A2547"/>
<path d="M251.415 300.308C249.989 299.907 249.232 300.422 248.408 301.144C247.576 301.873 246.918 302.793 245.985 303.384C244.208 304.5 241.88 304.082 239.851 304.604C238.29 305.015 236.387 305.646 235.009 307.756C233.054 304.705 235.332 302.674 235.356 300.402C235.388 298.13 235.513 295.731 233.635 294.458C232.184 293.461 231.516 292.919 231.289 291.171C231.072 289.391 231.874 288.262 232.473 286.65C236.925 286.622 244.254 281.297 245.677 274.752C246.329 275.426 246.916 276.15 247.325 276.988C248.872 280.193 247.416 283.947 247.211 287.505C246.957 291.983 253.312 292.347 251.415 300.308Z" fill="#3A2547"/>
<path d="M241.899 265.414C240.978 259.053 237.726 258.888 236.947 256.504C236.455 255.004 236.547 252.393 235.67 251.08C234.1 248.74 230.605 249.264 228.348 247.577C226.046 245.855 225.414 242.795 223.455 240.681C221.424 238.492 218.169 236.52 215.179 236.576C212.19 236.625 209.481 238.26 207.489 241.106C203.684 237.954 198.825 236.113 193.891 235.962C192.382 235.915 190.878 236.024 189.396 236.291C190.837 235.311 192.454 234.497 194.243 233.937C198.488 232.615 203.483 233.543 207.385 235.865C213.883 228.769 225.091 234.225 228.551 237.893C232.275 241.837 230.708 243.591 233.703 245.199C234.677 245.721 235.824 245.823 236.798 246.337C238.724 247.348 239.864 249.7 239.761 251.874C239.418 258.908 242.131 259.428 242.163 262.798C242.176 263.713 242.044 264.588 241.899 265.414Z" fill="#5F3C68"/>
<path d="M222.596 277.929C222.525 279.312 221.599 280.389 220.527 280.333C219.455 280.278 218.645 279.112 218.716 277.729C218.787 276.346 219.714 275.27 220.785 275.325C221.856 275.38 222.667 276.546 222.596 277.929Z" fill="#1E2C3F"/>
<path d="M227.158 272.427C226.094 270.804 224.275 269.651 222.295 269.343C220.315 269.035 218.207 269.576 216.657 270.792C216.553 269.041 218.278 267.261 220.003 266.656C221.728 266.051 223.772 266.507 225.141 267.678C226.511 268.847 227.248 270.674 227.158 272.427Z" fill="#452950"/>
<path d="M200.134 276.507C200.07 277.76 199.23 278.735 198.259 278.685C197.288 278.635 196.554 277.578 196.618 276.325C196.683 275.072 197.522 274.097 198.494 274.147C199.464 274.197 200.199 275.254 200.134 276.507Z" fill="#1E2C3F"/>
<path d="M203.367 270.257C201.668 269.322 199.648 268.997 197.746 269.352C195.843 269.707 194.071 270.74 192.813 272.226C193.356 270.571 194.2 269.141 195.525 268.026C196.852 266.91 198.594 266.166 200.297 266.448C202 266.73 203.441 268.513 203.367 270.257Z" fill="#452950"/>
<path d="M212.909 281.679C212.979 283.892 212.781 286.114 212.319 288.279" stroke="#772F50" stroke-miterlimit="10" stroke-linecap="round" stroke-linejoin="round"/>
<path d="M216.171 293.329C214.094 294.849 211.345 295.409 208.841 294.821C206.337 294.233 204.122 292.509 202.935 290.222" stroke="#772F50" stroke-miterlimit="10" stroke-linecap="round" stroke-linejoin="round"/>
<path d="M159.072 516H124.921L113.065 457.784L111.808 516H75.1501L68.0268 428.66L66.67 412.03L75.1501 399.561L146.803 419.994L148.3 431.746L159.072 516Z" fill="#2188BE"/>
<path d="M148.3 431.746C138.538 433.385 121.47 435.186 98.7942 433.401C83.9607 432.238 74.0498 430.26 68.0268 428.661L66.67 412.031L75.1501 399.562L146.803 419.995L148.3 431.746Z" fill="#1C6FAD"/>
<path d="M27.9766 205.785C27.9766 205.785 25.4963 199.179 55.4761 192.179L40.551 206.595L27.9766 205.785Z" fill="#EACCAD"/>
<path d="M60.7624 186.265C56.0291 189.512 54.7666 192.101 52.4864 194.624C52.5081 197.481 52.4355 201.255 51.9016 201.457C51.0427 201.776 39.5633 207.047 39.5633 207.047C39.5633 207.047 38.6183 203.439 37.8965 200.648C36.2805 200.633 34.8158 200.387 33.733 199.816C29.8369 197.777 27.8091 191.956 27.8091 191.956C27.8091 191.956 21.698 186.612 18.1838 183.886C17.4837 183.344 16.7551 182.794 16.3222 182.05C15.8894 181.298 15.846 180.271 16.481 179.664C17.4409 178.731 19.0929 179.295 20.312 179.917C23.3207 181.45 26.3946 182.657 29.4102 184.197C26.7623 181.182 24.1145 178.167 21.466 175.159C20.9395 174.552 20.3981 173.929 20.1024 173.192C19.8066 172.462 19.8066 171.579 20.2971 170.943C20.8812 170.198 22.0073 169.996 22.9598 170.22C23.9123 170.437 24.7278 171.001 25.5066 171.565C28.5513 173.778 31.7405 175.716 34.446 178.29C32.2378 173.517 30.5425 170.61 28.9122 166.228C28.4285 164.92 28.436 163.163 29.6626 162.396C30.4346 161.919 31.4949 162.034 32.2819 162.475C33.0757 162.917 33.6598 163.625 34.1869 164.334C36.9867 168.108 39.7065 172.7 41.8713 176.973C41.2071 171.883 40.6155 168.021 40.9764 163.531C41.085 162.259 41.5463 160.661 42.8882 160.494C44.3454 160.321 45.1901 161.976 45.5435 163.314C47.7301 171.485 48.2348 176.909 51.0271 185.296C56.814 183.156 60.5005 179.367 64.6714 181.659C66.1307 182.462 63.6199 184.306 60.7624 186.265Z" fill="#FFA68F"/>
<path d="M149.546 404.544C149.502 419.432 149.43 429.954 149.43 429.954C149.43 429.954 105.785 436.368 64.5141 420.148L69.2976 361.39L71.347 336.205C71.347 336.205 51.671 290.679 43.8855 268.495C38.2724 252.493 27.9761 205.782 27.9761 205.782C35.6096 204.061 45.3285 198.508 55.4735 192.181C55.4735 192.181 65.6328 238.524 71.2677 252.493C73.8002 258.763 83.5768 278.279 98.5704 292.401C104.364 297.86 110.937 302.509 118.181 305.279C119.956 305.959 124.322 306.299 129.711 306.479C135.288 306.652 141.962 306.652 148.002 306.652C149.611 306.652 149.654 368.448 149.546 404.544Z" fill="#FFEFD1"/>
<path d="M149.546 404.543C149.502 419.432 149.43 429.953 149.43 429.953C149.43 429.953 105.785 436.367 64.514 420.148L69.2975 361.389C80.7125 381.564 105.1 410.371 149.546 404.543Z" fill="#F7E0C4"/>
<path d="M73.2493 333.172C80.587 322.498 85.9506 310.466 88.9872 297.865C89.4437 311.538 83.8455 324.547 73.2493 333.172Z" fill="#F7E0C4"/>
<path d="M73.7133 330.173C75.4602 319.75 76.0986 309.141 75.6136 298.583C79.6813 308.797 79.1725 320.634 73.7133 330.173Z" fill="#F7E0C4"/>
<path d="M149.351 336.177C149.594 327.597 148.003 317.653 145.382 309.482C150.764 316.818 152.905 327.798 149.351 336.177Z" fill="#F7E0C4"/>
<path d="M148.645 335.693C152.019 328.733 154.757 318.332 153.516 310.855C157.792 318.008 154.735 329.617 148.645 335.693Z" fill="#F7E0C4"/>
<path d="M121.262 325.602C115.086 324.304 105.221 313.414 102.241 298.541C103.274 297.92 104.069 297.155 104.696 296.279C106.469 293.762 106.795 290.36 107.216 287.094C114.569 291.643 118.989 293.778 127.311 296.327C125.578 300.907 124.958 304.643 127.191 310.132C127.223 310.235 127.262 310.34 127.311 310.443C129.386 315.366 125.864 326.574 121.262 325.602Z" fill="#FFA68F"/>
<path d="M127.192 310.132C126.317 309.973 125.451 309.765 124.593 309.534C118.059 307.766 112.01 304.157 107.36 299.21C106.573 298.374 105.595 297.37 104.697 296.279C106.47 293.761 106.795 290.359 107.217 287.093C114.569 291.642 118.989 293.777 127.311 296.326C125.578 300.907 124.958 304.643 127.192 310.132Z" fill="#F28D86"/>
<path d="M156.791 277.578C157.529 280.87 154.192 284.425 149.337 285.518C144.482 286.611 139.948 284.828 139.21 281.536C138.472 278.244 141.81 274.689 146.664 273.596C151.52 272.503 156.054 274.286 156.791 277.578Z" fill="#F28D86"/>
<path d="M150.246 274.194C148.553 292.351 139.928 303.666 124.976 303.469C110.423 303.279 96.0785 287.436 97.7718 269.278C99.4651 251.12 112.585 237.501 127.075 238.858C141.566 240.216 151.94 256.036 150.246 274.194Z" fill="#FFA68F"/>
<path d="M102.289 270.631C107.719 267.461 111.772 261.388 113.851 255.445C116.726 256.316 119.936 255.074 122.968 255.377C125.908 255.67 128.299 257.754 130.756 259.4C135.612 262.652 141.861 263.686 147.614 262.681C148.844 266.324 149.582 270.959 150.243 274.747C151.149 268.713 151.305 262.568 150.706 256.496C139.414 254.5 128.294 251.519 117.514 247.599C116.18 247.114 114.637 246.629 113.409 247.341C112.793 247.699 112.369 248.305 111.966 248.894C109.606 252.346 107.283 255.823 104.998 259.324C104.154 260.617 103.306 261.93 102.81 263.392C102.1 265.48 102.234 268.426 102.289 270.631Z" fill="#F28D86"/>
<path d="M160.529 255.803C160.529 255.811 160.521 255.811 160.521 255.811C160.084 256.321 159.591 256.799 159.035 257.221C157.675 258.273 155.942 259.038 153.78 259.42C153.78 262.838 151.944 272.293 149.734 277.83C150.291 272.142 149.806 266.375 148.645 260.782C137.843 262.758 131.174 256.067 126.15 254.107C121.691 252.37 117.7 255.277 112.208 252.386C111.373 262.63 105.165 269.545 98.5358 275.089C97.1844 274.412 95.8255 273.13 94.8316 271.99C92.097 265.203 87.304 247.359 98.6789 243.241C98.3845 241.329 98.5358 239.72 99.0208 238.365C99.8159 236.103 101.517 234.55 103.496 233.474C107.2 231.466 111.898 231.14 113.552 230.957C116.62 230.623 119.752 230.519 122.669 229.508C125.03 228.679 127.152 227.285 129.442 226.274C131.731 225.254 134.362 224.625 136.73 225.437C140.395 226.68 142.47 229.723 146.07 231.125C148.677 232.129 152.191 232.216 154.98 232.344C160.903 232.63 166.88 248.323 160.529 255.803Z" fill="#462950"/>
<path d="M160.529 255.803C161.189 253.453 161.531 251.047 161.301 248.625C160.879 244.188 158.026 239.711 153.694 238.676C150.919 238.007 147.93 238.795 145.18 238.031C140.689 236.788 137.931 231.761 133.376 230.782C128.543 229.738 124.092 233.641 119.227 234.55C115.348 235.274 111.413 234.056 107.494 233.57C106.198 233.403 104.831 233.355 103.496 233.474C107.2 231.466 111.898 231.14 113.552 230.957C116.62 230.623 119.752 230.519 122.669 229.508C125.03 228.679 127.152 227.285 129.442 226.273C131.731 225.253 134.362 224.625 136.73 225.437C140.395 226.68 142.47 229.723 146.07 231.125C148.677 232.128 152.191 232.216 154.98 232.344C160.903 232.63 166.88 248.323 160.529 255.803Z" fill="#5F3C68"/>
<path d="M159.035 257.221C157.675 258.273 155.942 259.038 153.78 259.42C153.78 262.838 151.944 272.293 149.734 277.83C150.291 272.142 149.806 266.374 148.645 260.782C137.843 262.758 131.174 256.067 126.15 254.107C121.691 252.37 117.7 255.277 112.208 252.386C111.373 262.63 105.165 269.545 98.5358 275.089C97.1844 274.412 95.8255 273.13 94.8316 271.99C92.097 265.203 87.304 247.359 98.6789 243.241C98.3845 241.329 98.5358 239.72 99.0208 238.365C99.4659 240.811 100.992 243.161 103.027 244.666C106.342 247.12 110.618 247.797 114.727 248.147C118.837 248.498 123.066 248.617 126.881 250.179C130.427 251.637 133.376 254.249 136.794 255.986C141.436 258.344 146.809 258.99 151.991 258.503C154.377 258.28 156.722 257.826 159.035 257.221Z" fill="#362244"/>
<path d="M103.644 279.63C101.775 282.563 96.9442 282.82 92.8534 280.203C88.7632 277.586 86.962 273.086 88.831 270.152C90.7001 267.218 95.5311 266.961 99.6219 269.578C103.712 272.196 105.513 276.696 103.644 279.63Z" fill="#FFA68F"/>
<path d="M120.775 274.38C120.539 275.744 119.492 276.702 118.434 276.519C117.377 276.336 116.71 275.081 116.946 273.717C117.181 272.352 118.229 271.394 119.286 271.577C120.343 271.761 121.009 273.015 120.775 274.38Z" fill="#313D51"/>
<path d="M126.653 265.675C123.715 262.417 117.493 263.067 113.716 265.161C113.716 265.161 116.898 259.743 122.39 260.091C127.359 260.406 126.653 265.675 126.653 265.675Z" fill="#462950"/>
<path d="M143.795 276.376C143.559 277.74 142.512 278.698 141.454 278.515C140.397 278.332 139.73 277.077 139.965 275.713C140.2 274.348 141.249 273.39 142.306 273.573C143.364 273.756 144.03 275.011 143.795 276.376Z" fill="#313D51"/>
<path d="M138.686 267.908C140.756 266.738 146.254 264.135 148.846 268.201C148.846 268.201 149.747 264.59 147.168 263.585C144.611 262.588 140.331 263.016 138.686 267.908Z" fill="#462950"/>
<path d="M134.675 277.477C134.86 279.856 134.55 282.273 133.771 284.528" stroke="#D85555" stroke-miterlimit="10" stroke-linecap="round" stroke-linejoin="round"/>
<path d="M134.41 289.165C130.937 288.749 124.643 287.094 119.461 281.583C117.584 285.158 119.013 289.834 122.889 291.844C128.345 294.673 133.42 292.528 134.41 289.165Z" fill="white"/>
<path d="M418.545 504.873L396.285 457.887L397.267 504.873H361.162L352.135 413.215L350.75 399.129L429.901 387.711L433.365 405.962L452.117 504.873H418.545Z" fill="#AC3F58"/>
<path d="M433.365 405.962C393.984 420.872 364.531 416.44 352.135 413.215L350.75 399.129L429.901 387.711L433.365 405.962Z" fill="#993159"/>
<path d="M431.481 396.048C387.728 415.947 354.278 410.444 354.278 410.444V301.532C354.278 301.532 382.46 294.468 384.394 294.482C386.327 294.496 399.084 295.473 400.231 295.95L404.221 308.727L431.481 396.048Z" fill="#FFEFD1"/>
<path d="M431.481 396.048C387.728 415.947 354.278 410.444 354.278 410.444V369.308C357.322 373.242 361.197 376.51 365.822 378.231C375.433 381.803 386.768 377.825 393.666 370.226C400.563 362.633 403.493 352.084 403.752 341.815C404.012 331.548 401.841 321.388 399.683 311.352L404.222 308.727L431.481 396.048Z" fill="#F7E0C4"/>
<path d="M384.395 294.483C384.395 294.483 372.908 309.639 367.511 310.355C362.114 311.07 354.278 302.777 354.278 302.777C354.278 302.777 355.671 302.104 356.998 300.527C358.989 298.177 360.829 293.824 357.655 286.738L377.815 281.503C377.815 281.503 378.074 285.581 379.763 289.284C380.744 291.438 382.209 293.463 384.395 294.483Z" fill="#FFC6AF"/>
<path d="M379.762 289.284C375.83 294.258 368.37 300.983 356.998 300.527C358.989 298.177 360.829 293.824 357.655 286.738L377.815 281.503C377.815 281.503 378.075 285.582 379.762 289.284Z" fill="#F4A795"/>
<path d="M327.628 260.367C326.245 263.707 329.117 268.074 334.042 270.121C338.967 272.168 344.08 271.12 345.462 267.781C346.844 264.441 343.973 260.074 339.047 258.027C334.123 255.98 329.01 257.028 327.628 260.367Z" fill="#F4A795"/>
<path d="M336.499 259.192C335.062 277.372 341.626 290 356.39 292.375C370.761 294.686 387.601 281.542 389.038 263.361C390.475 245.181 379.878 229.51 365.37 228.359C350.862 227.207 337.936 241.012 336.499 259.192Z" fill="#FFC6AF"/>
<path d="M384.324 267.239C383.425 263.175 381.889 259.254 379.79 255.663C375.374 253.814 371.218 250.728 368.14 247.055C368.632 247.842 369.034 248.883 369.257 249.784C369.481 250.685 369.388 251.716 368.79 252.425C368.033 253.323 366.72 253.473 365.548 253.446C359.267 253.301 353.171 249.721 349.975 244.301C347.111 247.64 343.752 250.617 339.976 252.868C338.769 255.708 337.725 258.552 336.518 261.394C336.105 254.158 337.645 247.095 341.104 240.729C351.308 236.786 362.414 234.448 373.35 234.516C378.907 240.539 383.853 247.363 387.471 254.721C386.793 259.015 385.831 263.163 384.324 267.239Z" fill="#F4A795"/>
<path d="M390.421 265.706C389.408 268.472 386.579 268.69 384 270.117C384.108 264.75 382.585 259.303 380.584 254.329C376.18 251.952 372.071 248.664 368.729 244.815C367.698 243.641 366.735 242.405 365.868 241.122C365.793 242.346 366.133 243.869 366.525 245.328C367.219 247.931 368.073 250.353 367.002 250.627C363.371 251.555 358.099 249.713 354.277 246.492C352.123 244.678 350.434 242.418 349.755 239.963C348.937 241.841 347.456 243.912 345.859 245.816C342.855 249.408 339.467 252.424 339.467 252.424C339.467 252.424 337.623 257.844 336.307 264.034C334.765 260.272 332.471 251.083 334.653 242.141C334.948 240.907 335.338 239.681 335.822 238.472C336.008 238.011 336.199 237.559 336.413 237.111C339.417 230.73 345.743 227.425 351.983 228.101C357.618 222.461 370.011 222.6 376.98 225.634C380.549 227.194 383.818 229.511 386.494 232.362C386.916 232.816 387.328 233.276 387.718 233.772C389.701 236.155 391.271 238.871 392.287 241.798C394.791 248.987 393.034 258.553 390.421 265.706Z" fill="#7C314A"/>
<path d="M386.494 232.364C384.752 231.009 382.819 229.871 380.797 229.018C375.161 226.628 368.858 226.128 362.763 226.699C358.63 227.086 354.08 228.241 351.857 231.759C347.005 231.495 341.897 232.804 338.215 235.979C337.342 236.733 336.543 237.572 335.822 238.473C336.007 238.012 336.198 237.561 336.413 237.113C339.417 230.731 345.742 227.427 351.983 228.103C357.617 222.462 370.01 222.602 376.979 225.635C380.549 227.195 383.818 229.511 386.494 232.364Z" fill="#893D58"/>
<path d="M345.859 245.817C342.855 249.409 339.467 252.425 339.467 252.425C339.467 252.425 337.623 257.844 336.307 264.035C334.765 260.273 332.471 251.084 334.653 242.142C335.392 242.577 336.155 242.97 336.934 243.316C339.764 244.585 342.786 245.346 345.859 245.817Z" fill="#682645"/>
<path d="M366.526 245.328C367.22 247.931 368.074 250.352 367.002 250.626C363.372 251.555 358.1 249.713 354.278 246.492C358.394 246.531 362.517 246.158 366.526 245.328Z" fill="#682645"/>
<path d="M390.421 265.706C389.408 268.472 386.579 268.69 384 270.117C384.108 264.75 382.585 259.302 380.584 254.328C376.18 251.951 372.071 248.664 368.729 244.815C373.817 243.527 378.679 241.455 383.04 238.504C384.859 237.277 386.665 235.651 387.717 233.773C389.7 236.156 391.27 238.871 392.287 241.798C394.791 248.986 393.034 258.552 390.421 265.706Z" fill="#682645"/>
<path d="M381.34 272.161C382.68 275.372 387.395 276.455 391.873 274.579C396.35 272.704 398.894 268.579 397.555 265.368C396.215 262.157 391.499 261.074 387.021 262.949C382.544 264.826 380 268.95 381.34 272.161Z" fill="#FFC6AF"/>
<path d="M353.558 267.226C353.135 269.223 353.378 271.468 353.999 272.822" stroke="#D85555" stroke-miterlimit="10" stroke-linecap="round" stroke-linejoin="round"/>
<path d="M354.689 278.595C356.938 279.467 359.488 279.535 361.78 278.782C364.071 278.029 366.087 276.463 367.385 274.426" stroke="#D85555" stroke-miterlimit="10" stroke-linecap="round" stroke-linejoin="round"/>
<path d="M369.217 264.717C369.208 266.102 370.07 267.231 371.143 267.238C372.216 267.246 373.094 266.129 373.103 264.744C373.113 263.36 372.25 262.231 371.177 262.223C370.105 262.216 369.227 263.332 369.217 264.717Z" fill="#313D51"/>
<path d="M376.286 259.812C375.005 258.401 373.242 257.478 371.389 257.25C369.536 257.021 367.609 257.49 366.035 258.549C366.565 256.052 369.063 254.177 371.502 254.341C373.941 254.505 376.094 257.267 376.286 259.812Z" fill="#7C314A"/>
<path d="M345.553 264.009C345.543 265.394 346.405 266.523 347.479 266.53C348.552 266.538 349.429 265.421 349.439 264.037C349.448 262.652 348.586 261.523 347.513 261.516C346.439 261.508 345.562 262.625 345.553 264.009Z" fill="#313D51"/>
<path d="M350.782 258.088C349.464 256.811 347.595 256.125 345.766 256.248C343.937 256.371 342.176 257.3 341.04 258.742C341.583 257.203 342.346 255.633 343.585 254.573C344.823 253.513 346.578 252.961 348.128 253.464C349.899 254.038 351.137 256.257 350.782 258.088Z" fill="#7C314A"/>
<path d="M454.354 190.72C454.354 190.72 447.628 183.466 430.262 184.284L442.308 196.784L454.354 190.72Z" fill="#196D8E"/>
<path d="M423.587 178.996C428.9 181.164 430.681 183.425 433.443 185.407C434.026 188.203 434.895 191.876 435.46 191.96C436.367 192.089 448.7 194.802 448.7 194.802C448.7 194.802 448.86 191.075 448.975 188.194C450.552 187.836 451.931 187.285 452.868 186.497C456.244 183.677 456.994 177.557 456.994 177.557C456.994 177.557 461.836 171.036 464.693 167.626C465.262 166.948 465.858 166.255 466.124 165.435C466.388 164.609 466.213 163.596 465.464 163.137C464.329 162.43 462.833 163.332 461.773 164.199C459.157 166.336 456.409 168.169 453.787 170.315C455.737 166.805 457.686 163.297 459.638 159.794C460.024 159.088 460.422 158.365 460.555 157.582C460.689 156.806 460.502 155.944 459.889 155.426C459.16 154.822 458.017 154.863 457.133 155.285C456.249 155.699 455.571 156.424 454.929 157.14C452.421 159.949 449.714 162.521 447.615 165.612C448.763 160.478 449.805 157.278 450.471 152.649C450.667 151.267 450.288 149.551 448.927 149.063C448.072 148.761 447.06 149.099 446.385 149.697C445.702 150.297 445.281 151.114 444.917 151.918C442.979 156.201 441.293 161.267 440.081 165.903C439.653 160.787 439.414 156.888 438.111 152.577C437.736 151.356 436.947 149.893 435.601 150.015C434.139 150.155 433.665 151.953 433.603 153.335C433.195 161.784 433.848 167.192 432.894 175.983C426.786 175.12 422.381 172.201 418.79 175.327C417.537 176.42 420.38 177.688 423.587 178.996Z" fill="#FFC6AF"/>
<path d="M452.348 251.943C447.528 263.968 422.325 306.652 422.325 306.652C422.325 306.652 426.965 321.165 432.023 338.852C439.094 363.509 446.987 394.342 444.31 400.633C441.893 406.302 428.869 416.085 428.869 416.085L410.074 366.669L381.92 292.639C381.92 292.639 427.051 249.124 428.653 237.634C430.262 226.137 430.262 184.284 430.262 184.284C438.419 188.066 446.465 190.404 454.354 190.72C454.354 190.72 457.168 239.918 452.348 251.943Z" fill="#43A9BE"/>
<path d="M391.2 317.043L397.937 334.756C397.937 334.756 405.402 320.637 404.626 319.6C403.85 318.563 392.88 311.563 392.88 311.563L391.2 317.043Z" fill="#49BEC4"/>
<path d="M391.2 317.043C391.2 317.043 397.937 306.977 405.135 301.263C405.135 301.263 393.022 285.483 388.254 285.483C384.395 285.483 380.866 291.027 380.866 291.027L391.2 317.043Z" fill="#56CCCC"/>
<path d="M421.35 305.428C418.179 295.494 413.349 286.093 407.121 277.736C415.229 284.799 420.206 294.723 421.35 305.428Z" fill="#389BB2"/>
<path d="M421.49 302.346C420.89 293.67 419.129 285.075 416.268 276.864C421.447 284.531 423.289 293.265 421.49 302.346Z" fill="#389BB2"/>
<path d="M360.455 426.157C360.274 426.157 342.38 426.135 336.305 417.661C334.299 414.862 333.029 401.854 332.337 385.527C330.922 352.171 331.882 304.945 333.758 302.602C336.377 299.327 358.203 298.734 358.203 298.734L359.87 393.205L360.455 426.157Z" fill="#43A9BE"/>
<path d="M358.662 324.67C358.662 324.67 359.137 342.587 358.949 342.964C358.595 343.678 348.019 333.183 347.907 331.453C347.796 329.722 353.427 318.343 353.427 318.343L358.662 324.67Z" fill="#49BEC4"/>
<path d="M358.662 324.671C358.662 324.671 348.314 318.86 338.681 318.553C338.681 318.553 342.766 301.566 347.48 298.312C351.414 295.597 357.587 296.489 358.662 297.739L358.662 324.671Z" fill="#56CCCC"/>
<path d="M175.157 136.259C173.455 135.963 171.844 135.163 170.576 133.986C169.905 133.362 169.314 132.306 169.888 131.59C170.395 130.959 171.395 131.139 172.134 131.466C173.441 132.045 175.385 133.375 176.564 134.511C175.62 133.155 173.122 129.056 174.771 128.252C176.932 127.198 178.267 132.562 178.269 133.702C178.192 132.232 178.263 126.695 180.194 127.013C182.976 127.473 180.84 132.419 180.121 133.915C180.893 133.016 183.962 127.791 186.271 130.101C187.602 131.434 183.583 134.653 182.48 135.548C183.726 135.053 188.725 132.506 189.249 135.118C189.692 137.329 183.719 137.72 182.315 137.836C183.423 137.878 189.321 138.544 188.642 140.683C187.869 143.122 182.824 140.186 181.616 139.647C182.8 140.242 187.139 144.088 185.69 145.524C184.249 146.952 181.396 142.588 180.574 141.215C181.411 142.405 182.838 148.518 180.052 148.707C177.749 148.864 178.468 142.882 178.899 141.427C178.724 143.485 176.261 149.206 174.768 147.782C173.299 146.381 175.217 142.916 176.612 141.441C175.778 142.354 171.235 145.93 169.807 144.42C168.017 142.526 172.74 139.887 175.311 139.475C173.161 139.864 167.761 140.296 168.008 137.908C168.253 135.535 175.157 136.259 175.157 136.259Z" fill="#FFEFD1"/>
<path d="M177.274 136.067C177.916 135.524 178.735 135.38 179.736 135.804C180.814 136.26 181.153 137.241 180.844 138.346C180.526 139.479 179.639 140.149 178.489 140.045C177.265 139.934 176.395 138.981 176.447 137.826C176.48 137.095 176.791 136.476 177.274 136.067Z" fill="#EBA23E"/>
<path d="M239.474 195.868C237.753 194.808 236.348 193.24 235.482 191.412C235.022 190.443 234.838 189.039 235.77 188.512C236.593 188.046 237.601 188.675 238.263 189.351C239.432 190.547 240.969 192.835 241.757 194.58C241.318 192.698 240.378 187.163 242.516 187.005C245.318 186.799 244.448 193.203 243.959 194.441C244.511 192.812 246.981 186.829 248.94 188.013C251.763 189.719 247.305 194.164 245.877 195.476C247.104 194.835 252.696 190.493 254.205 194.003C255.075 196.028 249.318 197.78 247.733 198.273C249.301 198.277 255.83 197.68 255.269 200.744C254.795 203.337 248.139 201.17 246.564 200.687C247.75 201.214 253.866 204.496 252.205 206.525C250.311 208.838 246.101 203.46 245.022 202.35C246.05 203.511 249.101 209.57 246.905 210.501C244.722 211.427 243.511 205.449 243.212 203.601C243.607 205.257 242.514 212.514 239.406 211.511C236.837 210.682 240.204 204.498 241.301 203.104C240.222 205.263 235.073 210.408 234.067 208.214C233.078 206.055 236.659 203.124 238.811 202.127C237.51 202.757 231.031 204.669 230.134 202.41C229.008 199.576 235.278 198.76 238.249 199.428C235.745 198.918 229.695 197.043 230.995 194.557C232.289 192.085 239.474 195.868 239.474 195.868Z" fill="#EF9ABB"/>
<path d="M241.856 196.578C242.787 196.267 243.739 196.466 244.643 197.361C245.616 198.324 245.561 199.536 244.747 200.601C243.913 201.694 242.659 202.038 241.455 201.425C240.174 200.773 239.641 199.361 240.197 198.13C240.549 197.35 241.154 196.813 241.856 196.578Z" fill="#FAF9E6"/>
<path d="M396.315 202.732C394.375 203.38 392.388 202.968 390.505 201.1C388.476 199.092 388.594 196.564 390.287 194.345C392.027 192.068 394.639 191.353 397.151 192.627C399.823 193.983 400.935 196.929 399.773 199.496C399.037 201.121 397.776 202.242 396.315 202.732Z" fill="#FFEFD1"/>
<path d="M160.573 223.079C159.388 223.474 158.178 223.221 157.028 222.083C155.791 220.859 155.86 219.316 156.896 217.961C157.958 216.572 159.552 216.135 161.082 216.914C162.712 217.743 163.39 219.54 162.682 221.105C162.235 222.096 161.465 222.78 160.573 223.079Z" fill="#FFD16A"/>
<path d="M25.7096 119.505C26.8978 119.632 29.7934 120.102 31.9431 121.905C34.3457 123.919 35.8507 127.382 33.6785 129.461C30.8692 132.147 27.9417 131.436 25.9307 129.387C23.8429 127.259 22.7128 123.716 21.9894 122.629C22.4617 123.604 22.8421 126.705 22.0456 129.347C21.0579 132.628 18.5653 135.342 15.8253 134.03C11.614 132.014 11.9214 127.915 13.5332 124.892C14.5227 123.038 16.4362 121.785 16.8204 121.088C15.2968 121.492 13.0534 122.447 11.2148 122.617C7.98003 122.921 5.30185 121.899 5.0226 119.057C4.74897 116.271 6.96423 113.718 11.4379 113.311C13.4732 113.125 15.6697 114.221 16.7474 114.903C15.651 114.212 14.1648 111.982 13.7993 110.089C13.1883 106.931 14.4571 103.746 16.8036 103.13C19.7291 102.36 22.1805 105.136 23.1589 108.19C23.7661 110.081 23.4212 112.117 23.44 113.364C22.9152 110.625 31.7894 105.048 34.8068 110.048C39.3516 117.571 25.9439 119.889 25.7096 119.505Z" fill="#69D3E9"/>
<path d="M18.157 118.818C18.0164 117.124 19.214 115.633 20.8351 115.486C22.4563 115.339 23.8844 116.59 24.0268 118.283C24.1674 119.976 22.9679 121.468 21.3487 121.615C19.7275 121.764 18.2994 120.511 18.157 118.818Z" fill="#43A9BE"/>
<path d="M326.019 168.492C326.019 168.492 339.551 169.525 339.365 155.128C339.365 155.128 325.241 155.458 326.019 168.492Z" fill="#EF9ABB"/>
<path d="M312.094 372.002C311.234 369.639 311.043 367.016 311.552 364.544C311.822 363.234 312.671 361.703 313.942 361.893C315.063 362.059 315.561 363.451 315.696 364.626C315.934 366.701 315.724 370.138 315.201 372.468C316.157 370.269 319.3 364.072 321.446 365.548C324.257 367.482 318.762 373.157 317.394 374.01C319.107 372.818 325.815 368.782 326.812 371.448C328.249 375.291 320.773 376.289 318.462 376.498C320.095 376.8 328.57 376.769 327.443 381.394C326.793 384.063 320.05 381.404 318.185 380.682C319.671 381.882 326.306 386.273 323.54 388.878C321.199 391.082 316.459 383.859 315.316 382.179C316.058 383.606 319.471 391.523 316.414 392.263C312.93 393.106 312.853 384.571 312.638 382.649C312.767 384.583 311.245 392.909 308.483 392.155C305.735 391.405 308.944 384.564 310.006 382.506C309.174 384.446 302.845 390.797 300.624 387.431C298.789 384.652 306.496 381.099 308.554 380.557C305.954 381.87 297.314 383.035 297.959 380.095C298.594 377.203 304.131 377.035 306.901 377.689C305.206 377.321 297.659 374.269 298.456 371.346C299.453 367.682 306.001 371.659 308.334 374.586C306.329 372.17 301.951 365.699 304.998 364.23C308.031 362.774 312.094 372.002 312.094 372.002Z" fill="#FFEFD1"/>
<path d="M313.837 374.521C314.949 374.923 315.708 375.847 315.914 377.422C316.135 379.118 315.2 380.277 313.65 380.709C312.06 381.154 310.621 380.537 309.924 379.012C309.182 377.389 309.707 375.584 311.133 374.79C312.034 374.288 312.999 374.218 313.837 374.521Z" fill="#FF889C"/>
<path d="M99 16.992H91.736C90.3067 18.656 88.3333 19.936 85.816 20.832C83.32 21.728 80.408 22.24 77.08 22.368V17.504C79.256 17.3547 81.1867 16.992 82.872 16.416C84.5573 15.84 85.8693 15.072 86.808 14.112C87.768 13.1307 88.248 12.0213 88.248 10.784V10.176H77.624V5.408H94.264V9.696C94.264 10.5493 94.1787 11.424 94.008 12.32H99V4.576H105.08V27.072H99V16.992ZM78.52 23.744H84.696V29.728H105.688V34.432H78.52V23.744ZM132 16.128H127.712V11.296H132V4.576H138.08V27.072H132V16.128ZM111.52 23.744H117.696V29.728H138.688V34.432H111.52V23.744ZM109.728 17.856C111.669 17.408 113.205 16.5653 114.336 15.328C115.467 14.0693 116.032 12.512 116.032 10.656V10.272H110.112V5.408H127.808V10.272H121.76V10.656C121.76 11.5307 121.664 12.3733 121.472 13.184C122.901 13.376 124.171 13.8667 125.28 14.656C126.389 15.424 127.243 16.4587 127.84 17.76C128.437 19.0613 128.725 20.5653 128.704 22.272H123.072C123.051 21.0347 122.709 19.9573 122.048 19.04C121.408 18.1227 120.587 17.5893 119.584 17.44C118.475 18.9547 117.056 20.1813 115.328 21.12C113.6 22.0373 111.733 22.5707 109.728 22.72V17.856ZM164.2 4.576H170.28V12.544H173.16V17.792H170.28V27.072H164.2V4.576ZM144.52 24.544H150.696V29.824H171.048V34.432H144.52V24.544ZM160.136 16.64C160.136 18.7733 159.368 20.4373 157.832 21.632C156.317 22.8267 154.291 23.424 151.752 23.424C149.192 23.424 147.144 22.8267 145.608 21.632C144.093 20.4373 143.336 18.7733 143.336 16.64V13.696C143.336 12.928 143.507 12.1813 143.848 11.456H141.928V7.232H148.68V4.544H154.856V7.232H161.608V11.456H159.624C159.965 12.1813 160.136 12.928 160.136 13.696V16.64ZM151.752 18.784C152.605 18.784 153.288 18.56 153.8 18.112C154.312 17.6427 154.568 16.992 154.568 16.16V13.824C154.568 12.992 154.312 12.3627 153.8 11.936C153.309 11.5093 152.627 11.296 151.752 11.296C150.856 11.296 150.152 11.5093 149.64 11.936C149.149 12.3627 148.904 12.992 148.904 13.824V16.16C148.904 17.9093 149.853 18.784 151.752 18.784Z" fill="#C3F5FF"/>
<path d="M207.969 26.592H203.329C203.073 28.896 202.166 30.6773 200.609 31.936C199.051 33.1947 197.057 33.824 194.625 33.824C192.875 33.824 191.339 33.4933 190.017 32.832C188.694 32.1707 187.659 31.2107 186.913 29.952C186.187 28.672 185.825 27.1467 185.825 25.376V13.312C185.825 11.5627 186.187 10.0587 186.913 8.8C187.659 7.52 188.694 6.54933 190.017 5.888C191.339 5.22666 192.865 4.896 194.593 4.896C196.875 4.896 198.785 5.46133 200.321 6.592C201.857 7.72267 202.827 9.312 203.233 11.36H207.969V4.576H214.049V34.432H207.969V26.592ZM191.649 25.984C191.649 26.9227 191.915 27.648 192.449 28.16C193.003 28.672 193.718 28.928 194.593 28.928C195.467 28.928 196.182 28.672 196.737 28.16C197.291 27.648 197.569 26.9227 197.569 25.984V12.736C197.569 11.7973 197.291 11.072 196.737 10.56C196.203 10.0267 195.51 9.76 194.657 9.76C193.782 9.76 193.057 10.0267 192.481 10.56C191.926 11.072 191.649 11.7973 191.649 12.736V25.984ZM207.969 21.6V16.352H203.393V21.6H207.969ZM240.009 4.576H246.089V15.744H249.129V20.992H246.089V34.432H240.009V4.576ZM218.985 27.808C221.161 27.4667 223.113 26.688 224.841 25.472C226.59 24.256 227.966 22.624 228.969 20.576C229.993 18.528 230.505 16.1387 230.505 13.408V10.72H219.145V5.536H236.489V13.152C236.489 17.0987 235.721 20.5653 234.185 23.552C232.649 26.5173 230.558 28.8427 227.913 30.528C225.267 32.192 222.291 33.152 218.985 33.408V27.808ZM251.729 36.32C252.646 36.1493 253.307 35.8187 253.713 35.328C254.139 34.8587 254.353 34.3467 254.353 33.792H251.569V27.648H257.777V32.512C257.777 34.2827 257.243 35.6907 256.177 36.736C255.11 37.7813 253.627 38.3573 251.729 38.464V36.32ZM282.533 83.928H238.373V77.256H255.797V74.136H240.149V58.152H280.325V64.344H249.077V67.944H280.469V74.136H265.109V77.256H282.533V83.928ZM272.645 86.472C275.589 86.472 277.813 87.208 279.317 88.68C280.821 90.152 281.573 92.136 281.573 94.632C281.573 97.128 280.821 99.112 279.317 100.584C277.813 102.056 275.589 102.792 272.645 102.792H248.261C245.317 102.792 243.093 102.056 241.589 100.584C240.085 99.112 239.333 97.128 239.333 94.632C239.333 92.136 240.085 90.152 241.589 88.68C243.093 87.208 245.317 86.472 248.261 86.472H272.645ZM269.333 96.84C270.325 96.84 271.061 96.68 271.541 96.36C272.053 96.008 272.309 95.432 272.309 94.632C272.309 93.832 272.053 93.272 271.541 92.952C271.061 92.6 270.325 92.424 269.333 92.424H251.573C250.581 92.424 249.829 92.6 249.317 92.952C248.837 93.272 248.597 93.832 248.597 94.632C248.597 95.432 248.837 96.008 249.317 96.36C249.829 96.68 250.581 96.84 251.573 96.84H269.333ZM323.373 74.088H320.733V83.688H312.813V57.864H320.733V67.08H323.373V57.864H331.293V83.688H323.373V74.088ZM289.677 93.96C289.677 91.304 290.509 89.176 292.173 87.576C293.869 85.976 296.317 85.176 299.517 85.176H321.741C324.941 85.176 327.373 85.976 329.037 87.576C330.733 89.144 331.581 91.272 331.581 93.96C331.581 96.68 330.733 98.824 329.037 100.392C327.373 101.992 324.941 102.792 321.741 102.792H299.517C296.317 102.792 293.869 101.992 292.173 100.392C290.509 98.792 289.677 96.648 289.677 93.96ZM298.941 93.96C298.941 94.824 299.197 95.496 299.709 95.976C300.221 96.456 300.957 96.696 301.917 96.696H319.341C320.301 96.696 321.037 96.456 321.549 95.976C322.061 95.496 322.317 94.824 322.317 93.96C322.317 93.128 322.061 92.472 321.549 91.992C321.037 91.48 320.301 91.224 319.341 91.224H301.917C300.989 91.224 300.253 91.48 299.709 91.992C299.197 92.472 298.941 93.128 298.941 93.96ZM309.453 73.992C309.453 76.936 308.525 79.256 306.669 80.952C304.845 82.648 302.237 83.496 298.845 83.496C295.453 83.496 292.829 82.648 290.973 80.952C289.149 79.256 288.237 76.936 288.237 73.992V71.016C288.237 69.8 288.493 68.648 289.005 67.56H286.605V61.32H294.525V57.816H303.117V61.32H311.133V67.56H308.685C309.197 68.648 309.453 69.8 309.453 71.016V73.992ZM298.845 77.064C299.773 77.064 300.493 76.808 301.005 76.296C301.549 75.752 301.821 75.048 301.821 74.184V70.104C301.821 69.24 301.549 68.552 301.005 68.04C300.493 67.528 299.773 67.272 298.845 67.272C297.917 67.272 297.181 67.528 296.637 68.04C296.125 68.552 295.869 69.24 295.869 70.104V74.184C295.869 76.104 296.861 77.064 298.845 77.064ZM356.917 85.8C355.797 85.8 354.709 85.656 353.653 85.368C352.629 85.048 351.477 84.536 350.197 83.832L349.237 83.256C348.277 82.648 347.461 82.184 346.789 81.864C346.117 81.544 345.477 81.384 344.869 81.384C343.013 81.384 341.973 82.536 341.749 84.84H335.173C335.173 82.376 335.621 80.344 336.517 78.744C337.413 77.144 338.581 75.976 340.021 75.24C341.461 74.504 343.029 74.136 344.725 74.136C345.877 74.136 346.965 74.28 347.989 74.568C349.045 74.856 350.197 75.368 351.445 76.104L352.501 76.728C353.365 77.304 354.149 77.752 354.853 78.072C355.557 78.392 356.213 78.568 356.821 78.6C358.645 78.6 359.669 77.272 359.893 74.616H366.469C366.469 77.24 366.021 79.384 365.125 81.048C364.229 82.712 363.061 83.928 361.621 84.696C360.181 85.432 358.613 85.8 356.917 85.8Z" fill="white"/>
<path d="M112.92 74.088H110.28V83.688H102.36V57.864H110.28V67.08H112.92V57.864H120.84V83.688H112.92V74.088ZM79.224 93.96C79.224 91.304 80.056 89.176 81.72 87.576C83.416 85.976 85.864 85.176 89.064 85.176H111.288C114.488 85.176 116.92 85.976 118.584 87.576C120.28 89.144 121.128 91.272 121.128 93.96C121.128 96.68 120.28 98.824 118.584 100.392C116.92 101.992 114.488 102.792 111.288 102.792H89.064C85.864 102.792 83.416 101.992 81.72 100.392C80.056 98.792 79.224 96.648 79.224 93.96ZM88.488 93.96C88.488 94.824 88.744 95.496 89.256 95.976C89.768 96.456 90.504 96.696 91.464 96.696H108.888C109.848 96.696 110.584 96.456 111.096 95.976C111.608 95.496 111.864 94.824 111.864 93.96C111.864 93.128 111.608 92.472 111.096 91.992C110.584 91.48 109.848 91.224 108.888 91.224H91.464C90.536 91.224 89.8 91.48 89.256 91.992C88.744 92.472 88.488 93.128 88.488 93.96ZM99 73.992C99 76.936 98.072 79.256 96.216 80.952C94.392 82.648 91.784 83.496 88.392 83.496C85 83.496 82.376 82.648 80.52 80.952C78.696 79.256 77.784 76.936 77.784 73.992V71.016C77.784 69.8 78.04 68.648 78.552 67.56H76.152V61.32H84.072V57.816H92.664V61.32H100.68V67.56H98.232C98.744 68.648 99 69.8 99 71.016V73.992ZM88.392 77.064C89.32 77.064 90.04 76.808 90.552 76.296C91.096 75.752 91.368 75.048 91.368 74.184V70.104C91.368 69.24 91.096 68.552 90.552 68.04C90.04 67.528 89.32 67.272 88.392 67.272C87.464 67.272 86.728 67.528 86.184 68.04C85.672 68.552 85.416 69.24 85.416 70.104V74.184C85.416 76.104 86.408 77.064 88.392 77.064ZM170.08 85.848H125.92V78.936H143.344V75.96H127.6V57.912H136.96V61.272H158.992V57.912H168.304V75.96H152.656V78.936H170.08V85.848ZM127.792 88.872H168.448V102.648H159.328V95.304H127.792V88.872ZM158.992 70.008V66.936H136.96V70.008H158.992ZM207.8 57.864H216.92V69.816H221.24V77.688H216.92V91.608H207.8V57.864ZM178.28 87.816H187.544V95.736H218.072V102.648H178.28V87.816ZM201.704 75.96C201.704 79.16 200.552 81.656 198.248 83.448C195.976 85.24 192.936 86.136 189.128 86.136C185.288 86.136 182.216 85.24 179.912 83.448C177.64 81.656 176.504 79.16 176.504 75.96V71.544C176.504 70.392 176.76 69.272 177.272 68.184H174.392V61.848H184.52V57.816H193.784V61.848H203.912V68.184H200.936C201.448 69.272 201.704 70.392 201.704 71.544V75.96ZM189.128 79.176C190.408 79.176 191.432 78.84 192.2 78.168C192.968 77.464 193.352 76.488 193.352 75.24V71.736C193.352 70.488 192.968 69.544 192.2 68.904C191.464 68.264 190.44 67.944 189.128 67.944C187.784 67.944 186.728 68.264 185.96 68.904C185.224 69.544 184.856 70.488 184.856 71.736V75.24C184.856 77.864 186.28 79.176 189.128 79.176Z" fill="#FFEFD1"/>
<path d="M108.731 173.941C107.476 174.36 106.192 174.093 104.973 172.886C103.662 171.589 103.736 169.954 104.834 168.517C105.958 167.043 107.648 166.581 109.272 167.407C110.999 168.286 111.717 170.19 110.967 171.85C110.492 172.9 109.677 173.624 108.731 173.941Z" fill="#FFEFD1"/>
<path d="M369.98 28.2152C367.804 26.8742 366.028 24.8912 364.931 22.5796C364.35 21.3537 364.116 19.5786 365.295 18.9112C366.336 18.3222 367.611 19.1175 368.448 19.973C369.927 21.4852 371.87 24.3787 372.867 26.5858C372.311 24.2054 371.122 17.2054 373.827 17.0062C377.371 16.7453 376.271 24.8438 375.652 26.41C376.35 24.3496 379.474 16.7835 381.952 18.2804C385.522 20.4377 379.884 26.059 378.078 27.7179C379.629 26.9073 386.701 21.4159 388.61 25.8562C389.71 28.4165 382.431 30.6323 380.426 31.2554C382.408 31.26 390.665 30.5054 389.957 34.3802C389.357 37.6593 380.94 34.9192 378.948 34.3078C380.447 34.9743 388.183 39.1252 386.081 41.691C383.686 44.6156 378.362 37.8142 376.998 36.4111C378.298 37.8789 382.156 45.5418 379.38 46.7188C376.619 47.8896 375.087 40.3296 374.709 37.9931C375.208 40.0866 373.826 49.2648 369.895 47.9961C366.647 46.9481 370.905 39.1267 372.292 37.3643C370.927 40.0948 364.416 46.6011 363.144 43.8253C361.893 41.0949 366.421 37.3888 369.144 36.1283C367.498 36.9251 359.305 39.3432 358.169 36.4854C356.745 32.9011 364.675 31.8699 368.432 32.7141C365.266 32.0691 357.614 29.6989 359.258 26.5547C360.893 23.4305 369.98 28.2152 369.98 28.2152Z" fill="#FFEFD1"/>
<path d="M372.992 29.1134C374.17 28.72 375.374 28.9707 376.517 30.1028C377.747 31.3211 377.678 32.8536 376.648 34.2013C375.593 35.583 374.008 36.0171 372.485 35.2427C370.865 34.4188 370.191 32.6325 370.894 31.075C371.34 30.0896 372.105 29.4099 372.992 29.1134Z" fill="#DB543A"/>
</svg>
