<svg width="137" height="32" viewBox="0 0 137 32" fill="none" xmlns="http://www.w3.org/2000/svg">
<g clip-path="url(#clip0_7767_17079)">
<mask id="mask0_7767_17079" style="mask-type:luminance" maskUnits="userSpaceOnUse" x="0" y="0" width="137" height="32">
<path d="M136.667 0H0.666748V32H136.667V0Z" fill="white"/>
</mask>
<g mask="url(#mask0_7767_17079)">
<path d="M105.475 13.5387H111.897V10.5165V8.32914V5.5835V3.36035H108.81V5.5835H98.4947V3.36035H95.4064V13.5438H101.828V15.1932H92.8427V18.2155H114.457V15.1932H105.47V13.5438L105.475 13.5387ZM98.4947 10.5165V8.32914H108.81V10.5165H98.4947Z" fill="white"/>
<path d="M123.075 22.2825H126.729V16.5607H133.579V18.2101H129.575V21.2324H133.579V23.3787H136.667V3.35498H133.579V13.5384H116.806V16.5607H123.075V22.2825Z" fill="white"/>
<path d="M95.4014 22.8816H108.805V30.7036H111.897V22.8816V19.8594H95.4014V22.8816Z" fill="white"/>
<path d="M121.014 27.6818V22.7847H117.926V28.5373V30.704H136.667V27.6818H121.014Z" fill="white"/>
<path d="M128.136 11.889H131.224V6.37723V3.35498H128.136H118.015V6.37723H128.136V11.889Z" fill="white"/>
<path d="M59.1656 12.9852H65.027V9.96291H52.7442V6.09036H65.027V3.3396H49.6565V3.35497V12.9852H55.5179V15.1878H46.9247V18.2101H67.764V15.1878H59.1656V12.9852Z" fill="white"/>
<path d="M87.7608 9.24577H84.987V3.35498H81.8993V9.24577V12.2681V18.1589H84.987V12.2681H87.7608V18.1589H90.8483V3.35498H87.7608V9.24577Z" fill="white"/>
<path d="M79.0056 3.3396H70.0094V6.08524H79.0056V3.3396Z" fill="white"/>
<path d="M57.3444 19.8594C54.1311 19.8594 51.5249 22.4104 51.5249 25.5555C51.5249 28.7007 54.1311 31.2517 57.3444 31.2517C60.5577 31.2517 63.164 28.7007 63.164 25.5555C63.164 22.4104 60.5577 19.8594 57.3444 19.8594ZM57.3444 28.1834C55.8634 28.1834 54.6597 27.0052 54.6597 25.5555C54.6597 24.1059 55.8634 22.9278 57.3444 22.9278C58.8255 22.9278 60.0292 24.1059 60.0292 25.5555C60.0292 27.0052 58.8255 28.1834 57.3444 28.1834Z" fill="white"/>
<path d="M83.2392 19.8594C80.0259 19.8594 77.4197 22.4104 77.4197 25.5555C77.4197 28.7007 80.0259 31.2517 83.2392 31.2517C86.4524 31.2517 89.0584 28.7007 89.0584 25.5555C89.0584 22.4104 86.4524 19.8594 83.2392 19.8594ZM83.2392 28.1834C81.7582 28.1834 80.5545 27.0052 80.5545 25.5555C80.5545 24.1059 81.7582 22.9278 83.2392 22.9278C84.7203 22.9278 85.9236 24.1059 85.9236 25.5555C85.9236 27.0052 84.7203 28.1834 83.2392 28.1834Z" fill="white"/>
<path d="M79.7434 13.9075C79.7434 12.6218 79.2567 11.4436 78.456 10.5471H80.5546V7.80151H68.4655V10.5471H70.5641C69.7634 11.4487 69.2766 12.6218 69.2766 13.9075C69.2766 16.7402 71.6212 19.0351 74.5153 19.0351C77.4094 19.0351 79.7539 16.7402 79.7539 13.9075H79.7434ZM74.5048 15.9616C73.3482 15.9616 72.4062 15.0395 72.4062 13.9075C72.4062 12.7754 73.3482 11.8533 74.5048 11.8533C75.6614 11.8533 76.6034 12.7754 76.6034 13.9075C76.6034 15.0395 75.6614 15.9616 74.5048 15.9616Z" fill="white"/>
<path d="M33.7314 11.5257C33.7785 9.43576 32.915 7.45336 31.2246 5.80393C31.1461 5.72709 31.0676 5.65538 30.9839 5.57854C27.8124 2.67411 23.9345 2.32066 20.47 4.46697C20.784 5.29681 21.0404 6.1625 21.2446 7.05381C23.8821 5.07654 26.7343 5.19436 29.1941 7.44824C29.2516 7.50458 29.3144 7.56094 29.372 7.61728C30.56 8.78009 31.1461 10.0761 31.1147 11.4694C31.0728 13.2315 30.0471 15.0961 28.2206 16.7302C27.9485 16.9709 27.7967 17.3141 27.7967 17.6778C27.7967 18.0415 27.9485 18.3796 28.2206 18.6255C30.0471 20.2595 31.0728 22.1241 31.1147 23.8862C31.1461 25.2795 30.56 26.5755 29.372 27.7383C29.3144 27.7947 29.2568 27.851 29.1941 27.9022C25.7871 31.0269 22.2441 28.6655 20.4334 26.9853C20.2449 26.806 20.0618 26.6165 19.889 26.4219C19.7583 26.2426 19.5803 26.0889 19.3605 25.9915C18.8215 25.7508 18.1882 25.8942 17.8114 26.3398C17.623 26.5653 17.4189 26.7804 17.1991 26.9802C15.3936 28.6655 11.8506 31.0218 8.43843 27.8971C8.38086 27.8459 8.32329 27.7895 8.26573 27.7332C7.09345 26.5857 6.49161 25.1566 6.52825 23.6096C6.55441 22.4212 6.95214 21.2123 7.64818 20.0854C6.75328 19.8958 5.88977 19.6602 5.06289 19.3631C4.35116 20.7051 3.94818 22.1344 3.91678 23.5532C3.86445 25.8174 4.73319 27.892 6.41834 29.5414C6.49684 29.6182 6.57535 29.695 6.65908 29.7668C10.1864 32.999 14.7185 32.7071 18.8215 29.0086C21.0299 31.0013 23.3588 32.0104 25.5934 32.0104C27.5089 32.0104 29.3562 31.2677 30.9891 29.7771C31.0676 29.7053 31.1514 29.6285 31.2298 29.5516C32.915 27.9022 33.7837 25.9198 33.7366 23.8299C33.6895 21.7245 32.7109 19.5782 30.9577 17.6829C32.7109 15.7876 33.6895 13.6413 33.7366 11.536L33.7314 11.5257Z" fill="white"/>
<path d="M14.9437 18.7578C10.8355 18.7578 5.59682 18.3429 2.61379 15.4538C0.43147 13.3485 0.0389658 10.316 1.66132 8.08259C2.5981 6.79173 4.40885 5.6904 6.8162 6.07459C6.39753 3.72338 7.50701 1.93564 8.81536 1.00847C11.0814 -0.599979 14.1795 -0.251651 16.3619 1.85881C20.02 5.40355 19.9206 12.2523 19.8578 16.34C19.8526 16.8215 19.8421 17.2723 19.8421 17.6718V18.6861L18.8059 18.6963C18.4186 18.6963 17.9738 18.7117 17.487 18.7219C16.723 18.7425 15.8595 18.7629 14.9489 18.7629L14.9437 18.7578ZM5.86896 8.05186C4.71238 8.05186 3.85934 8.59483 3.3674 9.27104C2.54053 10.4133 2.40969 12.3803 4.08437 14.0042C7.09881 16.9239 13.5725 16.7702 17.4347 16.6781C17.5446 16.6781 17.6545 16.673 17.7592 16.6678C17.7592 16.55 17.7592 16.4322 17.7644 16.3093C17.8221 12.5442 17.911 6.24363 14.8913 3.31358C13.2166 1.68976 11.207 1.83831 10.0505 2.66302C9.06656 3.35968 8.37575 4.78885 9.20261 6.76611C10.8459 7.09907 14.7709 8.12869 15.4879 10.3877C15.7234 11.1355 15.713 12.3137 14.2999 13.6609C13.1434 14.7622 12.0915 14.7469 11.4111 14.5472C9.15556 13.8761 7.97278 9.99837 7.57505 8.40018C6.95227 8.15943 6.38706 8.05186 5.87943 8.05186H5.86896ZM9.92485 9.05588C10.49 10.7975 11.3169 12.3803 12.013 12.5852C12.2171 12.6467 12.4944 12.5135 12.8346 12.1908C13.1277 11.9091 13.6039 11.3814 13.4836 10.9921C13.2533 10.2545 11.5786 9.52199 9.92485 9.05588Z" fill="white"/>
</g>
</g>
<defs>
<clipPath id="clip0_7767_17079">
<rect width="136" height="32" fill="white" transform="translate(0.666748)"/>
</clipPath>
</defs>
</svg>
