<svg width="34" height="36" viewBox="0 0 34 36" fill="none" xmlns="http://www.w3.org/2000/svg">
<path d="M21.5002 9C21.898 9 22.2796 9.15804 22.5609 9.43934C22.8422 9.72064 23.0002 10.1022 23.0002 10.5C23.0002 10.8978 22.8422 11.2794 22.5609 11.5607C22.2796 11.842 21.898 12 21.5002 12H9.50009C9.10226 12 8.72072 11.842 8.43942 11.5607C8.15811 11.2794 8.00007 10.8978 8.00007 10.5C8.00007 10.1022 8.15811 9.72064 8.43942 9.43934C8.72072 9.15804 9.10226 9 9.50009 9H21.5002ZM33.0608 35.5605C32.7795 35.8417 32.3981 35.9997 32.0003 35.9997C31.6026 35.9997 31.2211 35.8417 30.9398 35.5605L27.3293 31.95C26.26 32.6324 25.0187 32.9966 23.7502 33C22.4152 33 21.1101 32.6041 20.0001 31.8624C18.89 31.1207 18.0249 30.0665 17.514 28.8331C17.0031 27.5997 16.8694 26.2425 17.1299 24.9331C17.3903 23.6238 18.0332 22.421 18.9772 21.477C19.9212 20.533 21.124 19.8901 22.4334 19.6297C23.7427 19.3692 25.0999 19.5029 26.3334 20.0138C27.5668 20.5247 28.621 21.3899 29.3627 22.4999C30.1044 23.6099 30.5003 24.915 30.5003 26.25C30.4969 27.5185 30.1327 28.7598 29.4503 29.829L33.0608 33.4395C33.342 33.7208 33.5 34.1023 33.5 34.5C33.5 34.8977 33.342 35.2792 33.0608 35.5605ZM23.7502 30C24.4919 30 25.2169 29.7801 25.8336 29.368C26.4503 28.956 26.931 28.3703 27.2148 27.6851C27.4986 26.9998 27.5729 26.2458 27.4282 25.5184C27.2835 24.791 26.9264 24.1228 26.4019 23.5984C25.8774 23.0739 25.2093 22.7167 24.4818 22.5721C23.7544 22.4274 23.0004 22.5016 22.3151 22.7855C21.6299 23.0693 21.0442 23.5499 20.6322 24.1666C20.2201 24.7833 20.0002 25.5083 20.0002 26.25C20.0002 27.2446 20.3953 28.1984 21.0985 28.9016C21.8018 29.6049 22.7557 30 23.7502 30ZM17.0002 33H8.00007C6.80659 33 5.66198 32.5259 4.81806 31.682C3.97414 30.8381 3.50003 29.6935 3.50003 28.5V7.5C3.50003 6.30653 3.97414 5.16193 4.81806 4.31802C5.66198 3.47411 6.80659 3 8.00007 3H26.0002C26.3981 3 26.7796 3.15804 27.0609 3.43934C27.3422 3.72064 27.5003 4.10218 27.5003 4.5V16.5C27.5003 16.8978 27.6583 17.2794 27.9396 17.5607C28.2209 17.842 28.6024 18 29.0003 18C29.3981 18 29.7796 17.842 30.0609 17.5607C30.3423 17.2794 30.5003 16.8978 30.5003 16.5V4.5C30.5003 3.30653 30.0262 2.16193 29.1823 1.31802C28.3383 0.474106 27.1937 0 26.0002 0L8.00007 0C6.01166 0.00238179 4.10537 0.793323 2.69935 2.19933C1.29333 3.60534 0.502382 5.51161 0.5 7.5V28.5C0.502382 30.4884 1.29333 32.3947 2.69935 33.8007C4.10537 35.2067 6.01166 35.9976 8.00007 36H17.0002C17.398 36 17.7795 35.842 18.0608 35.5607C18.3421 35.2794 18.5002 34.8978 18.5002 34.5C18.5002 34.1022 18.3421 33.7206 18.0608 33.4393C17.7795 33.158 17.398 33 17.0002 33Z" fill="#8A949E"/>
</svg>
