<svg width="16" height="17" viewBox="0 0 16 17" fill="none" xmlns="http://www.w3.org/2000/svg">
<path d="M2.23327 6.97306L7.5666 2.4101C7.81611 2.19663 8.18389 2.19663 8.4334 2.4101L13.7667 6.97306C13.9148 7.09972 14 7.2848 14 7.47963V13.506C14 13.8742 13.7015 14.1726 13.3333 14.1726H10.1667C9.79848 14.1726 9.5 13.8742 9.5 13.506V10.5061C9.5 10.322 9.35076 10.1728 9.16667 10.1728H6.83333C6.64924 10.1728 6.5 10.322 6.5 10.5061V13.506C6.5 13.8742 6.20152 14.1726 5.83333 14.1726H2.66667C2.29848 14.1726 2 13.8742 2 13.506V7.47963C2 7.2848 2.08523 7.09972 2.23327 6.97306Z" fill="#33363D"/>
</svg>
