<svg width="48" height="49" viewBox="0 0 48 49" fill="none" xmlns="http://www.w3.org/2000/svg">
<path d="M12 43.0391C10.6027 43.0391 9.42 42.5551 8.452 41.5871C7.484 40.6191 7 39.4364 7 38.0391V35.8851C7 34.8911 7.354 34.0401 8.062 33.3321C8.77 32.6241 9.62117 32.2701 10.6155 32.2701H13V8.65456C13 7.66023 13.354 6.80906 14.062 6.10106C14.77 5.39306 15.6212 5.03906 16.6155 5.03906H37.3845C38.3788 5.03906 39.23 5.39306 39.938 6.10106C40.646 6.80906 41 7.66023 41 8.65456V38.0391C41 39.4364 40.516 40.6191 39.548 41.5871C38.58 42.5551 37.3973 43.0391 36 43.0391H12ZM36 40.0391C36.5667 40.0391 37.0417 39.8474 37.425 39.4641C37.8083 39.0807 38 38.6057 38 38.0391V8.65456C38 8.4749 37.9423 8.3274 37.827 8.21206C37.7117 8.09673 37.5642 8.03906 37.3845 8.03906H16.6155C16.4358 8.03906 16.2883 8.09673 16.173 8.21206C16.0577 8.3274 16 8.4749 16 8.65456V32.2701H30.3845C31.3788 32.2701 32.23 32.6241 32.938 33.3321C33.646 34.0401 34 34.8911 34 35.8851V38.0391C34 38.6057 34.1917 39.0807 34.575 39.4641C34.9583 39.8474 35.4333 40.0391 36 40.0391ZM19.8845 17.4236C19.4595 17.4236 19.1033 17.2797 18.816 16.9921C18.5283 16.7044 18.3845 16.3481 18.3845 15.9231C18.3845 15.4977 18.5283 15.1416 18.816 14.8546C19.1033 14.5672 19.4595 14.4236 19.8845 14.4236H34.1155C34.5405 14.4236 34.8967 14.5674 35.184 14.8551C35.4717 15.1427 35.6155 15.4992 35.6155 15.9246C35.6155 16.3496 35.4717 16.7057 35.184 16.9931C34.8967 17.2801 34.5405 17.4236 34.1155 17.4236H19.8845ZM19.8845 23.1931C19.4595 23.1931 19.1033 23.0492 18.816 22.7616C18.5283 22.4739 18.3845 22.1174 18.3845 21.6921C18.3845 21.2671 18.5283 20.9109 18.816 20.6236C19.1033 20.3366 19.4595 20.1931 19.8845 20.1931H34.1155C34.5405 20.1931 34.8967 20.3369 35.184 20.6246C35.4717 20.9119 35.6155 21.2682 35.6155 21.6936C35.6155 22.1189 35.4717 22.4751 35.184 22.7621C34.8967 23.0494 34.5405 23.1931 34.1155 23.1931H19.8845ZM12 40.0391H31V35.8851C31 35.7057 30.9423 35.5584 30.827 35.4431C30.7117 35.3274 30.5642 35.2696 30.3845 35.2696H10.6155C10.4358 35.2696 10.2883 35.3274 10.173 35.4431C10.0577 35.5584 10 35.7057 10 35.8851V38.0391C10 38.6057 10.1917 39.0807 10.575 39.4641C10.9583 39.8474 11.4333 40.0391 12 40.0391ZM12 40.0391H10H31H12Z" fill="#464C53"/>
</svg>
