<svg width="19" height="19" viewBox="0 0 19 19" fill="none" xmlns="http://www.w3.org/2000/svg">
<path d="M8.67416 2.33887C12.1947 2.33903 15.049 5.1933 15.0492 8.71387C15.0492 10.2578 14.4995 11.6733 13.5863 12.7764L16.0746 15.2646C16.3089 15.499 16.3089 15.879 16.0746 16.1133C15.8402 16.3476 15.4602 16.3476 15.2259 16.1133L12.7376 13.625C11.6344 14.539 10.2187 15.0888 8.67416 15.0889C5.15335 15.0889 2.29916 12.2347 2.29916 8.71387C2.29934 5.1932 5.15346 2.33887 8.67416 2.33887ZM8.67416 3.53906C5.8162 3.53906 3.49856 5.85594 3.49838 8.71387C3.49838 11.5719 5.81609 13.8896 8.67416 13.8896C10.0391 13.8896 11.2798 13.3597 12.2044 12.4961C12.232 12.4434 12.2656 12.3929 12.3099 12.3486C12.3537 12.3048 12.4033 12.2706 12.4554 12.2432C13.3187 11.3185 13.849 10.0786 13.849 8.71387C13.8488 5.85605 11.532 3.53923 8.67416 3.53906Z" fill="#33363D"/>
</svg>
