<svg width="21" height="20" viewBox="0 0 21 20" fill="none" xmlns="http://www.w3.org/2000/svg">
<g id="icon/exclamation">
<path id="Vector" d="M10.5 1.66699C15.1024 1.66699 18.833 5.39763 18.833 10C18.833 14.6024 15.1024 18.333 10.5 18.333C5.89763 18.333 2.16699 14.6024 2.16699 10C2.16699 5.39763 5.89763 1.66699 10.5 1.66699ZM10.5 3C6.63401 3 3.5 6.13401 3.5 10C3.5 13.866 6.63401 17 10.5 17C14.366 17 17.5 13.866 17.5 10C17.5 6.13401 14.366 3 10.5 3ZM10.833 12.5C11.1091 12.5 11.333 12.7239 11.333 13V13.667C11.3328 13.943 11.109 14.167 10.833 14.167H10.167C9.89096 14.167 9.66717 13.943 9.66699 13.667V13C9.66699 12.7239 9.89085 12.5 10.167 12.5H10.833ZM10.833 5.83301C11.109 5.83301 11.3328 6.05702 11.333 6.33301V11.167C11.3328 11.443 11.109 11.667 10.833 11.667H10.167C9.89096 11.667 9.66717 11.443 9.66699 11.167V6.33301C9.66717 6.05702 9.89096 5.83301 10.167 5.83301H10.833Z" fill="#58616A"/>
</g>
</svg>
