<svg width="24" height="24" viewBox="0 0 24 24" fill="none" xmlns="http://www.w3.org/2000/svg">
<g clip-path="url(#clip0_8525_2574)">
<mask id="mask0_8525_2574" style="mask-type:luminance" maskUnits="userSpaceOnUse" x="0" y="0" width="24" height="24">
<path d="M24 0H0V24H24V0Z" fill="white"/>
</mask>
<g mask="url(#mask0_8525_2574)">
<path d="M21.9 10.3C21.8 9.8 21.2 9.4 20.7 9.6C20.2 9.7 19.8 10.3 20 10.8L21.1 15.3C21.3 16 21.2 16.6 20.7 17.2C20.3 17.7 19.6 18.1 19 18.1H5.09998C4.39998 18.1 3.79998 17.8 3.39998 17.3C2.99998 16.7 2.89998 16 2.99998 15.4L5.09998 7.6C5.79998 4.3 8.69998 2 12.1 2C12.5 2 13 2 13.4 2.1C14 2.2 14.5 1.8 14.6 1.3C14.7 0.8 14.3 0.2 13.8 0.1C13.2 0 12.7 0 12.1 0C7.69998 0 3.99998 3 3.09998 7.1L0.999978 14.9C0.699978 16.1 0.999978 17.4 1.79998 18.4C2.59998 19.4 3.79998 20 5.09998 20H7.09998C7.59998 22.3 9.59998 24 12 24C14.4 24 16.4 22.3 16.9 20H18.9C20.2 20 21.4 19.4 22.2 18.4C23 17.4 23.3 16 22.9 14.8L21.9 10.3ZM12 22C10.7 22 9.59998 21.2 9.19998 20H14.8C14.4 21.2 13.3 22 12 22Z" fill="#1E2124"/>
</g>
<path d="M19.5 9C21.9853 9 24 6.98528 24 4.5C24 2.01472 21.9853 0 19.5 0C17.0147 0 15 2.01472 15 4.5C15 6.98528 17.0147 9 19.5 9Z" fill="#DE3412"/>
</g>
<defs>
<clipPath id="clip0_8525_2574">
<rect width="24" height="24" fill="white"/>
</clipPath>
</defs>
</svg>
