<svg width="89" height="25" viewBox="0 0 89 25" fill="none" xmlns="http://www.w3.org/2000/svg">
<g id="Clip path group">
<mask id="mask0_7389_16482" style="mask-type:luminance" maskUnits="userSpaceOnUse" x="0" y="0" width="89" height="25">
<g id="clip0_1602_22769">
<path id="Vector" d="M88.1364 0.5H0.863647V24.5H88.1364V0.5Z" fill="white"/>
</g>
</mask>
<g mask="url(#mask0_7389_16482)">
<g id="Group">
<g id="Mask group">
<mask id="mask1_7389_16482" style="mask-type:luminance" maskUnits="userSpaceOnUse" x="10" y="5" width="5" height="6">
<g id="Group_2">
<path id="Vector_2" d="M12.3953 6.01167L11.6666 6.30541L10.9379 6.59916L10.7644 6.67403L11.2733 10.3256H13.9104L14.35 6.67403L14.1822 6.6049L13.4536 6.31116L12.7249 6.01741C12.6786 6.00014 12.615 5.98865 12.5514 5.98865C12.4878 5.98865 12.43 6.00014 12.3837 6.01741" fill="white"/>
</g>
</mask>
<g mask="url(#mask1_7389_16482)">
<g id="Group_3">
<path id="Vector_3" d="M10.8763 5.37158L10.0253 10.1933L14.2515 10.9332L15.1026 6.11147L10.8763 5.37158Z" fill="url(#paint0_linear_7389_16482)"/>
</g>
</g>
</g>
<g id="Mask group_2">
<mask id="mask2_7389_16482" style="mask-type:luminance" maskUnits="userSpaceOnUse" x="7" y="5" width="5" height="6">
<g id="Group_4">
<path id="Vector_4" d="M8.80388 6.01135L8.07519 6.3051L7.34653 6.59884C7.25398 6.63339 7.20774 6.74284 7.25398 6.82921L8.8906 10.3195H11.2733L10.7643 6.66793L10.5966 6.59306L9.86794 6.29935L9.13929 6.00561C9.09301 5.98833 9.02939 5.97681 8.97156 5.97681C8.91374 5.97681 8.85012 5.98833 8.80388 6.00561" fill="white"/>
</g>
</mask>
<g mask="url(#mask2_7389_16482)">
<g id="Group_5">
<path id="Vector_5" d="M11.0863 5.1167L6.28339 6.1859L7.40491 11.1828L12.2078 10.1136L11.0863 5.1167Z" fill="url(#paint1_linear_7389_16482)"/>
</g>
</g>
</g>
<g id="Mask group_3">
<mask id="mask3_7389_16482" style="mask-type:luminance" maskUnits="userSpaceOnUse" x="13" y="5" width="5" height="6">
<g id="Group_6">
<path id="Vector_6" d="M15.9807 6.0122L15.252 6.30594L14.5234 6.59969L14.3557 6.67456L13.9161 10.3261H16.293L17.8718 6.84158C17.9123 6.74943 17.8718 6.63998 17.7792 6.59969L17.0506 6.30594L16.3277 6.0122C16.2814 5.99493 16.2178 5.9834 16.1542 5.9834C16.0906 5.9834 16.0328 5.99493 15.9807 6.0122Z" fill="white"/>
</g>
</mask>
<g mask="url(#mask3_7389_16482)">
<g id="Group_7">
<path id="Vector_7" d="M14.3041 4.80066L12.6251 9.90149L17.527 11.5019L19.2059 6.40102L14.3041 4.80066Z" fill="url(#paint2_linear_7389_16482)"/>
</g>
</g>
</g>
<g id="Mask group_4">
<mask id="mask4_7389_16482" style="mask-type:luminance" maskUnits="userSpaceOnUse" x="3" y="10" width="9" height="13">
<g id="Group_8">
<path id="Vector_8" d="M8.83285 10.447L4.21216 14.9913C3.31 15.8552 3.48349 17.0187 4.21216 17.7962L8.07526 22.3232C8.13888 22.398 8.2314 22.4614 8.3413 22.5132L11.2791 10.591V10.447H8.83285Z" fill="white"/>
</g>
</mask>
<g mask="url(#mask4_7389_16482)">
<g id="Group_9">
<path id="Vector_9" d="M3.65543 8.84729L0.862915 21.9992L10.9341 24.1202L13.7266 10.9683L3.65543 8.84729Z" fill="url(#paint3_linear_7389_16482)"/>
</g>
</g>
</g>
<g id="Mask group_5">
<mask id="mask5_7389_16482" style="mask-type:luminance" maskUnits="userSpaceOnUse" x="13" y="10" width="9" height="13">
<g id="Group_10">
<path id="Vector_10" d="M13.9451 10.447L16.7846 22.5132C16.8887 22.4614 16.9813 22.398 17.0449 22.3232L20.908 17.7962C21.6309 17.0244 21.8044 15.8552 20.908 14.9913L16.2873 10.447H13.9451Z" fill="white"/>
</g>
</mask>
<g mask="url(#mask5_7389_16482)">
<g id="Group_11">
<path id="Vector_11" d="M21.265 8.45532L10.8664 11.2846L14.4921 24.5022L24.8908 21.6729L21.265 8.45532Z" fill="url(#paint4_linear_7389_16482)"/>
</g>
</g>
</g>
<g id="Mask group_6">
<mask id="mask6_7389_16482" style="mask-type:luminance" maskUnits="userSpaceOnUse" x="8" y="10" width="9" height="13">
<g id="Group_12">
<path id="Vector_12" d="M11.308 10.447L8.33545 22.5132C8.4511 22.5708 8.57255 22.5996 8.68245 22.5996H16.4376C16.5417 22.5996 16.6689 22.5651 16.7845 22.5132L13.9451 10.447H11.3138H11.308Z" fill="white"/>
</g>
</mask>
<g mask="url(#mask6_7389_16482)">
<g id="Group_13">
<path id="Vector_13" d="M16.6614 9.42017L6.85809 10.6241L8.46688 23.6171L18.2702 22.4132L16.6614 9.42017Z" fill="url(#paint5_linear_7389_16482)"/>
</g>
</g>
</g>
<path id="Vector_14" d="M17.5074 9.82483H8.97735C8.66507 9.82483 8.41638 10.0782 8.41638 10.3835C8.41638 10.6888 8.67083 10.948 8.97735 10.948H17.5074" fill="white"/>
<path id="Vector_15" d="M17.5074 11.2063H8.97733C8.52627 11.2063 8.15613 10.8377 8.15613 10.3827C8.15613 9.92766 8.52627 9.56482 8.97733 9.56482H17.5074V10.0832H8.97733C8.80961 10.0832 8.67661 10.2157 8.67661 10.3827C8.67661 10.5497 8.80961 10.6879 8.97733 10.6879H17.5074V11.2063Z" fill="#005083"/>
<path id="Vector_16" d="M19.7985 19.6998H5.2876L7.581 22.4376C7.65111 22.5231 7.75632 22.5944 7.86856 22.6515C7.99478 22.7156 8.13507 22.7513 8.25428 22.7513H16.8388C16.9581 22.7513 17.0983 22.7085 17.2246 22.6515C17.3368 22.5944 17.442 22.5231 17.5121 22.4376L19.8055 19.6998H19.7985Z" fill="url(#paint6_linear_7389_16482)"/>
<path id="Vector_17" d="M17.8139 3.94913C17.7272 3.94913 17.6404 3.89153 17.6057 3.80514L17.224 2.83178C17.224 2.83178 17.1951 2.80874 17.1835 2.80874L16.0154 2.34797C15.8766 2.29038 15.865 2.18095 15.865 2.14639C15.865 2.08304 15.8997 2.0024 15.998 1.96209L16.9753 1.58196V0.700747C16.9753 0.53372 17.1777 0.435808 17.3281 0.550999L18.3055 1.2479C18.3055 1.2479 18.3575 1.2767 18.3806 1.2767L19.5662 1.19031C19.6761 1.18455 19.7454 1.22487 19.7859 1.28822C19.8206 1.35157 19.8264 1.42645 19.7975 1.4898L19.4043 2.26158L20.1445 3.14279C20.2023 3.21191 20.2197 3.29254 20.185 3.36165C20.1503 3.43077 20.0809 3.47109 19.9999 3.47109H19.9479L18.6987 3.23495C18.6814 3.23495 18.664 3.23495 18.664 3.23495L17.9701 3.88001C17.9296 3.92033 17.8717 3.94337 17.8139 3.94337" fill="#005083"/>
<g id="Mask group_7">
<mask id="mask7_7389_16482" style="mask-type:luminance" maskUnits="userSpaceOnUse" x="16" y="1" width="4" height="3">
<g id="Group_14">
<path id="Vector_18" d="M17.4322 1.8489L16.5994 2.17144L17.571 2.55157L17.8891 3.3579L18.4789 2.81651L19.5199 3.00657L18.9011 2.26935L19.2423 1.60125L18.2534 1.67036L17.4322 1.08289V1.8489Z" fill="white"/>
</g>
</mask>
<g mask="url(#mask7_7389_16482)">
<g id="Group_15">
<path id="Vector_19" d="M19.5257 1.08289H16.5994V3.3579H19.5257V1.08289Z" fill="url(#paint7_linear_7389_16482)"/>
</g>
</g>
</g>
<path id="Vector_20" d="M22.2091 7.98695C22.1165 7.98695 22.0413 7.92361 22.0125 7.82568L21.5845 6.4031C21.5845 6.4031 21.5325 6.32823 21.4862 6.30517L19.9652 5.57372C19.838 5.51037 19.8264 5.41823 19.8264 5.38364C19.8264 5.30877 19.8785 5.25117 19.9595 5.22237L21.33 4.72132C21.33 4.72132 21.3647 4.69252 21.3647 4.68099L21.4457 3.36782C21.4573 3.20079 21.6423 3.12591 21.7811 3.25263L23.0303 4.3239C23.065 4.3527 23.1401 4.3815 23.1806 4.3815L24.7768 4.32964C24.8751 4.32964 24.9445 4.36423 24.9792 4.42757C25.0139 4.48517 25.0139 4.55426 24.9792 4.61764L24.3719 5.74652C24.3719 5.74652 24.3719 5.79259 24.3893 5.81561L25.3146 7.14608C25.3782 7.23823 25.3551 7.3131 25.3377 7.34764C25.2972 7.42252 25.2105 7.45132 25.1064 7.4283L23.4524 7.01935C23.4177 7.01361 23.3599 7.01935 23.3483 7.03088L22.3421 7.92935C22.3016 7.96393 22.2496 7.98695 22.1975 7.98695" fill="#005083"/>
<g id="Mask group_8">
<mask id="mask8_7389_16482" style="mask-type:luminance" maskUnits="userSpaceOnUse" x="20" y="3" width="5" height="5">
<g id="Group_16">
<path id="Vector_21" d="M21.8561 5.03903L20.7169 5.4595L21.9833 6.07001L22.3419 7.2507L23.1804 6.50197L24.5568 6.84179L23.7877 5.73594L24.2966 4.79139L22.9722 4.83746L21.9255 3.93896L21.8561 5.03903Z" fill="white"/>
</g>
</mask>
<g mask="url(#mask8_7389_16482)">
<g id="Group_17">
<path id="Vector_22" d="M24.5568 3.93896H20.7169V7.24495H24.5568V3.93896Z" fill="url(#paint8_linear_7389_16482)"/>
</g>
</g>
</g>
<path id="Vector_23" d="M22.1397 9.43962C22.1397 9.43962 22.1108 9.36475 22.0125 9.35322L19.9248 9.12282C19.8554 9.11708 19.7802 9.05373 19.7628 8.99035L19.3176 7.18188C19.2829 7.05515 19.1441 7.03788 19.04 7.17035L17.519 9.08253C17.4554 9.16315 17.3224 9.24955 17.2241 9.26682L14.934 9.73911C14.853 9.75639 14.7952 9.79671 14.7721 9.85431C14.7547 9.90038 14.7721 9.94646 14.801 9.99253L15.9576 11.3575C15.9923 11.3978 16.0039 11.5073 15.9634 11.5937L14.9802 13.7535C14.9513 13.8111 14.9513 13.8629 14.9802 13.8975C14.9976 13.9263 15.0265 13.9436 15.067 13.9436C15.0959 13.9436 15.1306 13.9321 15.1711 13.9148L17.4323 12.7859C17.5132 12.7456 17.6578 12.7341 17.7156 12.7686L19.387 13.6786C19.4968 13.742 19.6241 13.6671 19.6414 13.5346L19.8901 11.4151C19.9074 11.3345 19.9826 11.2078 20.0636 11.1444L22.053 9.60664C22.1513 9.53177 22.1513 9.46842 22.1455 9.43384" fill="#005083"/>
<g id="Mask group_9">
<mask id="mask9_7389_16482" style="mask-type:luminance" maskUnits="userSpaceOnUse" x="15" y="8" width="7" height="6">
<g id="Group_18">
<path id="Vector_24" d="M17.6347 9.70346L15.7263 10.0951L16.692 11.2297L15.8766 13.0267L17.7561 12.0879L19.1498 12.8482L19.358 11.0915L21.0294 9.80139L19.2829 9.61131L18.9127 8.10229L17.6347 9.70346Z" fill="white"/>
</g>
</mask>
<g mask="url(#mask9_7389_16482)">
<g id="Group_19">
<path id="Vector_25" d="M21.0236 8.10229H15.7263V13.0267H21.0236V8.10229Z" fill="url(#paint9_linear_7389_16482)"/>
</g>
</g>
</g>
<path id="Vector_26" d="M33.9545 9.62354C34.1743 12.7855 31.4447 17.111 23.9498 16.4889C33.2085 20.8086 39.3964 12.2844 33.9545 9.62354Z" fill="#004EA2"/>
<path id="Vector_27" d="M34.5386 15.009C36.2331 16.7542 38.7778 17.7506 38.7778 17.7506L40.264 15.6426C40.264 15.6426 36.1868 15.009 35.0707 14.0587" fill="#004EA2"/>
<path id="Vector_28" d="M25.0429 19.3049L24.5918 20.9291H37.3782C38.6854 20.9291 39.8419 19.3049 39.8419 19.3049H25.0429Z" fill="#004EA2"/>
<path id="Vector_29" d="M53.7154 19.3049L53.2643 20.9291H66.0564C67.3637 20.9291 68.5143 19.3049 68.5143 19.3049H53.7154Z" fill="#004EA2"/>
<path id="Vector_30" d="M40.2467 19.3049L39.7953 20.9291H47.5795C48.8809 20.9291 50.0374 19.3049 50.0374 19.3049H40.2522H40.2467Z" fill="#004EA2"/>
<path id="Vector_31" d="M61.7884 15.8778L61.3374 17.502H65.3219C66.6291 17.502 67.7798 15.8778 67.7798 15.8778H61.7829H61.7884Z" fill="#004EA2"/>
<path id="Vector_32" d="M41.6347 12.2092L41.2354 13.6606H51.0957L51.7491 12.2092H41.6347Z" fill="#004EA2"/>
<path id="Vector_33" d="M62.9106 12.2092L62.5116 13.6606H67.4674L68.1213 12.2092H62.9106Z" fill="#004EA2"/>
<path id="Vector_34" d="M43.6529 13.2117L42.2764 18.4874C42.2764 18.4874 45.3529 18.0151 46.5733 13.2117" fill="#004EA2"/>
<path id="Vector_35" d="M47.0936 14.4849L45.7174 19.7606C45.7174 19.7606 48.7881 19.2883 50.0084 14.4849H47.0936Z" fill="#004EA2"/>
<path id="Vector_36" d="M50.5926 18.1242L49.2161 23.4C49.2161 23.4 52.2871 22.9277 53.5071 18.1242L55.2768 11.8982H52.3623L50.5868 18.1242H50.5926Z" fill="#004EA2"/>
<path id="Vector_37" d="M62.5691 12.2092L61.0657 17.5022H63.9801L65.484 12.2092H62.5691Z" fill="#004EA2"/>
<path id="Vector_38" d="M55.9591 15.8778L55.5081 17.502H59.4985C60.8053 17.502 61.9619 15.8778 61.9619 15.8778H55.965H55.9591Z" fill="#004EA2"/>
<path id="Vector_39" d="M57.0871 12.2092L56.6823 13.6606H61.6385L62.2919 12.2092H57.0871Z" fill="#004EA2"/>
<path id="Vector_40" d="M56.7398 12.2092L55.2305 17.5022H58.145L59.6547 12.2092H56.7398Z" fill="#004EA2"/>
<path id="Vector_41" d="M62.2512 17.9697H59.4581L58.903 19.9165H61.6902L62.2512 17.9697Z" fill="#004EA2"/>
<path id="Vector_42" d="M36.7708 7.56241L36.8517 7.13622H41.3278L41.2412 7.56241H36.7708ZM41.1833 6.45084L40.8016 6.81942C40.0961 6.74455 39.5292 6.28957 39.3326 5.97281C39.003 6.32411 38.3381 6.70426 37.5226 6.81942L37.2854 6.45084C38.5406 6.26077 38.9685 5.83455 39.1361 5.49473H37.7078L37.7943 5.08008H41.2064L41.1195 5.49473H39.6912C39.7143 5.70786 39.9516 6.23771 41.1716 6.45084M39.7836 9.38244L39.9747 8.43786H37.1178L37.2045 8.0059H40.5702L40.2985 9.38244H39.7895H39.7836Z" fill="#004EA2"/>
<path id="Vector_43" d="M44.2485 7.38839C43.8088 7.19258 43.3695 6.73759 43.2536 6.3805C42.9761 6.81821 42.3344 7.30203 41.8485 7.52087L41.5419 7.18683C42.7623 6.68574 43.0802 5.91396 43.1612 5.48778L43.2481 5.0673H43.7857L43.6992 5.48778C43.624 5.89094 43.653 6.61665 44.6302 7.0025L44.2544 7.38839H44.2485ZM44.7113 9.38119L44.9368 8.24083H42.1492L42.2361 7.81461H45.5264L45.2144 9.38119H44.7054H44.7113ZM45.0754 7.60727L45.353 6.22498H44.3988L44.4857 5.78149H45.4399L45.6133 4.92334H46.1164L45.5843 7.60727H45.0812H45.0754Z" fill="#004EA2"/>
<path id="Vector_44" d="M48.9326 7.37147C48.4874 7.1814 48.0481 6.72064 47.9322 6.36354C47.6547 6.79551 47.0129 7.28507 46.5271 7.49816L46.2205 7.16413C47.4409 6.66303 47.7588 5.89125 47.8398 5.46507L47.9209 5.0446H48.4526L48.366 5.46507C48.285 5.86824 48.3198 6.58816 49.2971 6.97983L48.9212 7.36573L48.9326 7.37147ZM49.3609 9.38733L49.5919 8.24693H46.8105L46.8971 7.82071H50.1878L49.8753 9.38733H49.3722H49.3609ZM49.725 7.62489L50.2629 4.93518H50.7719L50.2398 7.62489H49.7309H49.725Z" fill="#004EA2"/>
<path id="Vector_45" d="M50.7833 7.69448L50.8702 7.2683H52.8422L52.9346 6.79601H51.5409L51.8995 4.99902H52.4084L52.3102 5.48859H54.6174L54.7102 4.99902H55.2133L54.8605 6.79601H53.4726L53.3743 7.2683H55.3464L55.2595 7.69448H50.7833ZM53.8367 9.38779L54.016 8.5008H51.1478L51.2288 8.06884H54.5943L54.3343 9.38779H53.8312H53.8367ZM54.5309 5.90328H52.2291L52.1367 6.38131H54.4385L54.5309 5.90328Z" fill="#004EA2"/>
<path id="Vector_46" d="M57.3933 6.92224L57.214 7.83798H56.7054L56.8902 6.92798H55.7798L55.8668 6.50176H57.8964C57.9774 6.3002 58.1395 5.85096 58.2147 5.58027H56.4043L56.4912 5.1598H58.8623C58.7119 5.75304 58.5212 6.21958 58.3995 6.473C58.6888 6.46147 59.0357 6.42689 59.2209 6.39813L59.134 6.81278C58.7061 6.87038 57.8619 6.92798 57.3933 6.92798M56.0516 9.2894L56.306 8.02805H56.8209L56.6533 8.86318H59.4985L59.4116 9.2894H56.0574H56.0516ZM59.0126 8.24114L59.1167 7.72282H58.0585L58.1454 7.2966H59.2037L59.6719 4.93518H60.1809L59.5157 8.24114H59.0126Z" fill="#004EA2"/>
<path id="Vector_47" d="M74.575 16.7473C74.575 16.9719 74.5229 17.1792 74.4477 17.3693C74.3726 17.5593 74.2625 17.7437 74.1239 17.9222C73.985 18.1008 73.8174 18.2735 73.6208 18.4406C73.4243 18.6076 73.1984 18.7804 72.9557 18.9532L71.5388 19.9726V19.9841H73.7594L73.4995 21.0036H69.8212L70.0698 20.0072L72.1288 18.4291C72.3312 18.2793 72.5105 18.1353 72.655 18.0144C72.8053 17.8876 72.9267 17.7667 73.025 17.6515C73.1232 17.5363 73.1984 17.4211 73.245 17.3175C73.297 17.208 73.3201 17.0871 73.3315 16.9661C73.3315 16.8797 73.3201 16.7991 73.297 16.7242C73.2739 16.6436 73.2274 16.5745 73.1639 16.5169C73.1001 16.4593 73.0195 16.4075 72.9267 16.3787C72.8284 16.3441 72.7129 16.3211 72.5681 16.3211C72.4408 16.3211 72.3081 16.3326 72.1808 16.3614C72.0477 16.3902 71.9205 16.4247 71.7991 16.4708C71.6777 16.5169 71.5505 16.5687 71.4346 16.6263C71.3191 16.6839 71.2091 16.7473 71.1108 16.8106L71.3943 15.6875C71.4636 15.6529 71.5564 15.6184 71.6601 15.5723C71.7701 15.532 71.8856 15.4917 72.0188 15.4571C72.1519 15.4226 72.2963 15.3938 72.4526 15.3707C72.6088 15.3477 72.7705 15.3362 72.9384 15.3362C73.2219 15.3362 73.4646 15.3707 73.667 15.4399C73.8808 15.5089 74.0488 15.6069 74.1874 15.7278C74.3264 15.8488 74.4246 15.9985 74.4881 16.1656C74.5519 16.3383 74.5808 16.5284 74.5691 16.7357" fill="#EE7800"/>
<path id="Vector_48" d="M78.9295 17.1052C78.9181 17.4047 78.8832 17.7099 78.8257 18.0267C78.7677 18.3435 78.6867 18.6545 78.5826 18.9598C78.4784 19.2592 78.3512 19.5415 78.2008 19.8064C78.0505 20.0714 77.877 20.296 77.6746 20.486C77.4664 20.6876 77.2353 20.8431 76.9981 20.9468C76.7553 21.0505 76.4777 21.1023 76.1595 21.1023C75.9281 21.1023 75.7084 21.0678 75.5119 20.9871C75.3153 20.9065 75.1415 20.7913 75.0029 20.63C74.8584 20.4745 74.7484 20.273 74.6733 20.0368C74.5981 19.7949 74.5632 19.5184 74.575 19.2017C74.5864 18.931 74.6212 18.643 74.6733 18.3435C74.7312 18.044 74.8122 17.756 74.916 17.4738C75.0147 17.1858 75.1474 16.9209 75.2922 16.6617C75.4367 16.4083 75.6102 16.1837 75.8008 15.9936C76.015 15.7747 76.2577 15.6135 76.5064 15.504C76.7608 15.3946 77.0502 15.3428 77.3739 15.3428C77.6515 15.3428 77.8829 15.3888 78.0853 15.481C78.2819 15.5732 78.4498 15.6999 78.5767 15.8611C78.7039 16.0224 78.7967 16.2067 78.8543 16.4198C78.9181 16.6329 78.9412 16.8633 78.9295 17.111M77.7208 17.0649C77.7267 16.7999 77.6919 16.6041 77.6053 16.4716C77.5243 16.3507 77.4029 16.2816 77.2526 16.2816C77.0674 16.2816 76.8881 16.368 76.7205 16.5408C76.6336 16.6271 76.5471 16.7423 76.4719 16.8748C76.3908 17.013 76.3215 17.1686 76.2522 17.324C76.1826 17.4911 76.1191 17.6639 76.0553 17.8482C76.0033 18.0267 75.9512 18.2053 75.9108 18.3838C75.8705 18.5624 75.8357 18.7294 75.8126 18.8964C75.7836 19.0577 75.7722 19.2017 75.7664 19.3341C75.7546 19.6048 75.7953 19.8122 75.8936 19.9562C75.986 20.0944 76.1133 20.1635 76.2695 20.1635C76.3619 20.1635 76.4488 20.1405 76.5353 20.1059C76.6222 20.0656 76.7033 20.008 76.7726 19.9274C76.8477 19.8467 76.9229 19.7431 76.9981 19.6163C77.0733 19.4896 77.1426 19.3399 77.2064 19.1844C77.2757 19.0231 77.3391 18.8503 77.397 18.6718C77.455 18.4932 77.5012 18.3032 77.5474 18.1189C77.5936 17.9346 77.6284 17.756 77.6574 17.5717C77.6864 17.3932 77.6977 17.2262 77.7036 17.0706" fill="#EE7800"/>
<path id="Vector_49" d="M83.5329 17.1052C83.5215 17.4047 83.4867 17.7099 83.4288 18.0267C83.3712 18.3435 83.2902 18.6545 83.186 18.9598C83.0819 19.2592 82.9546 19.5415 82.8043 19.8064C82.6539 20.0714 82.4746 20.296 82.2781 20.486C82.0698 20.6876 81.8384 20.8431 81.6015 20.9468C81.3584 21.0505 81.0808 21.1023 80.7629 21.1023C80.5257 21.1023 80.3119 21.0678 80.1153 20.9871C79.9184 20.9065 79.745 20.7913 79.6064 20.63C79.4615 20.4745 79.3519 20.273 79.2767 20.0368C79.2015 19.7949 79.1667 19.5184 79.1784 19.2017C79.1898 18.931 79.2188 18.643 79.2767 18.3435C79.3343 18.044 79.4153 17.756 79.5195 17.4738C79.6177 17.1858 79.745 16.9209 79.8953 16.6617C80.0457 16.4083 80.2136 16.1837 80.4043 15.9936C80.6239 15.7747 80.8612 15.6135 81.1157 15.504C81.3702 15.3946 81.6591 15.3428 81.9833 15.3428C82.255 15.3428 82.4919 15.3888 82.6943 15.481C82.8967 15.5732 83.0588 15.6999 83.186 15.8611C83.3133 16.0224 83.4057 16.2067 83.4636 16.4198C83.527 16.6329 83.5505 16.8633 83.5388 17.111M82.3302 17.0649C82.3415 16.7999 82.3012 16.6041 82.2201 16.4716C82.1391 16.3507 82.0236 16.2816 81.8674 16.2816C81.6826 16.2816 81.5033 16.368 81.3353 16.5408C81.2488 16.6271 81.1677 16.7423 81.0808 16.8748C81.0057 17.013 80.9305 17.1686 80.8612 17.324C80.7919 17.4911 80.7281 17.6639 80.6705 17.8482C80.6126 18.0267 80.5605 18.2053 80.5202 18.3838C80.4795 18.5624 80.445 18.7294 80.4215 18.8964C80.3984 19.0577 80.3812 19.2017 80.3812 19.3341C80.3695 19.6048 80.4102 19.8122 80.5084 19.9562C80.6067 20.0944 80.7281 20.1635 80.8843 20.1635C80.9767 20.1635 81.0577 20.1405 81.1505 20.1059C81.2371 20.0656 81.3122 20.008 81.3874 19.9274C81.4626 19.8467 81.5377 19.7431 81.6129 19.6163C81.6822 19.4896 81.7578 19.3399 81.8271 19.1844C81.8905 19.0231 81.9602 18.8503 82.0177 18.6718C82.0757 18.4932 82.1277 18.3032 82.1739 18.1189C82.2202 17.9346 82.255 17.756 82.2781 17.5717C82.3071 17.3932 82.3243 17.2262 82.3302 17.0706" fill="#EE7800"/>
<path id="Vector_50" d="M88.1364 17.1052C88.1246 17.4047 88.0902 17.7099 88.0322 18.0267C87.9743 18.3435 87.8878 18.6545 87.7895 18.9598C87.6795 19.2592 87.5581 19.5415 87.4078 19.8064C87.2574 20.0714 87.0781 20.296 86.8816 20.486C86.6733 20.6876 86.4478 20.8431 86.205 20.9468C85.9619 21.0505 85.6843 21.1023 85.3719 21.1023C85.1409 21.1023 84.9209 21.0678 84.7243 20.9871C84.5278 20.9065 84.3543 20.7913 84.2153 20.63C84.0709 20.4745 83.9608 20.273 83.8857 20.0368C83.8105 19.7949 83.776 19.5184 83.7874 19.2017C83.7991 18.931 83.8336 18.643 83.8915 18.3435C83.9495 18.044 84.0305 17.756 84.1288 17.4738C84.2329 17.1858 84.3602 16.9209 84.5046 16.6617C84.655 16.4083 84.8226 16.1837 85.0136 15.9936C85.2333 15.7747 85.4705 15.6135 85.725 15.504C85.9791 15.3946 86.2743 15.3428 86.5981 15.3428C86.8698 15.3428 87.1071 15.3888 87.3095 15.481C87.5119 15.5732 87.6681 15.6999 87.7954 15.8611C87.9226 16.0224 88.015 16.2067 88.0729 16.4198C88.1364 16.6329 88.1595 16.8633 88.1536 17.111M86.945 17.0649C86.9509 16.7999 86.916 16.6041 86.8353 16.4716C86.7484 16.3507 86.6329 16.2816 86.4826 16.2816C86.2974 16.2816 86.1181 16.368 85.9505 16.5408C85.8636 16.6271 85.7767 16.7423 85.7015 16.8748C85.6264 17.013 85.5457 17.1686 85.4819 17.324C85.4126 17.4911 85.3488 17.6639 85.2912 17.8482C85.2391 18.0267 85.1871 18.2053 85.1464 18.3838C85.106 18.5624 85.0712 18.7294 85.0481 18.8964C85.0191 19.0577 85.0078 19.2017 85.0019 19.3341C84.9905 19.6048 85.0309 19.8122 85.1291 19.9562C85.2215 20.0944 85.3488 20.1635 85.505 20.1635C85.5919 20.1635 85.6784 20.1405 85.7653 20.1059C85.8519 20.0656 85.9329 20.008 86.0081 19.9274C86.0891 19.8467 86.1584 19.7431 86.2336 19.6163C86.3088 19.4896 86.3784 19.3399 86.4419 19.1844C86.5112 19.0231 86.5691 18.8503 86.6329 18.6718C86.6905 18.4932 86.7426 18.3032 86.7888 18.1189C86.8353 17.9346 86.8698 17.756 86.8988 17.5717C86.9278 17.3932 86.945 17.2262 86.9509 17.0706" fill="#EE7800"/>
</g>
</g>
</g>
<defs>
<linearGradient id="paint0_linear_7389_16482" x1="11.5981" y1="7.49224" x2="15.0142" y2="8.09522" gradientUnits="userSpaceOnUse">
<stop stop-color="#FCCE00"/>
<stop offset="0.23" stop-color="#F6A900"/>
<stop offset="0.43" stop-color="#F18E00"/>
<stop offset="0.61" stop-color="#EE7D00"/>
<stop offset="0.75" stop-color="#EE7800"/>
<stop offset="1" stop-color="#A84200"/>
</linearGradient>
<linearGradient id="paint1_linear_7389_16482" x1="6.95652" y1="8.76263" x2="10.6687" y2="7.92945" gradientUnits="userSpaceOnUse">
<stop stop-color="#AACE37"/>
<stop offset="0.8" stop-color="#00A33A"/>
<stop offset="1" stop-color="#306C30"/>
</linearGradient>
<linearGradient id="paint2_linear_7389_16482" x1="14.1766" y1="7.74397" x2="16.8402" y2="8.62076" gradientUnits="userSpaceOnUse">
<stop stop-color="#00A0E9"/>
<stop offset="0.03" stop-color="#0098E2"/>
<stop offset="0.19" stop-color="#0076C4"/>
<stop offset="0.31" stop-color="#0062B2"/>
<stop offset="0.4" stop-color="#005BAC"/>
<stop offset="1" stop-color="#005BAC"/>
</linearGradient>
<linearGradient id="paint3_linear_7389_16482" x1="4.35431" y1="15.7504" x2="9.9663" y2="16.942" gradientUnits="userSpaceOnUse">
<stop stop-color="#AACE37"/>
<stop offset="0.8" stop-color="#00A33A"/>
<stop offset="1" stop-color="#306C30"/>
</linearGradient>
<linearGradient id="paint4_linear_7389_16482" x1="14.9597" y1="17.9586" x2="19.8577" y2="16.615" gradientUnits="userSpaceOnUse">
<stop stop-color="#00A0E9"/>
<stop offset="0.08" stop-color="#008CD7"/>
<stop offset="0.2" stop-color="#0071BF"/>
<stop offset="0.31" stop-color="#0060B1"/>
<stop offset="0.4" stop-color="#005BAC"/>
<stop offset="1" stop-color="#005BAC"/>
</linearGradient>
<linearGradient id="paint5_linear_7389_16482" x1="8.79071" y1="17.3265" x2="14.8928" y2="16.5709" gradientUnits="userSpaceOnUse">
<stop stop-color="#FCCE00"/>
<stop offset="0.23" stop-color="#F6A900"/>
<stop offset="0.43" stop-color="#F18E00"/>
<stop offset="0.61" stop-color="#EE7D00"/>
<stop offset="0.75" stop-color="#EE7800"/>
<stop offset="1" stop-color="#A84200"/>
</linearGradient>
<linearGradient id="paint6_linear_7389_16482" x1="12.5396" y1="22.6657" x2="12.5396" y2="19.7212" gradientUnits="userSpaceOnUse">
<stop stop-color="white" stop-opacity="0.67"/>
<stop offset="1" stop-color="white" stop-opacity="0"/>
</linearGradient>
<linearGradient id="paint7_linear_7389_16482" x1="16.1547" y1="2.56482" x2="19.0517" y2="2.56482" gradientUnits="userSpaceOnUse">
<stop stop-color="#F7C9DD"/>
<stop offset="1" stop-color="#EB6EA5"/>
</linearGradient>
<linearGradient id="paint8_linear_7389_16482" x1="20.1588" y1="5.97266" x2="24.0167" y2="5.97266" gradientUnits="userSpaceOnUse">
<stop stop-color="#AACE36"/>
<stop offset="1" stop-color="#009E38"/>
</linearGradient>
<linearGradient id="paint9_linear_7389_16482" x1="15.8387" y1="10.4871" x2="21.086" y2="10.4871" gradientUnits="userSpaceOnUse">
<stop stop-color="#FFE100"/>
<stop offset="1" stop-color="#F39800"/>
</linearGradient>
</defs>
</svg>
