<svg width="16" height="16" viewBox="0 0 16 16" fill="none" xmlns="http://www.w3.org/2000/svg">
<path d="M7.46582 2C7.76028 2.00001 7.99888 2.23878 7.99902 2.5332C7.99902 2.82775 7.76037 3.06641 7.46582 3.06641H3.06641V12.9355H7.46582C7.76037 12.9355 7.99902 13.1742 7.99902 13.4688C7.99891 13.7632 7.7603 14.002 7.46582 14.002H2.5332C2.23878 14.0019 2.00011 13.7632 2 13.4688V2.5332C2.00003 2.3918 2.05626 2.25624 2.15625 2.15625C2.25624 2.05626 2.3918 2.00003 2.5332 2H7.46582ZM9.88086 4.29688C10.085 4.08455 10.4234 4.07807 10.6357 4.28223L14.1016 7.61523C14.2061 7.71576 14.2656 7.85497 14.2656 8C14.2656 8.14508 14.2061 8.28421 14.1016 8.38477L10.6357 11.7178C10.4234 11.9219 10.085 11.9154 9.88086 11.7031C9.67697 11.4909 9.68357 11.1534 9.89551 10.9492L12.4082 8.5332H6C5.70545 8.5332 5.4668 8.29455 5.4668 8C5.46687 7.70551 5.70549 7.4668 6 7.4668H12.4082L9.89551 5.05078C9.68365 4.84659 9.67688 4.50904 9.88086 4.29688Z" fill="white"/>
</svg>
