<svg width="18" height="18" viewBox="0 0 18 18" fill="none" xmlns="http://www.w3.org/2000/svg">
<path d="M8.69922 2.25C9.03046 2.25 9.29959 2.51842 9.2998 2.84961C9.2998 3.18098 9.03059 3.4502 8.69922 3.4502H3.59961C3.51708 3.45041 3.45041 3.51708 3.4502 3.59961L3.45117 14.4004C3.4513 14.483 3.51803 14.5496 3.60059 14.5498H14.3994C14.4821 14.5498 14.5497 14.4831 14.5498 14.4004V9.2998C14.55 8.96859 14.8182 8.7002 15.1494 8.7002C15.4806 8.70023 15.7488 8.96861 15.749 9.2998V14.4004C15.7489 15.1458 15.1449 15.75 14.3994 15.75H3.60059C2.85529 15.7498 2.25111 15.1457 2.25098 14.4004L2.25 3.60059C2.24993 2.85508 2.85415 2.25021 3.59961 2.25H8.69922ZM15.1494 2.25C15.4807 2.25 15.7488 2.51842 15.749 2.84961V6.90039C15.7489 7.23165 15.4807 7.5 15.1494 7.5C14.8181 7.5 14.5499 7.23165 14.5498 6.90039V4.29883L8.67383 10.1738C8.43951 10.4081 8.05951 10.4081 7.8252 10.1738C7.59114 9.93956 7.59114 9.56044 7.8252 9.32617L13.7012 3.4502H11.0996C10.7682 3.4502 10.499 3.18098 10.499 2.84961C10.4992 2.51842 10.7684 2.25 11.0996 2.25H15.1494Z" fill="white"/>
</svg>
