<svg width="24" height="25" viewBox="0 0 24 25" fill="none" xmlns="http://www.w3.org/2000/svg">
<g id="icon/open-new-window">
<path id="Vector" d="M11.5996 3.5C12.0411 3.50026 12.3993 3.85823 12.3994 4.2998C12.3994 4.74147 12.0412 5.09935 11.5996 5.09961H4.7998C4.6895 5.09971 4.59971 5.1895 4.59961 5.2998L4.60156 19.7002C4.60157 19.8106 4.69131 19.9004 4.80176 19.9004H19.1992C19.3096 19.9003 19.3994 19.8106 19.3994 19.7002V12.9004C19.3994 12.4586 19.7574 12.1006 20.1992 12.1006C20.641 12.1006 20.999 12.4586 20.999 12.9004V19.7002C20.999 20.6943 20.1933 21.4999 19.1992 21.5H4.80176C3.80771 21.5 3.00107 20.6942 3.00098 19.7002L3 5.2998C3.0001 4.30586 3.80584 3.50011 4.7998 3.5H11.5996ZM20.1992 3.5C20.641 3.5 20.9989 3.85807 20.999 4.2998V9.7002C20.999 10.142 20.641 10.5 20.1992 10.5C19.7574 10.5 19.3994 10.142 19.3994 9.7002V6.23145L11.5645 14.0654C11.252 14.3778 10.746 14.3778 10.4336 14.0654C10.1213 13.753 10.1213 13.247 10.4336 12.9346L18.2676 5.09961H14.7988C14.3572 5.0994 13.999 4.7415 13.999 4.2998C13.9991 3.8582 14.3572 3.50021 14.7988 3.5H20.1992Z" fill="#33363D"/>
</g>
</svg>
