<svg width="24" height="25" viewBox="0 0 24 25" fill="none" xmlns="http://www.w3.org/2000/svg">
<path d="M18.6308 4.7347C18.9432 4.42248 19.4493 4.42236 19.7617 4.7347C20.074 5.04705 20.0739 5.55312 19.7617 5.86556L13.1288 12.4984L19.7656 19.1351C20.078 19.4475 20.078 19.9545 19.7656 20.2669C19.4532 20.5792 18.9471 20.5791 18.6347 20.2669L11.998 13.6292L5.36127 20.2669C5.04885 20.5791 4.54275 20.5792 4.23041 20.2669C3.91798 19.9545 3.918 19.4475 4.23041 19.1351L10.8662 12.4984L4.23431 5.86556C3.92209 5.55312 3.92196 5.04705 4.23431 4.7347C4.54667 4.42236 5.05275 4.42248 5.36517 4.7347L11.998 11.3675L18.6308 4.7347Z" fill="#33363D"/>
</svg>
