<svg width="20" height="21" viewBox="0 0 20 21" fill="none" xmlns="http://www.w3.org/2000/svg">
<path d="M17.6656 12.7061C18.0338 12.7061 18.3326 13.0049 18.3326 13.373V16.0391C18.3326 16.4073 18.0338 16.7061 17.6656 16.7061H2.33261C2.15599 16.706 1.98683 16.6356 1.86191 16.5107C1.73688 16.3857 1.66655 16.2159 1.6666 16.0391V13.373C1.66669 13.0049 1.9655 12.7061 2.33359 12.7061C2.70178 12.7061 3.00067 13.0049 3.00058 13.373L2.9996 15.373H16.9986V13.373C16.9986 13.0049 17.2975 12.7061 17.6656 12.7061ZM9.99863 2.53906C10.3668 2.53906 10.6656 2.83786 10.6656 3.20605V11.3008L13.6852 8.16016C13.9403 7.89495 14.3622 7.88669 14.6275 8.1416C14.8929 8.3968 14.9013 8.81956 14.6461 9.08496L10.4791 13.418C10.3534 13.5485 10.1798 13.6221 9.99863 13.6221C9.81742 13.622 9.64376 13.5486 9.51816 13.418L5.35214 9.08496C5.09695 8.81956 5.10529 8.3968 5.3707 8.1416C5.63612 7.88676 6.058 7.89489 6.31308 8.16016L9.33261 11.3008V3.20605C9.33261 2.838 9.63062 2.53927 9.99863 2.53906Z" fill="#33363D"/>
</svg>
