<svg width="16" height="16" viewBox="0 0 16 16" fill="none" xmlns="http://www.w3.org/2000/svg">
<g id="Vector">
<path d="M8.64498 0.655873C8.64498 0.293644 8.35179 0 7.99012 0C7.62846 0 7.33527 0.293644 7.33527 0.655873V2.85715C7.33527 3.21938 7.62846 3.51302 7.99012 3.51302C8.35179 3.51302 8.64498 3.21938 8.64498 2.85715V0.655873Z" fill="white"/>
<path d="M1.35893 1.74541C1.09173 1.50129 0.677533 1.52035 0.433797 1.78796C0.190062 2.05558 0.209083 2.47041 0.476283 2.71453L2.29485 4.37598C2.56205 4.62009 2.97625 4.60104 3.21998 4.33343C3.46372 4.06581 3.4447 3.65097 3.1775 3.40686L1.35893 1.74541Z" fill="white"/>
<path d="M15.5038 2.71452C15.771 2.4704 15.79 2.05556 15.5463 1.78795C15.3025 1.52034 14.8883 1.5013 14.6212 1.74542L12.8027 3.40687C12.5355 3.65099 12.5165 4.06583 12.7602 4.33344C13.0039 4.60105 13.4181 4.62009 13.6853 4.37597L15.5038 2.71452Z" fill="white"/>
<path d="M12.9296 10.5261C13.4934 10.5261 13.8971 9.98176 13.7351 9.44086L12.725 6.0687C12.6182 5.71211 12.2905 5.46791 11.9187 5.46791H4.0806C3.70888 5.46791 3.38118 5.71211 3.27437 6.0687L2.26429 9.44086C2.10227 9.98176 2.50594 10.5261 3.06978 10.5261H12.9296Z" fill="white"/>
<path d="M14.7405 16H1.25946C0.748217 16 0.492598 16 0.321988 15.8932C0.17257 15.7996 0.0637787 15.6532 0.0172503 15.483C-0.0358767 15.2886 0.0375748 15.0434 0.184478 14.553L0.730936 12.7286C0.809565 12.4661 0.84888 12.3348 0.923325 12.2352C1.00482 12.126 1.11624 12.043 1.24401 11.9962C1.36073 11.9534 1.49755 11.9534 1.77119 11.9534H14.2288C14.5024 11.9534 14.6393 11.9534 14.756 11.9962C14.8838 12.043 14.9952 12.126 15.0767 12.2352C15.1511 12.3348 15.1904 12.4661 15.2691 12.7286L15.8155 14.553C15.9624 15.0434 16.0359 15.2886 15.9828 15.483C15.9362 15.6532 15.8274 15.7996 15.678 15.8932C15.5074 16 15.2518 16 14.7405 16Z" fill="white"/>
</g>
</svg>
