<svg width="24" height="25" viewBox="0 0 24 25" fill="none" xmlns="http://www.w3.org/2000/svg">
<g id="icon/attach">
<path id="Vector" fill-rule="evenodd" clip-rule="evenodd" d="M11.8509 5.42396C14.0162 3.25874 17.5267 3.25874 19.6919 5.42397C21.8571 7.5892 21.8571 11.0997 19.6919 13.2649L11.9911 20.9657C11.6786 21.2782 11.1721 21.2782 10.8597 20.9657C10.5473 20.6533 10.5473 20.1468 10.8597 19.8344L18.5605 12.1336C20.1009 10.5932 20.1009 8.09573 18.5605 6.55534C17.0201 5.01496 14.5227 5.01494 12.9823 6.55534L4.92108 14.6165C4.92107 14.6165 4.92108 14.6165 4.92108 14.6165C3.9575 15.5801 3.95749 17.1424 4.92108 18.106C5.88466 19.0696 7.44692 19.0696 8.41051 18.106L15.643 10.8735C15.9898 10.5267 15.9898 9.96445 15.643 9.61766C15.2962 9.27089 14.7339 9.27089 14.3871 9.61766L7.51506 16.4898C7.20264 16.8022 6.69611 16.8022 6.38369 16.4898C6.07127 16.1774 6.07127 15.6708 6.38369 15.3584L13.2558 8.48632C13.2557 8.48632 13.2558 8.48631 13.2558 8.48632C14.2274 7.51468 15.8028 7.51468 16.7744 8.48632C17.746 9.45794 17.746 11.0332 16.7744 12.0049L9.54188 19.2374C7.95346 20.8258 5.37812 20.8258 3.78969 19.2374C2.20129 17.6489 2.20129 15.0736 3.78969 13.4852L11.8509 5.42396Z" fill="#33363D"/>
</g>
</svg>
