<svg width="24" height="24" viewBox="0 0 24 24" fill="none" xmlns="http://www.w3.org/2000/svg">
<g id="img_megaphone">
<path id="Vector" d="M14.999 18C14.493 18 14.062 17.619 14.006 17.11C13.826 15.495 13.156 14 9.5 14H4C1.794 14 0 12.206 0 10V9C0 6.794 1.794 5 4 5H9.5C13.156 5 13.826 3.505 14.006 1.89C14.065 1.363 14.498 0.971998 15.056 1.002C15.585 1.031 16 1.47 16 2.001V17.001C16 17.532 15.585 17.97 15.056 18C15.036 18 15.018 18 14.999 18ZM21.657 15.157C23.168 13.646 24 11.637 24 9.5C24 7.363 23.168 5.354 21.657 3.843C21.266 3.452 20.634 3.452 20.243 3.843C19.852 4.233 19.852 4.866 20.243 5.257C21.376 6.39 22 7.897 22 9.5C22 11.103 21.376 12.609 20.243 13.743C19.852 14.134 19.852 14.767 20.243 15.157C20.634 15.548 21.266 15.548 21.657 15.157ZM18.717 12.621C20.438 10.9 20.438 8.1 18.717 6.379C18.326 5.988 17.694 5.988 17.303 6.379C16.912 6.77 16.912 7.402 17.303 7.793C18.244 8.734 18.244 10.266 17.303 11.207C16.912 11.598 16.912 12.23 17.303 12.621C17.694 13.012 18.326 13.012 18.717 12.621ZM8.789 16H4C3.697 16 3.401 15.97 3.11 15.927L5.127 20.472C5.539 21.401 6.461 22.001 7.478 22.001C9.331 22.001 10.576 20.101 9.836 18.402L8.79 16.001L8.789 16Z" fill="#1E2124"/>
</g>
</svg>
