<svg width="101" height="27" viewBox="0 0 101 27" fill="none" xmlns="http://www.w3.org/2000/svg">
<g id="img-draw-hLogo02 1">
<path id="Vector" d="M23.4925 6.43765C22.8682 7.72117 21.3456 8.24047 20.0939 7.59709C18.8421 6.95695 18.3357 5.39582 18.9631 4.11225C19.5906 2.82872 21.1099 2.30943 22.3617 2.95283C23.6135 3.59297 24.1199 5.15412 23.4925 6.43765Z" fill="#FFCF1B"/>
<path id="Vector_2" d="M21.3359 11.5166C20.8422 12.5291 19.6414 12.9373 18.654 12.4311C17.6666 11.9249 17.2684 10.6936 17.7621 9.68112C18.2558 8.66866 19.4566 8.26043 20.444 8.76664C21.4314 9.27289 21.8296 10.5042 21.3359 11.5166Z" fill="#FFCF1B"/>
<path id="Vector_3" d="M18.5592 2.96724C18.0655 3.9797 16.8647 4.38795 15.8772 3.88172C14.8898 3.37549 14.4917 2.14421 14.9854 1.13175C15.4791 0.119287 16.6799 -0.288963 17.6673 0.217267C18.6547 0.723498 19.0529 1.95478 18.5592 2.96724Z" fill="#FFCF1B"/>
<path id="Vector_4" d="M17.9694 6.38972C18.2974 7.40546 17.7623 8.49957 16.7749 8.83924C15.7843 9.17563 14.7173 8.63019 14.386 7.61446C14.058 6.59877 14.5931 5.50466 15.5805 5.16499C16.5711 4.82859 17.6381 5.37399 17.9694 6.38972Z" fill="#F6A322"/>
<path id="Vector_5" d="M13.6342 7.86541C13.8476 8.52188 13.5004 9.23386 12.8602 9.45268C12.2199 9.67151 11.5256 9.31551 11.3122 8.65905C11.0988 7.99931 11.446 7.2906 12.0862 7.07177C12.7264 6.85295 13.4207 7.20894 13.6342 7.86541Z" fill="#F07E25"/>
<path id="Vector_6" d="M14.1886 3.632C14.4466 4.42889 14.0262 5.28786 13.2522 5.55242C12.475 5.81694 11.6373 5.38584 11.3793 4.5922C11.1213 3.7953 11.5418 2.93634 12.3158 2.6718C13.0929 2.40725 13.9307 2.83509 14.1886 3.632Z" fill="#F6A322"/>
<path id="Vector_7" d="M16.5552 10.9221C16.8132 11.719 16.3927 12.578 15.6187 12.8426C14.8415 13.1071 14.0038 12.676 13.7458 11.8824C13.4879 11.0854 13.9083 10.2265 14.6823 9.96196C15.4595 9.6974 16.2972 10.1253 16.5552 10.9221Z" fill="#F6A322"/>
<path id="Vector_8" d="M10.7294 8.86264C10.8759 9.31988 10.637 9.80977 10.1911 9.96326C9.74835 10.1135 9.26739 9.86855 9.11771 9.41131C8.96799 8.95407 9.21008 8.46418 9.65281 8.31065C10.0955 8.16043 10.5765 8.4054 10.7262 8.86264H10.7294Z" fill="#EA5622"/>
<path id="Vector_9" d="M11.1469 5.88055C11.3348 6.45863 11.0291 7.08569 10.4653 7.27837C9.9015 7.47109 9.29311 7.15752 9.1052 6.57948C8.91729 6.00139 9.22303 5.3743 9.7868 5.18161C10.3506 4.98893 10.9621 5.30246 11.1501 5.88055H11.1469Z" fill="#F07E25"/>
<path id="Vector_10" d="M12.8639 11.1635C13.0518 11.7416 12.7461 12.3687 12.1823 12.5614C11.6185 12.7541 11.0102 12.4406 10.8222 11.8625C10.6343 11.2844 10.9401 10.6573 11.5038 10.4647C12.0676 10.2719 12.6792 10.5855 12.8671 11.1635H12.8639Z" fill="#F07E25"/>
<path id="Vector_11" d="M8.58935 9.59382C8.67534 9.86161 8.53517 10.1555 8.27084 10.2437C8.00963 10.3319 7.72297 10.1882 7.63698 9.91712C7.54778 9.64606 7.69112 9.3554 7.9555 9.2672C8.21666 9.179 8.50333 9.32271 8.58935 9.59382Z" fill="#E41C1A"/>
<path id="Vector_12" d="M6.4201 10.3385C6.50609 10.6063 6.36592 10.9002 6.10159 10.9884C5.84038 11.0766 5.55372 10.9329 5.46773 10.6618C5.38171 10.3907 5.52187 10.1001 5.78625 10.0119C6.04741 9.92371 6.33408 10.0674 6.4201 10.3385Z" fill="#E41C1A"/>
<path id="Vector_13" d="M7.81237 10.9105C7.89836 11.1783 7.7582 11.469 7.49386 11.5605C7.23266 11.6486 6.94599 11.5049 6.86001 11.2371C6.77398 10.9661 6.91414 10.6754 7.17852 10.5872C7.43968 10.499 7.72635 10.6427 7.81237 10.9138V10.9105Z" fill="#E41C1A"/>
<path id="Vector_14" d="M7.19737 9.01525C7.28339 9.28308 7.14323 9.57374 6.87885 9.66521C6.61769 9.75337 6.33102 9.60966 6.245 9.34187C6.15901 9.07076 6.29917 8.7801 6.56351 8.69194C6.82471 8.60374 7.11138 8.74746 7.19737 9.01852V9.01525Z" fill="#E41C1A"/>
<path id="Vector_15" d="M8.77064 7.74068C8.87896 8.07053 8.70378 8.42979 8.38205 8.53759C8.06036 8.64862 7.71 8.46898 7.60486 8.13913C7.49659 7.80928 7.67177 7.45002 7.99346 7.33895C8.31518 7.22793 8.66554 7.40756 8.77064 7.73741V7.74068Z" fill="#EA5622"/>
<path id="Vector_16" d="M9.83744 11.0214C9.94571 11.3513 9.77053 11.7106 9.44884 11.8183C9.12711 11.9294 8.77675 11.7498 8.67165 11.4199C8.56334 11.09 8.73852 10.7308 9.06025 10.6197C9.38193 10.5087 9.73229 10.6883 9.83744 11.0181V11.0214Z" fill="#EA5622"/>
<path id="Vector_17" d="M43.89 16.2175C43.89 15.5643 43.5426 15.2051 43.1574 15.2051H34.5414V15.8583C34.5414 16.3384 34.8949 16.6388 35.36 16.6388H42.4213V19.2386H33.8247V19.8885C33.8247 20.3686 34.1783 20.6723 34.6433 20.6723H44.5398V19.2386H43.89V16.2208V16.2175Z" fill="#004F9F"/>
<path id="Vector_18" d="M43.0968 21.4773H34.4938V25.9289C34.4938 26.6572 35.0512 26.7486 35.4302 26.7486H43.8932V22.1599C43.8932 21.6504 43.492 21.4741 43.1 21.4741L43.0968 21.4773ZM42.463 25.3802H35.9207V22.8392H42.463V25.3802Z" fill="#004F9F"/>
<path id="Vector_19" d="M60.7807 21.3681V22.6974C60.7807 23.1775 61.0767 23.5367 61.5418 23.5367H62.1759V21.3648H64.9502V19.931H63.9466V15.9857C63.9466 15.5089 63.59 15.2019 63.1281 15.2019H58.2578V15.8551C58.2578 16.3352 58.6084 16.6356 59.0767 16.6356H62.488V19.931H57.5478V20.5842C57.5478 21.0611 57.898 21.3648 58.3663 21.3648H60.7807V21.3681Z" fill="#004F9F"/>
<path id="Vector_20" d="M65.2875 18.7945H66.2466V21.858C66.2466 22.3348 66.5425 22.6974 67.0076 22.6974H67.6446V19.5032V16.0412C67.6446 15.5644 67.3486 15.2019 66.8803 15.2019H66.2466V17.3574H64.4691V18.0074C64.4691 18.4875 64.8197 18.7912 65.2875 18.7912V18.7945Z" fill="#004F9F"/>
<path id="Vector_21" d="M66.8265 25.3185H59.663V23.3295C59.6566 22.8592 59.3602 22.5032 58.9016 22.5032H58.2646V25.9096C58.2646 26.3865 58.561 26.749 59.0289 26.749H67.645V26.099C67.645 25.6189 67.2916 25.3185 66.8265 25.3185Z" fill="#004F9F"/>
<path id="Vector_22" d="M55.659 20.251H51.7795V19.4214H54.9839C55.4329 19.4214 55.7992 19.049 55.7992 18.5886V15.2083H54.3213V16.0117H47.8936V15.2083H46.4157V18.5886C46.4157 19.049 46.7791 19.4214 47.2281 19.4214H50.3558V20.251H45.7245V20.9009C45.7245 21.381 46.0783 21.6847 46.5434 21.6847H56.4843V21.0315C56.4843 20.5514 56.1273 20.2477 55.6622 20.2477L55.659 20.251ZM47.8903 18.0138V17.2887H54.3181V18.0138H47.8903Z" fill="#004F9F"/>
<path id="Vector_23" d="M55.045 22.5032H46.4321V23.1531C46.4321 23.6332 46.7855 23.937 47.2506 23.937H54.4108V25.926C54.4173 26.3962 54.7137 26.7522 55.1755 26.7522H55.8092V23.3458C55.8092 22.8657 55.5133 22.5032 55.045 22.5032Z" fill="#004F9F"/>
<path id="Vector_24" d="M30.2636 20.6006H31.2542V21.8286C31.2542 22.3218 31.56 22.6941 32.041 22.6941H32.6971V16.0706C32.6971 15.5742 32.3913 15.2019 31.9104 15.2019H31.2542V16.763H29.4737V17.3934C29.4737 17.8539 29.8177 18.1478 30.2668 18.1478H31.2574V19.2126H29.4769V19.8429C29.4769 20.3066 29.8209 20.6006 30.27 20.6006H30.2636Z" fill="#004F9F"/>
<path id="Vector_25" d="M31.8756 25.3185H24.7122V23.3295C24.7058 22.8592 24.4096 22.5032 23.9509 22.5032H23.3171V25.9096C23.3171 26.3865 23.6133 26.749 24.0815 26.749H32.6942V26.099C32.6942 25.6189 32.3407 25.3185 31.8756 25.3185Z" fill="#004F9F"/>
<path id="Vector_26" d="M28.1331 20.5123C27.5215 21.1916 26.7348 21.5313 25.776 21.5313C24.8173 21.5313 24.0592 21.1916 23.4477 20.5123C22.868 19.8755 22.5813 19.1275 22.5813 18.2751C22.5813 17.4227 22.868 16.6323 23.4477 16.002C24.0497 15.3226 24.8268 14.983 25.776 14.983C26.7252 14.983 27.5215 15.3226 28.1331 16.002C28.7096 16.6388 28.9994 17.3998 28.9994 18.2784C28.9994 19.1569 28.7096 19.8755 28.1331 20.5123ZM27.0565 17.0209C26.7093 16.6486 26.2857 16.4624 25.776 16.4624C25.2664 16.4624 24.8682 16.6486 24.5243 17.0209C24.1866 17.3835 24.0178 17.8048 24.0178 18.2751C24.0178 18.716 24.1866 19.1112 24.5243 19.4672C24.8682 19.8395 25.2855 20.0257 25.776 20.0257C26.2666 20.0257 26.6997 19.8395 27.0565 19.4672C27.3941 19.1112 27.5629 18.716 27.5629 18.2751C27.5629 17.8015 27.3941 17.3835 27.0565 17.0177V17.0209Z" fill="#004F9F"/>
<path id="Vector_27" d="M83.3607 21.4097C84.7016 19.8486 84.6382 18.9863 84.6382 18.3691C84.6382 16.1286 82.6952 15.0149 81.2555 15.0149C78.7615 15.0149 77.3535 17.0398 77.3535 18.8688H78.4077C78.4077 17.6898 79.2486 16.0633 81.2394 16.0633C83.2302 16.0633 83.6028 18.0066 83.6028 18.4377C83.6028 18.8688 83.9406 19.3195 81.8543 21.5926C79.7647 23.869 77.0924 26.7594 77.0924 26.7594H84.8004V25.7274H79.5386L83.3607 21.4097Z" fill="#E94290"/>
<path id="Vector_28" d="M89.4603 14.9718C88.6767 14.9718 87.8932 15.1776 87.1285 15.8341C85.4567 17.4638 85.4567 20.4489 85.7655 23.2838C86.0743 26.1187 88.7787 27.8138 90.9253 26.6053C93.0723 25.4002 93.2984 23.2838 93.2984 20.2562C93.2984 17.2287 91.6868 14.9686 89.4603 14.9686V14.9718ZM90.5402 25.668C88.9571 26.6707 86.9599 25.2663 86.7306 22.918C86.5012 20.5698 86.5012 18.1007 87.737 16.7518C88.3008 16.2064 88.8775 16.0366 89.4571 16.0366C91.1008 16.0366 92.292 17.8525 92.292 20.4097C92.292 22.967 92.1229 24.6653 90.5402 25.6647V25.668Z" fill="#E94290"/>
<path id="Vector_29" d="M76.9582 15.2019V16.2241L72.1008 26.6427H70.7919L75.6301 16.5246V16.2307H69.9193V15.2051H76.955L76.9582 15.2019Z" fill="#E94290"/>
<path id="Vector_30" d="M10.0096 10.7838L9.30885 10.4964C9.21327 10.4572 9.06994 10.4572 8.97757 10.4964L8.27685 10.7838L7.57291 11.0745L7.40729 11.1463L7.90098 14.7781H10.4491L10.876 11.1463L10.7167 11.0745L10.0127 10.7838H10.0096Z" fill="url(#paint0_linear_7283_11185)"/>
<path id="Vector_31" d="M6.54429 10.7838L5.84035 10.4964C5.75119 10.4572 5.60147 10.4572 5.51228 10.4964L4.81155 10.7838L4.10763 11.0745C4.01844 11.1137 3.97704 11.2182 4.01844 11.3129L5.60147 14.7748H7.89798L7.40429 11.143L7.24184 11.0712L6.54111 10.7805L6.54429 10.7838Z" fill="url(#paint1_linear_7283_11185)"/>
<path id="Vector_32" d="M14.1791 11.0745L13.4752 10.7838L12.7776 10.4964C12.682 10.4572 12.5324 10.4572 12.4463 10.4964L11.7456 10.7838L11.0385 11.0745L10.8729 11.1463L10.446 14.7781H12.7458L14.2651 11.3161C14.3065 11.2182 14.2651 11.1169 14.1759 11.0777L14.1791 11.0745Z" fill="url(#paint2_linear_7283_11185)"/>
<path id="Vector_33" d="M7.9008 14.8934H5.54695L1.08453 19.4103C0.224536 20.2693 0.390165 21.432 1.08453 22.2027L4.81755 26.6968C4.8749 26.7751 4.96727 26.8372 5.0692 26.8862L7.90398 15.0371V14.8934H7.9008Z" fill="url(#paint3_linear_7283_11185)"/>
<path id="Vector_34" d="M17.2045 22.2027C17.902 21.4319 18.0677 20.2725 17.2045 19.4102L12.7389 14.8967H10.4806L13.223 26.8894C13.3185 26.8371 13.4141 26.7783 13.4746 26.7L17.2045 22.206V22.2027Z" fill="url(#paint4_linear_7283_11185)"/>
<path id="Vector_35" d="M13.2231 26.8862L10.4807 14.8934H7.93889L5.06909 26.8862C5.18375 26.9385 5.30158 26.9776 5.40351 26.9776H12.8886C12.9938 26.9776 13.1148 26.9385 13.2263 26.8862H13.2231Z" fill="url(#paint5_linear_7283_11185)"/>
<path id="Vector_36" d="M15.475 24.2866H2.81396L4.81424 26.6969C4.87159 26.7753 4.96396 26.8373 5.06588 26.8863C5.18054 26.9385 5.29841 26.9777 5.4003 26.9777H12.8855C12.9906 26.9777 13.1116 26.9385 13.2231 26.8863C13.3187 26.8341 13.4142 26.7753 13.4747 26.6969L15.475 24.2866Z" fill="url(#paint6_linear_7283_11185)"/>
<path id="Vector_37" d="M13.9211 14.2734H5.68746C5.38802 14.2734 5.14276 14.5249 5.14276 14.8287C5.14276 15.1324 5.38802 15.3871 5.68746 15.3871H13.9211" fill="white"/>
<path id="Vector_38" d="M13.921 15.6523H5.68736C5.2478 15.6523 4.88788 15.2865 4.88788 14.8325C4.88788 14.3786 5.2478 14.0225 5.68736 14.0225H13.921V14.5353H5.68736C5.52491 14.5353 5.39113 14.6692 5.39113 14.8325C5.39113 14.9958 5.52491 15.1362 5.68736 15.1362H13.921V15.6523Z" fill="#005081"/>
<path id="Vector_39" d="M5.70618 24.2099H2.75354L2.88413 24.3667H5.66477L5.70618 24.2099Z" fill="url(#paint7_linear_7283_11185)"/>
<path id="Vector_40" d="M12.6468 24.3667H15.4083L15.5389 24.2099H12.6086L12.6468 24.3667Z" fill="url(#paint8_linear_7283_11185)"/>
<path id="Vector_41" d="M5.70647 24.2099L5.67462 24.3667H12.647L12.6087 24.2099H5.70647Z" fill="url(#paint9_linear_7283_11185)"/>
<path id="Vector_42" d="M16.383 13.5944H15.5644V12.755C15.5644 12.1051 15.0485 11.576 14.4146 11.576C13.7807 11.576 13.2648 12.1051 13.2648 12.755V13.5944H12.4462C11.8123 13.5944 11.2963 14.1234 11.2963 14.7734C11.2963 15.4233 11.8123 15.9524 12.4462 15.9524H13.2648V16.7918C13.2648 17.4417 13.7807 17.9708 14.4146 17.9708C15.0485 17.9708 15.5644 17.4417 15.5644 16.7918V15.9524H16.383C17.0169 15.9524 17.5329 15.4233 17.5329 14.7734C17.5329 14.1234 17.0169 13.5944 16.383 13.5944Z" fill="#005081"/>
<path id="Vector_43" d="M99.7257 16.2303H98.1301V14.5941C98.1301 14.1564 97.7827 13.8004 97.3562 13.8004C96.9293 13.8004 96.5819 14.1564 96.5819 14.5941V16.2303H94.9864C94.5595 16.2303 94.2125 16.5863 94.2125 17.0239C94.2125 17.4616 94.5595 17.8176 94.9864 17.8176H96.5819V19.4538C96.5819 19.8915 96.9293 20.2475 97.3562 20.2475C97.7827 20.2475 98.1301 19.8915 98.1301 19.4538V17.8176H99.7257C100.153 17.8176 100.5 17.4616 100.5 17.0239C100.5 16.5863 100.153 16.2303 99.7257 16.2303Z" fill="#E94290"/>
<path id="Vector_44" d="M16.3858 14.1106H15.0576V12.7487C15.0576 12.3862 14.7677 12.089 14.4142 12.089C14.0606 12.089 13.7707 12.3862 13.7707 12.7487V14.1106H12.4425C12.089 14.1106 11.7991 14.4078 11.7991 14.7704C11.7991 15.1329 12.089 15.4301 12.4425 15.4301H13.7707V16.792C13.7707 17.1546 14.0606 17.4518 14.4142 17.4518C14.7677 17.4518 15.0576 17.1546 15.0576 16.792V15.4301H16.3858C16.7393 15.4301 17.0292 15.1329 17.0292 14.7704C17.0292 14.4078 16.7393 14.1106 16.3858 14.1106Z" fill="white"/>
</g>
<defs>
<linearGradient id="paint0_linear_7283_11185" x1="7.4742" y1="12.4266" x2="10.7629" y2="12.9928" gradientUnits="userSpaceOnUse">
<stop stop-color="#FFCC00"/>
<stop offset="0.02" stop-color="#FEC800"/>
<stop offset="0.23" stop-color="#F7A300"/>
<stop offset="0.44" stop-color="#F28800"/>
<stop offset="0.61" stop-color="#EF7700"/>
<stop offset="0.75" stop-color="#EE7201"/>
<stop offset="1" stop-color="#A14101"/>
</linearGradient>
<linearGradient id="paint1_linear_7283_11185" x1="4.06622" y1="13.2398" x2="7.64198" y2="12.4583" gradientUnits="userSpaceOnUse">
<stop stop-color="#AFCB37"/>
<stop offset="0.8" stop-color="#13A036"/>
<stop offset="1" stop-color="#3D6A2E"/>
</linearGradient>
<linearGradient id="paint2_linear_7283_11185" x1="10.704" y1="12.3286" x2="13.2772" y2="13.1526" gradientUnits="userSpaceOnUse">
<stop stop-color="#009FE3"/>
<stop offset="0.02" stop-color="#0099DE"/>
<stop offset="0.18" stop-color="#0077C1"/>
<stop offset="0.31" stop-color="#0063AF"/>
<stop offset="0.4" stop-color="#005CA9"/>
</linearGradient>
<linearGradient id="paint3_linear_7283_11185" x1="1.06542" y1="19.7174" x2="6.54266" y2="20.8473" gradientUnits="userSpaceOnUse">
<stop stop-color="#AFCB37"/>
<stop offset="0.8" stop-color="#13A036"/>
<stop offset="1" stop-color="#3D6A2E"/>
</linearGradient>
<linearGradient id="paint4_linear_7283_11185" x1="11.9808" y1="20.8538" x2="16.7045" y2="19.5977" gradientUnits="userSpaceOnUse">
<stop stop-color="#009FE3"/>
<stop offset="0.07" stop-color="#008DD3"/>
<stop offset="0.2" stop-color="#0072BC"/>
<stop offset="0.31" stop-color="#0061AD"/>
<stop offset="0.4" stop-color="#005CA9"/>
</linearGradient>
<linearGradient id="paint5_linear_7283_11185" x1="5.99913" y1="21.4973" x2="11.9503" y2="20.7792" gradientUnits="userSpaceOnUse">
<stop stop-color="#FFCC00"/>
<stop offset="0.02" stop-color="#FEC800"/>
<stop offset="0.23" stop-color="#F7A300"/>
<stop offset="0.44" stop-color="#F28800"/>
<stop offset="0.61" stop-color="#EF7700"/>
<stop offset="0.75" stop-color="#EE7201"/>
<stop offset="1" stop-color="#A14101"/>
</linearGradient>
<linearGradient id="paint6_linear_7283_11185" x1="9.14291" y1="26.8961" x2="9.14291" y2="24.3029" gradientUnits="userSpaceOnUse">
<stop stop-color="white" stop-opacity="0.86"/>
<stop offset="1" stop-color="white" stop-opacity="0"/>
</linearGradient>
<linearGradient id="paint7_linear_7283_11185" x1="0.297774" y1="23.4195" x2="5.7814" y2="24.5526" gradientUnits="userSpaceOnUse">
<stop stop-color="#AFCB37"/>
<stop offset="0.8" stop-color="#13A036"/>
<stop offset="1" stop-color="#3D6A2E"/>
</linearGradient>
<linearGradient id="paint8_linear_7283_11185" x1="12.9717" y1="24.5789" x2="17.6954" y2="23.3197" gradientUnits="userSpaceOnUse">
<stop stop-color="#009FE3"/>
<stop offset="0.07" stop-color="#008DD3"/>
<stop offset="0.2" stop-color="#0072BC"/>
<stop offset="0.31" stop-color="#0061AD"/>
<stop offset="0.4" stop-color="#005CA9"/>
</linearGradient>
<linearGradient id="paint9_linear_7283_11185" x1="6.37852" y1="24.641" x2="12.3296" y2="23.926" gradientUnits="userSpaceOnUse">
<stop stop-color="#FFCC00"/>
<stop offset="0.02" stop-color="#FEC800"/>
<stop offset="0.23" stop-color="#F7A300"/>
<stop offset="0.44" stop-color="#F28800"/>
<stop offset="0.61" stop-color="#EF7700"/>
<stop offset="0.75" stop-color="#EE7201"/>
<stop offset="1" stop-color="#A14101"/>
</linearGradient>
</defs>
</svg>
