<svg width="136" height="32" viewBox="0 0 136 32" fill="none" xmlns="http://www.w3.org/2000/svg">
<g id="logo_dong 1" clip-path="url(#clip0_7283_10603)">
<g id="Clip path group">
<mask id="mask0_7283_10603" style="mask-type:luminance" maskUnits="userSpaceOnUse" x="0" y="0" width="136" height="32">
<g id="clip0_1008_11241">
<path id="Vector" d="M136 0H0V32H136V0Z" fill="white"/>
</g>
</mask>
<g mask="url(#mask0_7283_10603)">
<g id="Group">
<path id="Vector_2" d="M104.809 13.5385H111.23V10.5163V8.32898V5.58334V3.36019H108.143V5.58334H97.8278V3.36019H94.7395V13.5437H101.161V15.1931H92.1758V18.2153H113.79V15.1931H104.804V13.5437L104.809 13.5385ZM97.8278 10.5163V8.32898H108.143V10.5163H97.8278Z" fill="#333333"/>
<path id="Vector_3" d="M122.408 22.2824H126.062V16.5606H132.913V18.21H128.909V21.2323H132.913V23.3785H136V3.35485H132.913V13.5383H116.139V16.5606H122.408V22.2824Z" fill="#333333"/>
<path id="Vector_4" d="M94.7344 22.8816H108.138V30.7036H111.23V22.8816V19.8594H94.7344V22.8816Z" fill="#333333"/>
<path id="Vector_5" d="M120.347 27.6816V22.7845H117.259V28.5371V30.7038H136V27.6816H120.347Z" fill="#333333"/>
<path id="Vector_6" d="M127.469 11.8888H130.557V6.3771V3.35485H127.469H117.348V6.3771H127.469V11.8888Z" fill="#333333"/>
<path id="Vector_7" d="M58.4987 12.9853H64.3601V9.96295H52.0773V6.0904H64.3601V3.33964H48.9896V3.35501V12.9853H54.8511V15.1879H46.2578V18.2101H67.0971V15.1879H58.4987V12.9853Z" fill="#333333"/>
<path id="Vector_8" d="M87.0939 9.24564H84.3201V3.35485H81.2324V9.24564V12.268V18.1587H84.3201V12.268H87.0939V18.1587H90.1814V3.35485H87.0939V9.24564Z" fill="#333333"/>
<path id="Vector_9" d="M78.3387 3.33964H69.3425V6.08528H78.3387V3.33964Z" fill="#333333"/>
<path id="Vector_10" d="M56.6774 19.8594C53.4641 19.8594 50.8579 22.4104 50.8579 25.5555C50.8579 28.7007 53.4641 31.2517 56.6774 31.2517C59.8908 31.2517 62.497 28.7007 62.497 25.5555C62.497 22.4104 59.8908 19.8594 56.6774 19.8594ZM56.6774 28.1834C55.1964 28.1834 53.9928 27.0052 53.9928 25.5555C53.9928 24.1059 55.1964 22.9277 56.6774 22.9277C58.1585 22.9277 59.3622 24.1059 59.3622 25.5555C59.3622 27.0052 58.1585 28.1834 56.6774 28.1834Z" fill="#333333"/>
<path id="Vector_11" d="M82.5722 19.8594C79.3589 19.8594 76.7527 22.4104 76.7527 25.5555C76.7527 28.7007 79.3589 31.2517 82.5722 31.2517C85.7854 31.2517 88.3914 28.7007 88.3914 25.5555C88.3914 22.4104 85.7854 19.8594 82.5722 19.8594ZM82.5722 28.1834C81.0912 28.1834 79.8875 27.0052 79.8875 25.5555C79.8875 24.1059 81.0912 22.9277 82.5722 22.9277C84.0533 22.9277 85.2567 24.1059 85.2567 25.5555C85.2567 27.0052 84.0533 28.1834 82.5722 28.1834Z" fill="#333333"/>
<path id="Vector_12" d="M79.0765 13.9074C79.0765 12.6216 78.5898 11.4435 77.7891 10.547H79.8877V7.8014H67.7986V10.547H69.8972C69.0965 11.4486 68.6098 12.6216 68.6098 13.9074C68.6098 16.7401 70.9543 19.0349 73.8484 19.0349C76.7425 19.0349 79.087 16.7401 79.087 13.9074H79.0765ZM73.8379 15.9615C72.6813 15.9615 71.7394 15.0394 71.7394 13.9074C71.7394 12.7753 72.6813 11.8532 73.8379 11.8532C74.9945 11.8532 75.9365 12.7753 75.9365 13.9074C75.9365 15.0394 74.9945 15.9615 73.8379 15.9615Z" fill="#333333"/>
<path id="Vector_13" d="M33.0644 11.5256C33.1115 9.43571 32.248 7.45331 30.5576 5.80387C30.4791 5.72704 30.4006 5.65533 30.3169 5.57849C27.1454 2.67406 23.2675 2.32061 19.803 4.46691C20.117 5.29676 20.3734 6.16245 20.5776 7.05376C23.2151 5.07649 26.0673 5.19431 28.5271 7.44819C28.5846 7.50453 28.6474 7.56088 28.705 7.61723C29.893 8.78004 30.4791 10.076 30.4477 11.4693C30.4058 13.2314 29.3801 15.096 27.5536 16.7301C27.2815 16.9709 27.1297 17.314 27.1297 17.6777C27.1297 18.0414 27.2815 18.3795 27.5536 18.6254C29.3801 20.2595 30.4058 22.124 30.4477 23.8861C30.4791 25.2795 29.893 26.5754 28.705 27.7383C28.6474 27.7946 28.5898 27.8509 28.5271 27.9021C25.1201 31.0269 21.5771 28.6654 19.7664 26.9853C19.5779 26.806 19.3948 26.6164 19.222 26.4218C19.0913 26.2425 18.9133 26.0888 18.6935 25.9915C18.1545 25.7507 17.5212 25.8941 17.1445 26.3398C16.956 26.5652 16.7519 26.7804 16.5321 26.9801C14.7266 28.6654 11.1836 31.0217 7.77144 27.897C7.71387 27.8458 7.6563 27.7895 7.59873 27.7331C6.42646 26.5857 5.82462 25.1565 5.86125 23.6095C5.88741 22.4211 6.28515 21.2122 6.98119 20.0853C6.08629 19.8957 5.22278 19.6601 4.3959 19.363C3.68416 20.7051 3.28119 22.1343 3.24979 23.5532C3.19746 25.8173 4.0662 27.892 5.75135 29.5414C5.82985 29.6182 5.90835 29.695 5.99208 29.7667C9.51942 32.999 14.0515 32.707 18.1545 29.0086C20.3629 31.0013 22.6918 32.0104 24.9264 32.0104C26.8419 32.0104 28.6892 31.2676 30.3221 29.777C30.4006 29.7053 30.4844 29.6285 30.5628 29.5516C32.248 27.9021 33.1167 25.9197 33.0696 23.8298C33.0225 21.7245 32.0439 19.5782 30.2907 17.6829C32.0439 15.7875 33.0225 13.6413 33.0696 11.5359L33.0644 11.5256Z" fill="#479332"/>
<path id="Vector_14" d="M14.2768 18.7577C10.1686 18.7577 4.92995 18.3428 1.94692 15.4537C-0.2354 13.3485 -0.627904 10.316 0.994447 8.08254C1.93123 6.79168 3.74198 5.69035 6.14933 6.07454C5.73066 3.72333 6.84014 1.93559 8.14849 1.00842C10.4146 -0.60003 13.5127 -0.251703 15.695 1.85875C19.3531 5.4035 19.2537 12.2522 19.191 16.34C19.1857 16.8215 19.1752 17.2723 19.1752 17.6717V18.6861L18.139 18.6963C17.7517 18.6963 17.3069 18.7117 16.8202 18.7219C16.0561 18.7424 15.1926 18.7629 14.282 18.7629L14.2768 18.7577ZM5.20209 8.05181C4.04551 8.05181 3.19247 8.59478 2.70053 9.27099C1.87366 10.4132 1.74282 12.3803 3.4175 14.0041C6.43194 16.9239 12.9056 16.7702 16.7679 16.6781C16.8778 16.6781 16.9877 16.6729 17.0923 16.6678C17.0923 16.55 17.0923 16.4322 17.0976 16.3092C17.1552 12.5442 17.2441 6.24358 14.2244 3.31352C12.5498 1.68971 10.5402 1.83826 9.38359 2.66297C8.39969 3.35963 7.70888 4.7888 8.53574 6.76606C10.1791 7.09902 14.1041 8.12864 14.8211 10.3876C15.0566 11.1355 15.0461 12.3137 13.633 13.6609C12.4765 14.7622 11.4246 14.7469 10.7443 14.5471C8.48869 13.876 7.30591 9.99832 6.90818 8.40013C6.2854 8.15938 5.72019 8.05181 5.21256 8.05181H5.20209ZM9.25798 9.05583C9.82318 10.7975 10.6501 12.3803 11.3461 12.5852C11.5502 12.6467 11.8275 12.5134 12.1677 12.1907C12.4608 11.9091 12.9371 11.3814 12.8167 10.9921C12.5864 10.2545 10.9117 9.52194 9.25798 9.05583Z" fill="#084A3D"/>
</g>
</g>
</g>
</g>
<defs>
<clipPath id="clip0_7283_10603">
<rect width="136" height="32" fill="white"/>
</clipPath>
</defs>
</svg>
