<svg width="101" height="21" viewBox="0 0 101 21" fill="none" xmlns="http://www.w3.org/2000/svg">
<g id="Clip path group">
<mask id="mask0_7283_11040" style="mask-type:luminance" maskUnits="userSpaceOnUse" x="0" y="0" width="101" height="21">
<g id="clip0_1499_43367">
<path id="Vector" d="M100.5 0.083313H0.5V20.9166H100.5V0.083313Z" fill="white"/>
</g>
</mask>
<g mask="url(#mask0_7283_11040)">
<g id="Group">
<path id="Vector_2" d="M27.9093 5.70892V15.8664C27.9093 18.5741 29.5243 20.0903 32.0567 20.5081C33.0424 20.6706 36.2572 20.7634 37.5386 20.4385V17.375C35.8781 17.7308 33.5731 17.6071 32.5874 17.3131C31.8216 17.081 31.3137 16.4312 31.3137 15.588V5.70892H27.9093Z" fill="#004EA2"/>
<path id="Vector_3" d="M43.4826 8.41583C39.7901 8.41583 37.2501 11.1931 37.2501 14.6202C37.2501 18.0473 39.4186 20.8246 43.4826 20.8246C47.5465 20.8246 49.7152 18.0473 49.7152 14.6202C49.7152 11.1931 47.1752 8.41583 43.4826 8.41583ZM43.4826 17.7533C41.6932 17.7533 40.7076 16.3531 40.7076 14.6202C40.7076 12.8873 41.7311 11.4871 43.4826 11.4871C45.2339 11.4871 46.2499 12.895 46.2499 14.6202C46.2499 16.3453 45.2643 17.7533 43.4826 17.7533Z" fill="#00A0D2"/>
<path id="Vector_4" d="M71.1799 8.41583C67.4873 8.41583 64.9473 11.1931 64.9473 14.6202C64.9473 18.0473 67.116 20.8246 71.1799 20.8246C75.2438 20.8246 77.4125 18.0473 77.4125 14.6202C77.4125 11.1931 74.8725 8.41583 71.1799 8.41583ZM71.1799 17.7533C69.3981 17.7533 68.4125 16.3531 68.4125 14.6202C68.4125 12.8873 69.436 11.4871 71.1799 11.4871C72.9238 11.4871 73.9473 12.895 73.9473 14.6202C73.9473 16.3453 72.9616 17.7533 71.1799 17.7533Z" fill="#8FC31F"/>
<path id="Vector_5" d="M63.545 17.8461C62.9463 17.8151 62.3398 17.7455 62.3398 17.2349V11.5798H65.3119V8.53953H62.2715V5.70038H58.9276V8.53953H54.7345V5.70038H51.3911V8.53953H49.2985V11.5798H51.3911V17.9466C51.3911 20.0818 53.4685 20.4996 54.545 20.6156C55.5915 20.7316 57.3128 20.5537 58.048 20.4067V17.5676C57.525 17.7378 56.3724 17.8538 56.0011 17.8461C55.4019 17.8151 54.7954 17.7455 54.7954 17.2349V11.5798H58.9276V17.9466C58.9276 20.0818 61.005 20.4996 62.0741 20.6156C63.128 20.7316 64.6519 20.5847 65.3193 20.4299V17.5908C64.8719 17.761 63.9089 17.8538 63.5376 17.8383L63.545 17.8461Z" fill="#004EA2"/>
<path id="Vector_6" d="M88.0196 11.207L83.9178 20.9158H85.1918L89.3013 11.207H88.0196Z" fill="#8FC31F"/>
<path id="Vector_7" d="M99.6584 15.105C99.1049 14.5094 98.3923 14.2076 97.528 14.2076C97.4823 14.2076 97.4219 14.2076 97.361 14.2076C97.3006 14.2076 97.2397 14.2154 97.1714 14.2231L97.6114 12.7223H100.356V11.4304H96.671L95.2684 16.219H95.7158C96.1554 15.6775 96.6788 15.4145 97.2775 15.4145C97.8236 15.4145 98.271 15.6079 98.6349 15.987C98.9988 16.3583 99.1732 16.8302 99.1732 17.4104C99.1732 17.9906 98.991 18.4548 98.6271 18.8571C98.2632 19.2439 97.8084 19.4373 97.2701 19.4373C96.8532 19.4373 96.5041 19.3367 96.2236 19.1433C95.9358 18.9421 95.6549 18.6018 95.3745 18.1144L94.3584 18.9963C95.041 20.1258 95.9736 20.6905 97.1562 20.6905C98.1114 20.6905 98.908 20.3811 99.5371 19.7622C100.174 19.1432 100.485 18.3542 100.485 17.3949C100.485 16.4357 100.204 15.7084 99.651 15.1128L99.6584 15.105Z" fill="#004EA2"/>
<path id="Vector_8" d="M83.4478 15.6311C82.917 15.0663 82.2952 14.7801 81.5674 14.7801C81.5222 14.7801 81.4613 14.7801 81.3778 14.7956C81.3022 14.7956 81.1961 14.8188 81.0822 14.8265L83.5765 11.4304H82.0374L79.1109 15.4299C78.527 16.2345 78.2391 17.0004 78.2391 17.7198C78.2391 18.5244 78.5348 19.2129 79.1335 19.8008C79.74 20.3811 80.4531 20.675 81.2565 20.675C82.0604 20.675 82.773 20.3811 83.357 19.7853C83.9409 19.1897 84.2365 18.4702 84.2365 17.6425C84.2365 16.8611 83.9787 16.1881 83.4552 15.6233L83.4478 15.6311ZM82.4244 18.9344C82.0983 19.267 81.7039 19.4373 81.2413 19.4373C80.7791 19.4373 80.3696 19.2748 80.0435 18.9344C79.7174 18.6018 79.5504 18.1995 79.5504 17.7198C79.5504 17.2402 79.7174 16.8379 80.0435 16.5053C80.3696 16.1726 80.7713 16.0024 81.2413 16.0024C81.7117 16.0024 82.1057 16.1726 82.4317 16.5053C82.7578 16.8379 82.9248 17.2479 82.9248 17.7276C82.9248 18.2072 82.7578 18.5863 82.4317 18.9267L82.4244 18.9344Z" fill="#004EA2"/>
<path id="Vector_9" d="M92.8118 11.4389H91.7427L87.6179 18.4633V19.2446H91.4697V20.5366H92.8118V19.2446H93.7597V17.9991H92.8118V11.4389ZM91.4697 17.9991H89.4149L91.4697 14.4327V17.9991Z" fill="#004EA2"/>
<path id="Vector_10" d="M12.2901 0.717927L11.4182 0.354332C11.3045 0.307915 11.1225 0.307915 11.0087 0.354332L10.1368 0.717927L9.26488 1.07379L9.06018 1.15889L9.66675 5.63811H12.8209L13.3516 1.15889L13.1469 1.07379L12.275 0.710192L12.2901 0.717927Z" fill="url(#paint0_linear_7283_11040)"/>
<path id="Vector_11" d="M7.9911 0.717927L7.11919 0.354332C7.00545 0.307915 6.82349 0.307915 6.70975 0.354332L5.83779 0.717927L4.96588 1.08152C4.85214 1.12794 4.80664 1.25945 4.85971 1.36776L6.82349 5.64584H9.67432L9.06775 1.16662L8.86306 1.08152L7.9911 0.725665V0.717927Z" fill="url(#paint1_linear_7283_11040)"/>
<path id="Vector_12" d="M17.4534 1.08172L16.5815 0.725865L15.7171 0.362266C15.6034 0.315849 15.4214 0.315849 15.3077 0.362266L14.4358 0.725865L13.5638 1.08172L13.3591 1.16682L12.8284 5.64603H15.6792L17.5672 1.3757C17.6202 1.25965 17.5672 1.13588 17.4534 1.08172Z" fill="url(#paint2_linear_7283_11040)"/>
<path id="Vector_13" d="M9.67448 5.78339H6.75539L1.22803 11.3534C0.158961 12.4132 0.363677 13.8444 1.22803 14.7882L5.85308 20.335C5.92891 20.4278 6.04265 20.5052 6.16395 20.5671L9.67448 5.96134V5.78339Z" fill="url(#paint3_linear_7283_11040)"/>
<path id="Vector_14" d="M21.2067 14.7968C22.0711 13.8452 22.2758 12.4141 21.2067 11.3619L15.6794 5.79193H12.874L16.2784 20.5757C16.3997 20.5138 16.5134 20.4364 16.5892 20.3436L21.2143 14.7968H21.2067Z" fill="url(#paint4_linear_7283_11040)"/>
<path id="Vector_15" d="M16.2706 20.5757L12.8663 5.79193H9.7197L6.1637 20.5757C6.30017 20.6453 6.45183 20.6839 6.5807 20.6839H15.8612C15.9901 20.6839 16.1417 20.6375 16.2782 20.5757H16.2706Z" fill="url(#paint5_linear_7283_11040)"/>
<path id="Vector_16" d="M19.061 17.363H3.37366L5.85301 20.3336C5.9288 20.4265 6.04254 20.5038 6.16384 20.5657C6.30032 20.6353 6.45197 20.674 6.58088 20.674H15.8613C15.9902 20.674 16.1419 20.6276 16.2784 20.5657C16.3997 20.5038 16.5134 20.4265 16.5892 20.3336L19.0685 17.363H19.061Z" fill="url(#paint6_linear_7283_11040)"/>
<path id="Vector_17" d="M17.1275 5.02716H6.92959C6.55807 5.02716 6.25476 5.33662 6.25476 5.7157C6.25476 6.09474 6.55807 6.4042 6.92959 6.4042H17.1275" fill="white"/>
<path id="Vector_18" d="M17.1275 6.72115H6.92962C6.38371 6.72115 5.94397 6.27245 5.94397 5.71546C5.94397 5.15843 6.38371 4.70978 6.92962 4.70978H17.1275V5.34411H6.92962C6.72493 5.34411 6.56571 5.50657 6.56571 5.71546C6.56571 5.92432 6.72493 6.08677 6.92962 6.08677H17.1275V6.72115Z" fill="#005083"/>
<path id="Vector_19" d="M6.96012 17.2733H3.29797L3.4572 17.4667H6.90703L6.96012 17.2733Z" fill="url(#paint7_linear_7283_11040)"/>
<path id="Vector_20" d="M15.558 17.4667H18.9776L19.1368 17.2733H15.505L15.558 17.4667Z" fill="url(#paint8_linear_7283_11040)"/>
<path id="Vector_21" d="M6.96007 17.2733L6.91455 17.4667H15.5581L15.505 17.2733H6.96007Z" fill="url(#paint9_linear_7283_11040)"/>
<path id="Vector_22" d="M23.9742 2.83737C23.9742 4.35364 22.7687 5.59143 21.275 5.59143C19.7813 5.59143 18.5758 4.36138 18.5758 2.83737C18.5758 1.31335 19.7813 0.083313 21.275 0.083313C22.7687 0.083313 23.9742 1.31335 23.9742 2.83737Z" fill="#005083"/>
<path id="Vector_23" d="M23.3752 2.83149C23.3752 4.02284 22.435 4.98211 21.2674 4.98211C20.0998 4.98211 19.1595 4.02284 19.1595 2.83149C19.1595 1.64012 20.1073 0.680847 21.2674 0.680847C22.4275 0.680847 23.3752 1.64012 23.3752 2.83149Z" fill="#009944"/>
<path id="Vector_24" d="M20.7214 2.31198C20.1982 2.96955 20.0845 3.10107 19.6826 3.16296C19.4172 3.20164 19.2883 2.96955 19.2883 2.6369C19.2883 2.30425 19.4097 1.87876 19.6523 1.53064C19.9328 1.12063 20.365 0.896276 20.7517 0.842127C21.1384 0.787973 21.4872 0.896276 21.5857 1.15931C21.7298 1.53837 21.0701 1.87876 20.7214 2.31198Z" fill="#009944"/>
<path id="Vector_25" d="M19.6599 1.54125C19.9329 1.13898 20.3651 0.914627 20.7518 0.860474C21.1385 0.80632 21.4796 0.914627 21.5782 1.16992C21.7223 1.54899 21.0702 1.88164 20.729 2.30713C20.2134 2.95696 20.0997 3.08847 19.7054 3.14263C19.4401 3.18131 19.3112 2.94922 19.3112 2.62431C19.3112 2.29939 19.4325 1.8739 19.6675 1.53352L19.6599 1.54125Z" fill="#009A45"/>
<path id="Vector_26" d="M19.6675 1.5384C19.9405 1.14385 20.3651 0.91951 20.7442 0.865357C21.1233 0.811203 21.4645 0.91951 21.5555 1.1748C21.6919 1.54613 21.055 1.87879 20.7139 2.29654C20.2059 2.93863 20.0845 3.06241 19.6979 3.1243C19.4401 3.16298 19.3112 2.93863 19.3112 2.61372C19.3112 2.2888 19.4325 1.87105 19.6599 1.5384H19.6675Z" fill="#009B46"/>
<path id="Vector_27" d="M19.6675 1.53863C19.9329 1.14409 20.3575 0.927478 20.729 0.873328C21.1005 0.819175 21.4341 0.927478 21.5327 1.17503C21.6692 1.53863 21.0399 1.86355 20.7062 2.28904C20.2058 2.91566 20.0845 3.04717 19.7054 3.10906C19.4476 3.14774 19.3263 2.92339 19.3263 2.60621C19.3263 2.28904 19.4476 1.87902 19.6751 1.54637L19.6675 1.53863Z" fill="#009C47"/>
<path id="Vector_28" d="M19.6751 1.5394C19.9404 1.15259 20.3499 0.93598 20.7214 0.88183C21.0929 0.827677 21.4189 0.928245 21.5175 1.18354C21.654 1.5394 21.0323 1.86431 20.6986 2.28206C20.2058 2.90095 20.0845 3.03246 19.7054 3.08662C19.4476 3.1253 19.3263 2.90095 19.3263 2.59151C19.3263 2.28206 19.44 1.87205 19.6675 1.5394H19.6751Z" fill="#009C48"/>
<path id="Vector_29" d="M19.6825 1.5372C19.9403 1.15813 20.3497 0.941519 20.7213 0.887365C21.0928 0.833212 21.4112 0.93378 21.5022 1.18134C21.6387 1.52946 21.0245 1.85438 20.6985 2.26439C20.2057 2.87555 20.0919 3.00706 19.7204 3.06121C19.4702 3.09989 19.3489 2.88328 19.3489 2.57384C19.3489 2.26439 19.4626 1.86211 19.6901 1.5372H19.6825Z" fill="#009D49"/>
<path id="Vector_30" d="M19.6901 1.53801C19.9479 1.15894 20.3498 0.950063 20.7138 0.89591C21.0777 0.841756 21.3961 0.942329 21.4871 1.18988C21.616 1.53801 21.017 1.85519 20.691 2.25746C20.2058 2.86088 20.0844 2.99239 19.7205 3.04655C19.4703 3.08523 19.3565 2.86862 19.349 2.55917C19.3414 2.24973 19.4627 1.85519 19.6826 1.53801H19.6901Z" fill="#009E4A"/>
<path id="Vector_31" d="M19.6977 1.53947C19.9555 1.16814 20.3498 0.959261 20.7062 0.905108C21.0625 0.850954 21.381 0.951523 21.472 1.19134C21.6008 1.53173 21.0094 1.84891 20.691 2.24345C20.2133 2.8314 20.092 2.96291 19.7357 3.0248C19.4931 3.06348 19.3717 2.84687 19.3717 2.54516C19.3717 2.24345 19.4854 1.84891 19.6977 1.53947Z" fill="#009F4C"/>
<path id="Vector_32" d="M19.7053 1.53958C19.9555 1.16824 20.3497 0.967103 20.6985 0.920688C21.0473 0.874269 21.3582 0.967103 21.4491 1.20693C21.5781 1.53958 20.9942 1.85676 20.6758 2.24356C20.2057 2.82377 20.0844 2.95528 19.7356 3.00943C19.493 3.04811 19.3793 2.83924 19.3793 2.53753C19.3793 2.23583 19.493 1.85676 19.7053 1.53958Z" fill="#00A04D"/>
<path id="Vector_33" d="M19.713 1.53981C19.9632 1.17621 20.3499 0.975072 20.6911 0.928657C21.0323 0.882242 21.3431 0.975072 21.4341 1.20716C21.5554 1.53207 20.9868 1.84152 20.6759 2.22832C20.2134 2.8008 20.0845 2.93231 19.7433 2.98646C19.5083 3.02514 19.3945 2.81627 19.387 2.52229C19.3793 2.22832 19.4931 1.84926 19.7054 1.53981H19.713Z" fill="#00A14E"/>
<path id="Vector_34" d="M19.7205 1.54001C19.9631 1.18415 20.3498 0.983008 20.691 0.936593C21.0322 0.890174 21.3355 0.983008 21.4265 1.21509C21.5478 1.54001 20.9868 1.84171 20.6759 2.22852C20.2209 2.79326 20.0921 2.92477 19.7585 2.97892C19.5234 3.0176 19.4097 2.80873 19.4097 2.52249C19.4097 2.23626 19.5158 1.85719 19.7281 1.55548L19.7205 1.54001Z" fill="#00A250"/>
<path id="Vector_35" d="M19.7281 1.5378C19.9708 1.18194 20.3423 0.98854 20.6835 0.94212C21.0246 0.895705 21.3203 0.98854 21.4038 1.21288C21.5251 1.53007 20.9716 1.83177 20.6683 2.21084C20.2209 2.76011 20.0921 2.89936 19.7585 2.94578C19.5234 2.98446 19.4172 2.77558 19.4172 2.49708C19.4172 2.21858 19.5234 1.83951 19.7281 1.5378Z" fill="#00A351"/>
<path id="Vector_36" d="M19.7357 1.53922C19.9707 1.1911 20.3422 0.997692 20.6758 0.951278C21.0095 0.904858 21.3052 0.997692 21.3885 1.22204C21.5023 1.53148 20.964 1.83319 20.6607 2.20452C20.2209 2.74605 20.092 2.8853 19.766 2.93172C19.5385 2.96266 19.4248 2.76926 19.4248 2.48302C19.4248 2.19679 19.5309 1.83319 19.7357 1.53922Z" fill="#00A452"/>
<path id="Vector_37" d="M19.7434 1.54007C19.9784 1.19968 20.3423 1.00627 20.6684 0.959857C20.9944 0.913443 21.2901 1.00627 21.3735 1.22289C21.4872 1.52459 20.9565 1.8263 20.6608 2.1899C20.2286 2.72369 20.0921 2.8552 19.7737 2.90936C19.5462 2.9403 19.4401 2.7469 19.4401 2.4684C19.4401 2.1899 19.5462 1.83404 19.7434 1.54007Z" fill="#00A553"/>
<path id="Vector_38" d="M19.7509 1.53904C19.9784 1.19866 20.3423 1.01299 20.6683 0.966573C20.9944 0.920154 21.2749 1.01299 21.3583 1.2296C21.472 1.52357 20.9489 1.81754 20.6532 2.18114C20.2285 2.70719 20.0921 2.83871 19.7812 2.88512C19.5613 2.91607 19.4552 2.72267 19.4552 2.4519C19.4552 2.18114 19.5538 1.82528 19.7509 1.53904Z" fill="#00A755"/>
<path id="Vector_39" d="M19.7509 1.53989C19.9784 1.20724 20.3347 1.02157 20.6532 0.975153C20.9716 0.928738 21.2522 1.02157 21.3355 1.23044C21.4493 1.52442 20.9337 1.81065 20.6456 2.16652C20.2285 2.6771 20.0921 2.81635 19.7812 2.86277C19.5613 2.89371 19.4552 2.70804 19.4552 2.43728C19.4552 2.16652 19.5538 1.81839 19.7509 1.53215V1.53989Z" fill="#00A856"/>
<path id="Vector_40" d="M19.7585 1.53883C19.9859 1.21391 20.3347 1.02825 20.6456 0.981831C20.9564 0.935412 21.2369 1.02051 21.3204 1.23712C21.4265 1.52336 20.9261 1.80959 20.638 2.16546C20.2209 2.6683 20.0845 2.80755 19.7888 2.85397C19.5765 2.88491 19.4703 2.69924 19.4703 2.43622C19.4703 2.17319 19.5689 1.82506 19.7585 1.54657V1.53883Z" fill="#00A958"/>
<path id="Vector_41" d="M19.7659 1.54029C19.9858 1.21537 20.3345 1.03744 20.6378 0.991029C20.9411 0.94461 21.2217 1.02971 21.2975 1.23859C21.4036 1.51708 20.9108 1.80332 20.6303 2.15145C20.2208 2.64655 20.0844 2.7858 19.7962 2.82448C19.5839 2.85543 19.4854 2.66976 19.4778 2.40674C19.4702 2.14371 19.5764 1.80332 19.7659 1.53256V1.54029Z" fill="#00AA59"/>
<path id="Vector_42" d="M19.7735 1.53866C19.9934 1.22148 20.327 1.04355 20.6378 0.997131C20.9487 0.950716 21.2141 1.03581 21.2899 1.24469C21.3961 1.51545 20.9108 1.80169 20.6303 2.14207C20.2284 2.62945 20.0919 2.7687 19.8038 2.80738C19.5915 2.83832 19.4929 2.6604 19.4929 2.39737C19.4929 2.13434 19.5915 1.80942 19.7735 1.53866Z" fill="#00AB5A"/>
<path id="Vector_43" d="M19.7811 1.53829C19.9934 1.22111 20.3271 1.05092 20.6303 1.0045C20.9336 0.958081 21.1914 1.04318 21.2748 1.24432C21.3734 1.50735 20.9109 1.79358 20.6303 2.12624C20.2361 2.59814 20.0996 2.73739 19.8191 2.7838C19.6143 2.81475 19.5157 2.63682 19.5157 2.38153C19.5157 2.12624 19.6067 1.80132 19.7963 1.53056L19.7811 1.53829Z" fill="#09AC5C"/>
<path id="Vector_44" d="M19.7887 1.53839C20.001 1.22894 20.327 1.05875 20.6228 1.02007C20.9185 0.981391 21.1763 1.05875 21.2521 1.25989C21.3507 1.52292 20.8957 1.79368 20.6152 2.12633C20.2285 2.5905 20.0844 2.72975 19.8115 2.77617C19.6068 2.80711 19.5158 2.62918 19.5082 2.38163C19.5006 2.13407 19.5992 1.80915 19.7812 1.54613L19.7887 1.53839Z" fill="#1FAE5D"/>
<path id="Vector_45" d="M19.7963 1.53923C20.001 1.23753 20.327 1.06733 20.6151 1.02865C20.9032 0.989972 21.161 1.06733 21.2368 1.26074C21.3354 1.51603 20.8881 1.78679 20.6151 2.11171C20.236 2.56814 20.092 2.70739 19.8266 2.74607C19.6294 2.77701 19.5309 2.60682 19.5309 2.35926C19.5309 2.11171 19.6219 1.79452 19.7963 1.53923Z" fill="#2CAF5F"/>
<path id="Vector_46" d="M19.8038 1.53882C20.0085 1.23712 20.327 1.07466 20.6075 1.03597C20.8881 0.997299 21.1458 1.07466 21.2217 1.26806C21.3126 1.51561 20.8805 1.78638 20.6075 2.1113C20.236 2.55999 20.0919 2.69924 19.8265 2.73792C19.6294 2.76887 19.5385 2.59867 19.5385 2.35885C19.5385 2.11903 19.6294 1.80185 19.8038 1.5543V1.53882Z" fill="#34B060"/>
<path id="Vector_47" d="M19.8115 1.53906C20.0086 1.24508 20.3271 1.08263 20.6076 1.04395C20.8881 1.00527 21.1384 1.08263 21.2066 1.2683C21.2976 1.50811 20.873 1.77888 20.6076 2.09606C20.2437 2.52928 20.092 2.67626 19.8418 2.71495C19.6523 2.74589 19.5537 2.5757 19.5537 2.33588C19.5537 2.09606 19.6447 1.79435 19.8115 1.53906Z" fill="#3CB162"/>
<path id="Vector_48" d="M19.8191 1.53987C20.0162 1.25363 20.3271 1.09117 20.6 1.05249C20.873 1.01381 21.1232 1.09117 21.1915 1.27684C21.2824 1.51666 20.8654 1.77969 20.6 2.08913C20.2437 2.51461 20.092 2.65387 19.8418 2.69255C19.6523 2.72349 19.5613 2.55329 19.5613 2.32122C19.5613 2.08913 19.6447 1.78742 19.8191 1.53987Z" fill="#43B363"/>
<path id="Vector_49" d="M19.8267 1.53888C20.0238 1.25265 20.3195 1.09792 20.5925 1.05924C20.8655 1.02056 21.1005 1.09792 21.1763 1.27585C21.2597 1.50794 20.8579 1.77097 20.6001 2.07267C20.2513 2.49042 20.0997 2.62967 19.8571 2.66835C19.6675 2.6993 19.5841 2.53684 19.5841 2.30475C19.5841 2.07267 19.6675 1.7787 19.8343 1.53888H19.8267Z" fill="#4AB465"/>
<path id="Vector_50" d="M19.8342 1.53847C20.0238 1.25997 20.3195 1.10525 20.5848 1.06657C20.8502 1.02789 21.0852 1.10525 21.1535 1.28318C21.2369 1.50752 20.8426 1.76281 20.5848 2.06452C20.2436 2.47454 20.0844 2.61378 19.8494 2.65247C19.6674 2.68341 19.5764 2.52095 19.5764 2.29661C19.5764 2.07226 19.6598 1.77829 19.8191 1.53847H19.8342Z" fill="#50B567"/>
<path id="Vector_51" d="M19.8343 1.53871C20.0239 1.26794 20.312 1.11322 20.5773 1.07454C20.8427 1.03586 21.0702 1.11322 21.1384 1.28341C21.2218 1.50002 20.8351 1.75532 20.5849 2.04929C20.2437 2.44383 20.0921 2.59081 19.8646 2.62176C19.6826 2.65271 19.5992 2.49025 19.5992 2.27364C19.5992 2.05703 19.6826 1.76305 19.8419 1.53097L19.8343 1.53871Z" fill="#55B768"/>
<path id="Vector_52" d="M19.8418 1.53887C20.0238 1.26811 20.3119 1.12112 20.5697 1.08244C20.8275 1.04376 21.0549 1.11339 21.1232 1.29132C21.2066 1.50019 20.8275 1.75548 20.5773 2.04172C20.2436 2.42852 20.092 2.57551 19.8721 2.60645C19.6978 2.62966 19.6143 2.48268 19.6068 2.26607C19.5992 2.04945 19.6902 1.76322 19.8418 1.53887Z" fill="#5BB86A"/>
<path id="Vector_53" d="M19.8494 1.53973C20.0314 1.2767 20.3119 1.12971 20.5621 1.09103C20.8123 1.05235 21.0398 1.12197 21.1005 1.29217C21.1763 1.50105 20.8123 1.7486 20.5697 2.03484C20.2437 2.41391 20.092 2.56089 19.8722 2.59184C19.6978 2.61504 19.6144 2.46806 19.6144 2.25145C19.6144 2.03484 19.6902 1.76408 19.8494 1.53973Z" fill="#60B96C"/>
<path id="Vector_54" d="M19.8569 1.5381C20.0313 1.2828 20.3118 1.13582 20.5544 1.09714C20.797 1.05846 21.0245 1.12808 21.0852 1.29828C21.161 1.49941 20.8046 1.74697 20.562 2.02547C20.2435 2.3968 20.0843 2.53606 19.8796 2.567C19.7128 2.5902 19.6294 2.44322 19.6294 2.23435C19.6294 2.02547 19.7052 1.75471 19.8569 1.53036V1.5381Z" fill="#65BA6D"/>
<path id="Vector_55" d="M19.8647 1.53956C20.0391 1.28427 20.312 1.14502 20.5546 1.10634C20.7972 1.06766 21.0095 1.13728 21.0702 1.29974C21.146 1.49314 20.7972 1.73296 20.5622 2.01146C20.2513 2.36732 20.0921 2.51431 19.8874 2.54525C19.7206 2.56846 19.6448 2.42921 19.6372 2.22033C19.6296 2.01146 19.713 1.74843 19.8647 1.53182V1.53956Z" fill="#69BC6F"/>
<path id="Vector_56" d="M19.872 1.53965C20.0388 1.29209 20.3042 1.15284 20.5468 1.1219C20.7894 1.09095 20.9941 1.15284 21.0548 1.3153C21.1231 1.50097 20.7894 1.74079 20.5544 2.01155C20.2511 2.35967 20.0919 2.50666 19.8948 2.5376C19.7279 2.56081 19.6521 2.42156 19.6521 2.22043C19.6521 2.01928 19.7279 1.75626 19.872 1.54738V1.53965Z" fill="#6DBD71"/>
<path id="Vector_57" d="M19.8796 1.53988C20.0464 1.29232 20.3042 1.16081 20.5393 1.12987C20.7743 1.09892 20.9791 1.16081 21.0397 1.31553C21.1079 1.5012 20.7819 1.73328 20.5544 1.99631C20.2588 2.3367 20.0919 2.48368 19.9024 2.51463C19.7431 2.53784 19.6674 2.39859 19.6674 2.20519C19.6674 2.01178 19.7431 1.74875 19.8796 1.54762V1.53988Z" fill="#72BE73"/>
<path id="Vector_58" d="M19.8872 1.53764C20.054 1.29782 20.3042 1.16631 20.5317 1.13536C20.7591 1.10442 20.9639 1.16631 21.017 1.32103C21.0852 1.49896 20.7668 1.73104 20.5393 1.98633C20.2511 2.31898 20.0844 2.46597 19.9024 2.48918C19.7431 2.51239 19.6674 2.37314 19.6674 2.17973C19.6674 1.98633 19.7431 1.73878 19.8796 1.5299L19.8872 1.53764Z" fill="#76C075"/>
<path id="Vector_59" d="M19.8948 1.53787C20.054 1.30579 20.3042 1.17427 20.5241 1.14333C20.744 1.11239 20.9487 1.17427 21.0018 1.32126C21.0624 1.49146 20.7591 1.72354 20.5393 1.97883C20.2587 2.29601 20.0919 2.443 19.9099 2.47394C19.7583 2.49715 19.6825 2.36564 19.6825 2.17223C19.6825 1.97883 19.7507 1.73901 19.8872 1.53787H19.8948Z" fill="#7AC177"/>
<path id="Vector_60" d="M19.9025 1.53929C20.0617 1.30721 20.3043 1.18343 20.5241 1.15249C20.7441 1.12154 20.9336 1.18343 20.9943 1.33042C21.0549 1.49288 20.7592 1.72496 20.5393 1.97251C20.2664 2.28196 20.0996 2.42895 19.9252 2.45989C19.7735 2.4831 19.7053 2.35158 19.7053 2.16592C19.7053 1.98025 19.7735 1.74043 19.91 1.54703L19.9025 1.53929Z" fill="#7EC379"/>
<path id="Vector_61" d="M19.91 1.54014C20.0617 1.31579 20.3043 1.19201 20.5166 1.16107C20.7289 1.13012 20.9185 1.19201 20.9715 1.33126C21.0322 1.48598 20.7441 1.71033 20.5318 1.95789C20.2664 2.25959 20.092 2.40658 19.9328 2.42979C19.7887 2.453 19.7129 2.32148 19.7129 2.14355C19.7129 1.96562 19.7811 1.7258 19.91 1.54014Z" fill="#82C47B"/>
<path id="Vector_62" d="M19.9176 1.54034C20.0692 1.32373 20.3043 1.19995 20.509 1.169C20.7137 1.13806 20.9033 1.19995 20.9563 1.3392C21.017 1.49392 20.7365 1.71053 20.5242 1.95035C20.2664 2.24432 20.092 2.39131 19.9328 2.41452C19.7887 2.43772 19.7205 2.31395 19.7205 2.13602C19.7205 1.95808 19.7887 1.726 19.9176 1.54034Z" fill="#86C57C"/>
<path id="Vector_63" d="M19.9177 1.53752C20.0618 1.32091 20.2892 1.20487 20.4939 1.17392C20.6987 1.14298 20.8806 1.20487 20.9337 1.33638C20.9868 1.48337 20.7214 1.69998 20.5167 1.93206C20.2665 2.2183 20.0921 2.36529 19.9405 2.38849C19.7964 2.4117 19.7357 2.28792 19.7357 2.11773C19.7357 1.94753 19.804 1.72319 19.9253 1.53752H19.9177Z" fill="#8AC77E"/>
<path id="Vector_64" d="M19.9253 1.53892C20.0693 1.33005 20.2892 1.21401 20.4939 1.18306C20.6987 1.15212 20.8731 1.20627 20.9185 1.34552C20.9716 1.48477 20.7138 1.70138 20.5091 1.92573C20.2589 2.19649 20.0845 2.35121 19.9405 2.36669C19.804 2.38989 19.7357 2.26612 19.7357 2.09592C19.7357 1.92573 19.7964 1.70912 19.9177 1.53119L19.9253 1.53892Z" fill="#8EC881"/>
<path id="Vector_65" d="M19.9328 1.54039C20.0693 1.33925 20.2892 1.22321 20.4863 1.19226C20.6834 1.16132 20.8578 1.21547 20.9033 1.34699C20.9564 1.4785 20.7062 1.69511 20.509 1.91172C20.2664 2.17475 20.092 2.32173 19.9556 2.34494C19.8191 2.36815 19.7584 2.25211 19.7584 2.08192C19.7584 1.91172 19.8191 1.70285 19.9404 1.53265L19.9328 1.54039Z" fill="#91CA83"/>
<path id="Vector_66" d="M19.9405 1.53814C20.0769 1.33701 20.2892 1.2287 20.4788 1.19776C20.6683 1.16681 20.8352 1.22096 20.8882 1.35248C20.9337 1.47626 20.6987 1.69287 20.5016 1.90948C20.2665 2.16477 20.0921 2.31175 19.9556 2.33496C19.8192 2.35817 19.7661 2.24213 19.7585 2.07967C19.7509 1.91721 19.8192 1.70834 19.9329 1.53814H19.9405Z" fill="#95CB85"/>
<path id="Vector_67" d="M19.9478 1.53839C20.0843 1.34499 20.289 1.23669 20.471 1.20574C20.653 1.17479 20.8198 1.22895 20.8653 1.35273C20.9107 1.4765 20.6833 1.67764 20.4937 1.89426C20.2663 2.14181 20.0919 2.2888 19.963 2.312C19.8341 2.33521 19.7734 2.21917 19.7734 2.06445C19.7734 1.90972 19.8341 1.70085 19.9478 1.53839Z" fill="#99CD87"/>
<path id="Vector_68" d="M19.9554 1.53846C20.0843 1.34506 20.289 1.24449 20.471 1.22128C20.6529 1.19807 20.8121 1.24449 20.8577 1.36827C20.9031 1.48431 20.6833 1.68545 20.4937 1.89432C20.2738 2.12641 20.0919 2.28113 19.9705 2.2966C19.8492 2.31207 19.7886 2.20377 19.7886 2.05678C19.7886 1.9098 19.8492 1.70866 19.9554 1.5462V1.53846Z" fill="#9CCE89"/>
<path id="Vector_69" d="M19.9631 1.53931C20.092 1.35364 20.2891 1.25307 20.4635 1.22986C20.6379 1.20665 20.7971 1.25307 20.8426 1.36912C20.8805 1.47742 20.6834 1.67856 20.4938 1.8797C20.2815 2.10404 20.0995 2.25876 19.9858 2.27424C19.8645 2.28971 19.8038 2.18914 19.8038 2.04215C19.8038 1.89517 19.8569 1.70177 19.9631 1.53931Z" fill="#A0CF8B"/>
<path id="Vector_70" d="M19.9707 1.54072C20.092 1.36279 20.2815 1.26223 20.4559 1.23902C20.6303 1.21581 20.7819 1.26223 20.8198 1.37827C20.8577 1.47884 20.6682 1.67997 20.4787 1.87338C20.2739 2.08999 20.092 2.24471 19.9782 2.26018C19.8569 2.27566 19.8038 2.17509 19.8038 2.0281C19.8038 1.88112 19.8569 1.69545 19.9631 1.54072H19.9707Z" fill="#A3D18D"/>
<path id="Vector_71" d="M19.9781 1.53913C20.0995 1.3612 20.2815 1.26837 20.4483 1.24516C20.6151 1.22195 20.7591 1.26837 20.8046 1.37667C20.8425 1.47724 20.6605 1.67064 20.4786 1.85631C20.2815 2.06519 20.0919 2.21217 19.9933 2.22764C19.8796 2.24312 19.8265 2.14255 19.8265 2.00329C19.8265 1.86405 19.8796 1.67838 19.9781 1.53139V1.53913Z" fill="#A7D28F"/>
<path id="Vector_72" d="M19.9858 1.53872C20.0995 1.36852 20.2815 1.27569 20.4407 1.25248C20.5999 1.22927 20.744 1.27569 20.7895 1.384C20.8274 1.47683 20.653 1.67023 20.471 1.8559C20.2815 2.0493 20.0919 2.20402 20.0009 2.2195C19.8872 2.23497 19.8341 2.14213 19.8341 2.00288C19.8341 1.86363 19.8872 1.6857 19.9858 1.54645V1.53872Z" fill="#AAD491"/>
<path id="Vector_73" d="M19.9934 1.53895C20.1071 1.3765 20.2815 1.28366 20.4408 1.26045C20.6 1.23724 20.7365 1.28366 20.7744 1.38423C20.8047 1.46933 20.6455 1.66273 20.4711 1.84066C20.2967 2.01859 20.0995 2.18105 20.0086 2.19652C19.9024 2.212 19.8494 2.11916 19.8494 1.98765C19.8494 1.85613 19.9024 1.6782 19.9934 1.53895Z" fill="#ADD593"/>
<path id="Vector_74" d="M20.001 1.53976C20.1071 1.3773 20.2815 1.29221 20.4332 1.269C20.5848 1.24579 20.7213 1.29221 20.7592 1.39277C20.7895 1.47014 20.6378 1.6558 20.4635 1.83373C20.2891 2.01166 20.0995 2.16639 20.0161 2.17412C19.91 2.18959 19.8645 2.09676 19.8645 1.97298C19.8645 1.84921 19.91 1.67901 20.0085 1.53976H20.001Z" fill="#B1D696"/>
<path id="Vector_75" d="M20.0161 2.15095C19.9175 2.16643 19.8645 2.08133 19.8645 1.94982C19.8645 1.8183 19.91 1.66358 20.001 1.53206C20.1071 1.37734 20.2739 1.29225 20.418 1.26904C20.562 1.24583 20.6985 1.29225 20.7364 1.38508C20.7668 1.4547 20.6227 1.64037 20.4559 1.81057C20.2891 1.98076 20.0919 2.13548 20.0161 2.14322V2.15095Z" fill="#B4D898"/>
<path id="Vector_76" d="M21.3811 6.7995C21.3811 8.7722 19.8116 10.3658 17.8857 10.3658C15.9599 10.3658 14.3828 8.76447 14.3828 6.7995C14.3828 4.83453 15.9523 3.2254 17.8857 3.2254C19.8192 3.2254 21.3811 4.82676 21.3811 6.7995Z" fill="#005083"/>
<path id="Vector_77" d="M20.7593 6.79926C20.7593 8.42387 19.4704 9.73125 17.8781 9.73125C16.2859 9.73125 14.9969 8.41615 14.9969 6.79926C14.9969 5.18242 16.2859 3.85956 17.8781 3.85956C19.4704 3.85956 20.7593 5.1747 20.7593 6.79926Z" fill="#E60012"/>
<path id="Vector_78" d="M17.135 6.08595C16.4223 6.9833 16.263 7.16125 15.7171 7.24637C15.3532 7.30049 15.1788 6.9833 15.1713 6.53465C15.1637 6.08595 15.338 5.49797 15.6641 5.0261C16.0432 4.46907 16.6346 4.15964 17.1729 4.08228C17.7112 4.00492 18.1737 4.15191 18.3102 4.50778C18.5073 5.03382 17.6051 5.49025 17.135 6.08595Z" fill="#E60012"/>
<path id="Vector_79" d="M15.6718 5.02832C16.0509 4.47906 16.6347 4.17734 17.1579 4.09998C17.681 4.02262 18.1511 4.16961 18.28 4.52546C18.4772 5.04377 17.59 5.50024 17.12 6.08045C16.4148 6.97007 16.2556 7.14802 15.7173 7.22537C15.3533 7.27954 15.179 6.96235 15.179 6.52138C15.179 6.08045 15.3458 5.50024 15.6642 5.02832H15.6718Z" fill="#E60813"/>
<path id="Vector_80" d="M15.687 5.02551C16.0585 4.48398 16.6348 4.18227 17.158 4.10491C17.6811 4.02754 18.136 4.17453 18.2725 4.52265C18.462 5.02551 17.5901 5.48194 17.1276 6.06215C16.43 6.93632 16.2708 7.11427 15.7401 7.19162C15.3837 7.24578 15.2094 6.93632 15.2094 6.49535C15.2094 6.05442 15.3686 5.48966 15.687 5.02551Z" fill="#E61114"/>
<path id="Vector_81" d="M15.6944 5.02656C16.0583 4.49275 16.6345 4.19879 17.1425 4.12143C17.6505 4.04406 18.1055 4.19105 18.2419 4.53146C18.4315 5.02656 17.5672 5.47525 17.1122 6.04774C16.4222 6.90642 16.263 7.08437 15.7398 7.16944C15.3911 7.2236 15.2167 6.91414 15.2167 6.48094C15.2167 6.04774 15.3759 5.48298 15.6944 5.02656Z" fill="#E61815"/>
<path id="Vector_82" d="M15.7019 5.02736C16.0658 4.50132 16.6269 4.20733 17.1349 4.12997C17.6429 4.05261 18.0902 4.1996 18.2191 4.53999C18.4087 5.02736 17.5595 5.47606 17.1046 6.04077C16.4298 6.88405 16.2629 7.06968 15.7549 7.14707C15.4062 7.20119 15.2394 6.8995 15.2394 6.46629C15.2394 6.03305 15.3986 5.48379 15.7095 5.03509L15.7019 5.02736Z" fill="#E71E17"/>
<path id="Vector_83" d="M15.7096 5.02689C16.0659 4.50085 16.627 4.2146 17.1274 4.14498C17.6278 4.07536 18.0676 4.2146 18.1965 4.54725C18.3785 5.02689 17.5444 5.46786 17.0971 6.02485C16.4299 6.86035 16.263 7.03826 15.7626 7.11565C15.4214 7.16982 15.2546 6.86808 15.2546 6.4426C15.2546 6.01713 15.4139 5.46786 15.7172 5.02689H15.7096Z" fill="#E72418"/>
<path id="Vector_84" d="M15.7247 5.02682C16.0811 4.5085 16.627 4.23 17.1198 4.15264C17.6127 4.07528 18.0524 4.22226 18.1737 4.54718C18.3557 5.01909 17.5369 5.4523 17.0895 6.00928C16.4299 6.82934 16.2631 7.00724 15.7702 7.08463C15.429 7.13876 15.2698 6.83706 15.2622 6.41931C15.2547 6.00156 15.4139 5.46002 15.7172 5.01909L15.7247 5.02682Z" fill="#E7281A"/>
<path id="Vector_85" d="M15.7324 5.02748C16.0811 4.51689 16.627 4.2384 17.1123 4.16877C17.5976 4.09915 18.0297 4.23066 18.1587 4.56333C18.3331 5.02748 17.5294 5.46068 17.0896 6.00222C16.4375 6.80678 16.2707 6.99245 15.7854 7.06207C15.4518 7.11624 15.2926 6.82227 15.2851 6.41224C15.2774 6.00222 15.4367 5.46845 15.7324 5.0352V5.02748Z" fill="#E72D1B"/>
<path id="Vector_86" d="M15.7399 5.02711C16.0811 4.52424 16.6194 4.24576 17.0971 4.17614C17.5748 4.10651 17.9994 4.23802 18.1283 4.56296C18.3027 5.01938 17.5066 5.44486 17.0744 5.9864C16.4375 6.78319 16.2631 6.96114 15.7854 7.03848C15.4518 7.09265 15.3002 6.79868 15.2926 6.39638C15.285 5.99412 15.4442 5.46031 15.7399 5.03483V5.02711Z" fill="#E7311D"/>
<path id="Vector_87" d="M15.7475 5.02632C16.0887 4.53123 16.6118 4.26045 17.0895 4.19083C17.5672 4.1212 17.9842 4.25271 18.1055 4.5699C18.2723 5.0186 17.499 5.44408 17.0668 5.97012C16.4374 6.75146 16.263 6.93713 15.793 7.00675C15.467 7.05319 15.3077 6.77468 15.3077 6.37242C15.3077 5.97012 15.4593 5.4518 15.7475 5.02632Z" fill="#E8341E"/>
<path id="Vector_88" d="M15.7627 5.02774C16.0963 4.54037 16.6195 4.26961 17.082 4.19998C17.5445 4.13035 17.9616 4.26187 18.0829 4.57904C18.2496 5.02002 17.4839 5.43777 17.0593 5.96381C16.4376 6.7297 16.2632 6.91537 15.8006 6.98499C15.4822 7.03139 15.323 6.75292 15.323 6.35834C15.323 5.96381 15.467 5.45322 15.7552 5.03547L15.7627 5.02774Z" fill="#E83820"/>
<path id="Vector_89" d="M15.7703 5.02544C16.0964 4.5458 16.6119 4.27505 17.0744 4.21317C17.5369 4.15127 17.9464 4.27505 18.0601 4.58451C18.2269 5.01772 17.4763 5.42774 17.0517 5.94606C16.4375 6.70417 16.2631 6.88212 15.8082 6.95174C15.4898 6.99818 15.3381 6.72739 15.3381 6.33286C15.3381 5.93833 15.4822 5.43547 15.7627 5.02544H15.7703Z" fill="#E83B21"/>
<path id="Vector_90" d="M15.7778 5.02537C16.1038 4.55345 16.6118 4.29044 17.0667 4.22081C17.5216 4.15119 17.9235 4.2827 18.0372 4.58439C18.1964 5.00992 17.461 5.4199 17.0439 5.93049C16.445 6.67315 16.263 6.85883 15.8232 6.92072C15.5124 6.96712 15.3607 6.69637 15.3607 6.30957C15.3607 5.92276 15.5048 5.42767 15.7853 5.01764L15.7778 5.02537Z" fill="#E83E23"/>
<path id="Vector_91" d="M15.7855 5.02607C16.104 4.5542 16.6044 4.29889 17.0518 4.237C17.4991 4.17512 17.8934 4.29889 18.0147 4.60059C18.1739 5.01835 17.446 5.42065 17.0366 5.92347C16.4452 6.65068 16.2632 6.83631 15.8311 6.90598C15.5202 6.95237 15.3761 6.68163 15.3761 6.30255C15.3761 5.92347 15.5202 5.42837 15.7931 5.03384L15.7855 5.02607Z" fill="#E84125"/>
<path id="Vector_92" d="M15.8005 5.0257C16.1189 4.56155 16.6117 4.30625 17.0515 4.24437C17.4913 4.18247 17.8855 4.30625 17.9993 4.60023C18.1509 5.01025 17.4458 5.41251 17.0363 5.90765C16.4525 6.61937 16.2706 6.81277 15.8459 6.87466C15.5427 6.92106 15.3986 6.65804 15.391 6.27896C15.3834 5.89988 15.5275 5.42023 15.8005 5.0257Z" fill="#E94426"/>
<path id="Vector_93" d="M15.8084 5.02736C16.1192 4.57094 16.6045 4.32338 17.0367 4.26149C17.4688 4.1996 17.8555 4.32338 17.9693 4.60961C18.1209 5.01191 17.4234 5.40644 17.0215 5.89381C16.4453 6.5978 16.2633 6.78348 15.8463 6.84537C15.5506 6.89177 15.4065 6.62875 15.399 6.26516C15.3914 5.90154 15.5354 5.42189 15.8008 5.03509L15.8084 5.02736Z" fill="#E94728"/>
<path id="Vector_94" d="M15.8157 5.02629C16.119 4.57759 16.5967 4.33005 17.0289 4.26816C17.461 4.20627 17.8401 4.32231 17.9463 4.61626C18.0979 5.00307 17.4156 5.39764 17.0137 5.88501C16.445 6.57351 16.2631 6.75919 15.8536 6.82108C15.5579 6.86748 15.4215 6.61218 15.4139 6.2486C15.4063 5.88501 15.5503 5.4131 15.8081 5.03402L15.8157 5.02629Z" fill="#E9492A"/>
<path id="Vector_95" d="M15.8233 5.0263C16.1266 4.58533 16.5967 4.34551 17.0213 4.27588C17.4459 4.20626 17.8174 4.33003 17.9236 4.61628C18.0676 4.99536 17.4004 5.38989 17.0062 5.86176C16.4526 6.53481 16.2631 6.72821 15.8613 6.79011C15.5732 6.83655 15.4291 6.58125 15.4291 6.22539C15.4291 5.86953 15.558 5.40534 15.8233 5.0263Z" fill="#E94C2C"/>
<path id="Vector_96" d="M15.8384 5.02697C16.1341 4.59376 16.5967 4.35394 17.0137 4.29204C17.4307 4.23016 17.7946 4.3462 17.9008 4.62471C18.0448 4.99602 17.3852 5.38283 17.0061 5.84702C16.4602 6.5123 16.2706 6.69797 15.8763 6.75987C15.5883 6.80626 15.4518 6.55097 15.4518 6.20288C15.4518 5.85474 15.5807 5.39832 15.8384 5.02697Z" fill="#EA4F2D"/>
<path id="Vector_97" d="M15.8461 5.02655C16.1418 4.60107 16.5967 4.36126 17.0062 4.29937C17.4156 4.23748 17.7796 4.35352 17.8857 4.63202C18.0222 4.99561 17.3853 5.37469 17.0062 5.83884C16.4679 6.4887 16.2783 6.68211 15.8916 6.73623C15.6111 6.78267 15.4746 6.5351 15.4746 6.18697C15.4746 5.83883 15.6035 5.39018 15.8537 5.02655H15.8461Z" fill="#EA512F"/>
<path id="Vector_98" d="M15.8537 5.01785C16.1418 4.6001 16.5891 4.36801 16.991 4.30612C17.3929 4.24424 17.7492 4.36028 17.8554 4.63104C17.9918 4.9869 17.3625 5.36598 16.991 5.81468C16.4603 6.44901 16.2707 6.64241 15.8916 6.69658C15.6187 6.73525 15.4822 6.49545 15.4822 6.15504C15.4822 5.81468 15.611 5.37371 15.8537 5.01012V5.01785Z" fill="#EA5431"/>
<path id="Vector_99" d="M15.8614 5.0187C16.1419 4.60094 16.5893 4.3766 16.9835 4.31471C17.3778 4.25282 17.7266 4.36887 17.8327 4.63189C17.9616 4.98002 17.355 5.35134 16.9835 5.80003C16.468 6.41891 16.2708 6.61232 15.9069 6.66648C15.6339 6.70515 15.505 6.47308 15.505 6.13272C15.505 5.79231 15.6264 5.3591 15.869 5.01097L15.8614 5.0187Z" fill="#EA5633"/>
<path id="Vector_100" d="M15.8766 5.01879C16.1571 4.60877 16.5893 4.38444 16.976 4.33029C17.3627 4.27613 17.7115 4.38444 17.81 4.64748C17.9389 4.98785 17.3399 5.3592 16.976 5.7924C16.468 6.40356 16.2709 6.59696 15.9145 6.65113C15.6491 6.6898 15.5202 6.45773 15.5126 6.12504C15.5051 5.7924 15.6339 5.36693 15.8766 5.01879Z" fill="#EA5934"/>
<path id="Vector_101" d="M15.8841 5.01689C16.1571 4.61463 16.5817 4.39801 16.9684 4.33612C17.3551 4.27423 17.6887 4.39027 17.7873 4.64558C17.9161 4.97822 17.3247 5.3418 16.9684 5.77505C16.468 6.37071 16.2708 6.56411 15.922 6.61828C15.6567 6.65695 15.5354 6.4326 15.5278 6.10769C15.5202 5.78277 15.6491 5.36502 15.8841 5.02462V5.01689Z" fill="#EB5B36"/>
<path id="Vector_102" d="M15.8915 5.0182C16.1645 4.62367 16.5815 4.40705 16.9606 4.3529C17.3397 4.29875 17.6733 4.39931 17.7643 4.65462C17.8856 4.97953 17.3169 5.33539 16.9606 5.76087C16.4677 6.34108 16.2706 6.53448 15.9294 6.58865C15.6716 6.62732 15.5427 6.40297 15.5427 6.08578C15.5427 5.76859 15.664 5.35084 15.8915 5.0182Z" fill="#EB5D38"/>
<path id="Vector_103" d="M15.899 5.01966C16.1644 4.63286 16.5739 4.41625 16.9454 4.3621C17.3169 4.30794 17.6429 4.40851 17.7415 4.65608C17.8628 4.97326 17.3017 5.32912 16.9529 5.74688C16.4753 6.31931 16.2706 6.51272 15.9369 6.55916C15.6792 6.59783 15.5579 6.37348 15.5579 6.06402C15.5579 5.7546 15.6716 5.34457 15.899 5.01194V5.01966Z" fill="#EB603A"/>
<path id="Vector_104" d="M15.9143 5.01762C16.1721 4.63854 16.5816 4.42968 16.9455 4.37552C17.3094 4.32137 17.6279 4.42194 17.7264 4.66948C17.8402 4.97894 17.3018 5.32708 16.9531 5.73706C16.483 6.29409 16.2707 6.48749 15.9522 6.54162C15.702 6.58033 15.5807 6.36371 15.5807 6.05425C15.5807 5.74483 15.6944 5.35026 15.9143 5.02534V5.01762Z" fill="#EB623C"/>
<path id="Vector_105" d="M15.9219 5.01724C16.1796 4.64593 16.574 4.43704 16.9303 4.38289C17.2866 4.32874 17.6051 4.42931 17.6961 4.66911C17.8098 4.97085 17.2791 5.31894 16.9379 5.72124C16.4754 6.26277 16.2631 6.4639 15.9522 6.5103C15.7096 6.54901 15.5883 6.33239 15.5883 6.0307C15.5883 5.72896 15.702 5.33443 15.9219 5.01724Z" fill="#EC653E"/>
<path id="Vector_106" d="M15.9296 5.018C16.1797 4.65441 16.574 4.44551 16.9228 4.39912C17.2716 4.3527 17.5824 4.44551 17.6734 4.67763C17.7872 4.9716 17.264 5.31196 16.9304 5.70654C16.4755 6.24031 16.2632 6.43371 15.9599 6.48015C15.7173 6.51882 15.6035 6.30992 15.6035 6.00823C15.6035 5.70654 15.7173 5.32746 15.9296 5.01027V5.018Z" fill="#EC6740"/>
<path id="Vector_107" d="M15.9371 5.02032C16.1797 4.66446 16.5664 4.46333 16.9076 4.40918C17.2488 4.35502 17.5597 4.4556 17.6431 4.68768C17.7492 4.96619 17.2488 5.30656 16.9152 5.70109C16.4754 6.21945 16.2556 6.41281 15.9674 6.45925C15.7324 6.49792 15.6187 6.28907 15.6187 5.9951C15.6187 5.70109 15.7248 5.32205 15.9371 5.02032Z" fill="#EC6942"/>
<path id="Vector_108" d="M15.9521 5.01741C16.1947 4.66155 16.5662 4.46815 16.9074 4.42174C17.2486 4.37532 17.5443 4.46815 17.6277 4.69249C17.7339 4.96324 17.2411 5.30365 16.915 5.68273C16.4828 6.18555 16.263 6.38672 15.9824 6.42539C15.7474 6.46407 15.6412 6.25521 15.6337 5.96897C15.6261 5.68273 15.7398 5.31137 15.9445 5.00968L15.9521 5.01741Z" fill="#EC6C44"/>
<path id="Vector_109" d="M15.96 5.01917C16.195 4.67108 16.5666 4.4854 16.9002 4.43123C17.2338 4.37709 17.5219 4.47767 17.6129 4.69425C17.7115 4.95732 17.2414 5.28996 16.9153 5.66904C16.4908 6.15641 16.2709 6.35754 15.9979 6.40393C15.7705 6.44265 15.6643 6.24148 15.6567 5.963C15.6492 5.68449 15.7629 5.3209 15.9676 5.01917H15.96Z" fill="#ED6E46"/>
<path id="Vector_110" d="M15.9675 5.01988C16.2025 4.67952 16.5589 4.49384 16.8849 4.4474C17.211 4.401 17.4991 4.49384 17.5825 4.71046C17.6811 4.96576 17.2185 5.2984 16.9001 5.66198C16.4831 6.14163 16.2632 6.34275 15.9978 6.38143C15.7779 6.41237 15.6642 6.21897 15.6642 5.94822C15.6642 5.67748 15.7628 5.31385 15.9675 5.02761V5.01988Z" fill="#ED7048"/>
<path id="Vector_111" d="M15.9751 5.01762C16.2026 4.68498 16.559 4.4993 16.8774 4.4529C17.1958 4.40648 17.4764 4.49158 17.5598 4.7082C17.6507 4.95573 17.211 5.28064 16.8926 5.64427C16.4907 6.10842 16.2632 6.30955 16.0054 6.34822C15.7856 6.37916 15.6794 6.19353 15.6794 5.92274C15.6794 5.65199 15.778 5.30386 15.9751 5.01762Z" fill="#ED724A"/>
<path id="Vector_112" d="M15.99 5.01868C16.2099 4.69376 16.5587 4.51585 16.8696 4.46941C17.1804 4.42301 17.461 4.50813 17.5368 4.71698C17.6278 4.95678 17.1956 5.27397 16.8847 5.62983C16.4905 6.07853 16.263 6.27966 16.0128 6.31837C15.8005 6.34932 15.6943 6.16364 15.6943 5.90062C15.6943 5.6376 15.7929 5.29719 15.9825 5.01868H15.99Z" fill="#ED754D"/>
<path id="Vector_113" d="M15.9977 5.01947C16.2176 4.70233 16.5588 4.52437 16.8621 4.47798C17.1654 4.43154 17.4383 4.51665 17.5142 4.7255C17.6051 4.95762 17.1806 5.27476 16.8772 5.6229C16.4906 6.06387 16.2631 6.265 16.0205 6.29595C15.8082 6.32689 15.7096 6.14894 15.7096 5.88592C15.7096 5.6229 15.8082 5.29026 15.9902 5.01947H15.9977Z" fill="#EE774F"/>
<path id="Vector_114" d="M16.0053 5.0184C16.2176 4.70898 16.5512 4.53103 16.8545 4.49236C17.1577 4.45369 17.4155 4.53103 17.499 4.7322C17.5823 4.95655 17.1805 5.26597 16.8772 5.60638C16.5057 6.03186 16.2706 6.23298 16.0356 6.27166C15.8309 6.3026 15.7323 6.12469 15.7323 5.8694C15.7323 5.6141 15.8233 5.28919 16.0129 5.0184H16.0053Z" fill="#EE7951"/>
<path id="Vector_115" d="M16.0205 5.01899C16.2328 4.71725 16.5588 4.54707 16.8469 4.50063C17.1351 4.45423 17.4004 4.53934 17.4763 4.73275C17.5597 4.94933 17.1654 5.25879 16.8697 5.5837C16.5058 5.99373 16.2707 6.20258 16.0433 6.23353C15.8461 6.26447 15.7476 6.08657 15.7476 5.839C15.7476 5.59143 15.8386 5.26651 16.0205 5.01122V5.01899Z" fill="#EE7B53"/>
<path id="Vector_116" d="M16.028 5.01902C16.2327 4.71733 16.5511 4.55487 16.8393 4.5162C17.1274 4.47753 17.3776 4.55487 17.4534 4.74827C17.5292 4.95717 17.1577 5.25886 16.862 5.58378C16.5057 5.98603 16.2706 6.18721 16.0583 6.21815C15.8612 6.2491 15.7702 6.07887 15.7626 5.83135C15.755 5.58378 15.8536 5.27431 16.028 5.01902Z" fill="#EE7E55"/>
<path id="Vector_117" d="M16.0356 5.01865C16.2327 4.72469 16.5436 4.56223 16.8241 4.52356C17.1047 4.48489 17.3549 4.56223 17.4231 4.74791C17.4989 4.94904 17.135 5.243 16.8469 5.56019C16.4981 5.947 16.2631 6.14813 16.0583 6.17907C15.8687 6.21002 15.7778 6.03984 15.7702 5.80776C15.7626 5.57569 15.8612 5.26622 16.028 5.01093L16.0356 5.01865Z" fill="#EF8058"/>
<path id="Vector_118" d="M16.0433 5.0185C16.2404 4.73225 16.5437 4.57757 16.8167 4.53885C17.0897 4.50018 17.3323 4.57757 17.4005 4.75547C17.4687 4.93343 17.12 5.24284 16.8394 5.55231C16.5058 5.92362 16.2632 6.13251 16.066 6.16346C15.8765 6.19441 15.7855 6.03195 15.7855 5.79983C15.7855 5.56776 15.8689 5.26606 16.0357 5.02622L16.0433 5.0185Z" fill="#EF825A"/>
<path id="Vector_119" d="M16.0582 5.01929C16.2478 4.74082 16.5435 4.58609 16.8088 4.54741C17.0742 4.5087 17.3092 4.58609 17.3775 4.76399C17.4457 4.94195 17.1121 5.23591 16.8315 5.53761C16.5055 5.90123 16.2629 6.10236 16.0734 6.13331C15.8914 6.16426 15.8004 6.0018 15.8004 5.77745C15.8004 5.5531 15.8838 5.25913 16.0506 5.01929H16.0582Z" fill="#EF845C"/>
<path id="Vector_120" d="M16.0659 5.01819C16.2554 4.7474 16.5435 4.59272 16.8013 4.56177C17.0591 4.53082 17.2942 4.59272 17.3624 4.77062C17.4306 4.94858 17.1046 5.23482 16.8392 5.52878C16.5208 5.87687 16.2782 6.07805 16.0962 6.10899C15.9142 6.13994 15.8308 5.97748 15.8308 5.76086C15.8308 5.54424 15.9142 5.25799 16.0734 5.02592L16.0659 5.01819Z" fill="#F0865F"/>
<path id="Vector_121" d="M16.0734 5.01812C16.2554 4.75506 16.5359 4.60809 16.7937 4.56942C17.0515 4.53075 17.2714 4.60037 17.3396 4.77055C17.4079 4.94073 17.097 5.21925 16.8316 5.50549C16.5208 5.83813 16.2781 6.04703 16.1037 6.0702C15.9293 6.10115 15.8459 5.94642 15.8459 5.72984C15.8459 5.51322 15.9293 5.2347 16.081 5.01035L16.0734 5.01812Z" fill="#F08961"/>
<path id="Vector_122" d="M16.0811 5.01955C16.2555 4.76426 16.536 4.61725 16.7787 4.57858C17.0213 4.53991 17.2488 4.60952 17.3094 4.77971C17.3701 4.93444 17.0744 5.21295 16.8166 5.49919C16.5209 5.81634 16.2707 6.02524 16.1039 6.04846C15.9371 6.07163 15.8536 5.92467 15.8536 5.71577C15.8536 5.50692 15.9295 5.23613 16.0811 5.01178V5.01955Z" fill="#F08B64"/>
<path id="Vector_123" d="M16.0962 5.01877C16.2706 4.7712 16.536 4.63196 16.7786 4.59329C17.0213 4.55457 17.2336 4.62423 17.2942 4.78669C17.3473 4.93365 17.0743 5.21217 16.8165 5.48291C16.5284 5.79238 16.2782 6.00123 16.119 6.02445C15.9522 6.04767 15.8763 5.90839 15.8763 5.69954C15.8763 5.49064 15.9522 5.22762 16.1038 5.01877H16.0962Z" fill="#F08D66"/>
<path id="Vector_124" d="M16.1038 5.01778C16.2706 4.77021 16.5284 4.6387 16.7634 4.60003C16.9985 4.56136 17.2032 4.63098 17.2638 4.78571C17.3169 4.92495 17.0515 5.19569 16.8013 5.46648C16.5208 5.76045 16.2706 5.9693 16.1265 5.99252C15.9673 6.01574 15.8915 5.87651 15.8839 5.67534C15.8763 5.47421 15.9597 5.21891 16.1038 5.01006V5.01778Z" fill="#F18F68"/>
<path id="Vector_125" d="M16.1115 5.01789C16.2707 4.77804 16.5285 4.64653 16.7559 4.61559C16.9834 4.58464 17.1881 4.64653 17.2412 4.80126C17.2943 4.93277 17.0365 5.20352 16.7938 5.45882C16.5285 5.73733 16.2707 5.94618 16.1342 5.96941C15.975 5.99263 15.8992 5.86112 15.8992 5.66771C15.8992 5.47431 15.9674 5.22674 16.1115 5.01789Z" fill="#F1916B"/>
<path id="Vector_126" d="M16.1191 5.0178C16.2783 4.78573 16.521 4.66194 16.7484 4.62327C16.9759 4.5846 17.1654 4.65422 17.2261 4.80118C17.2716 4.92497 17.0366 5.18799 16.7939 5.44328C16.5361 5.71407 16.2783 5.92293 16.1494 5.93842C15.9978 5.9616 15.922 5.83009 15.922 5.64445C15.922 5.45878 15.9902 5.21121 16.1267 5.0178H16.1191Z" fill="#F1946D"/>
<path id="Vector_127" d="M16.1343 5.0185C16.2859 4.79415 16.5285 4.67041 16.7408 4.63946C16.9531 4.60852 17.1503 4.67041 17.2034 4.80965C17.2488 4.92566 17.0214 5.18096 16.7863 5.42853C16.5513 5.67609 16.2783 5.89267 16.157 5.91589C16.013 5.93912 15.9371 5.8076 15.9371 5.62965C15.9371 5.45175 16.0054 5.2119 16.1343 5.0185Z" fill="#F19670"/>
<path id="Vector_128" d="M16.1418 5.01993C16.2934 4.80335 16.5209 4.67956 16.7332 4.64862C16.9455 4.61767 17.1275 4.67956 17.1806 4.8188C17.2185 4.92713 17.0137 5.18239 16.7787 5.42223C16.5361 5.6698 16.2783 5.87865 16.1646 5.89415C16.0205 5.91732 15.9523 5.79354 15.9523 5.61563C15.9523 5.43768 16.0205 5.21333 16.1494 5.0277L16.1418 5.01993Z" fill="#F29872"/>
<path id="Vector_129" d="M16.1647 5.86176C16.0282 5.88498 15.96 5.7612 15.96 5.59102C15.96 5.42079 16.0206 5.19644 16.1495 5.01853C16.2936 4.80968 16.521 4.69362 16.7182 4.66267C16.9153 4.63173 17.0973 4.6859 17.1504 4.82513C17.1883 4.9257 16.9911 5.17327 16.7637 5.40534C16.5362 5.63741 16.2708 5.84631 16.1647 5.86176Z" fill="#F29A75"/>
<path id="Vector_130" d="M21.6008 2.52161C21.4567 2.36688 21.2823 2.28952 21.0776 2.28952C21.0624 2.28952 21.0472 2.28952 21.0245 2.28952C21.0018 2.28952 20.9715 2.28952 20.9411 2.29726L21.6311 1.35345H21.2065L20.3952 2.45972C20.236 2.68407 20.1526 2.89294 20.1526 3.09408C20.1526 3.31842 20.236 3.51183 20.4028 3.67429C20.5696 3.83674 20.7667 3.91411 20.9942 3.91411C21.2216 3.91411 21.4112 3.82901 21.578 3.66655C21.7372 3.50409 21.8206 3.30296 21.8206 3.07087C21.8206 2.85426 21.7448 2.66859 21.6008 2.51387V2.52161ZM21.3126 3.43447C21.2216 3.5273 21.1155 3.57372 20.9866 3.57372C20.8577 3.57372 20.744 3.5273 20.653 3.43447C20.562 3.34164 20.5165 3.23333 20.5165 3.10181C20.5165 2.9703 20.562 2.85426 20.653 2.76143C20.744 2.66859 20.8501 2.62218 20.9866 2.62218C21.1231 2.62218 21.2216 2.66859 21.3202 2.76143C21.4112 2.85426 21.4567 2.96256 21.4567 3.10181C21.4567 3.24107 21.4112 3.34164 21.3202 3.43447H21.3126Z" fill="white"/>
<path id="Vector_131" d="M19.3186 6.28031C19.1518 6.1024 18.9395 6.01729 18.6893 6.01729C18.6741 6.01729 18.659 6.01729 18.6362 6.01729C18.6211 6.01729 18.5983 6.01729 18.5832 6.01729L18.7121 5.56859H19.5309V5.18951H18.4391L18.0221 6.60523H18.151C18.2799 6.44277 18.4391 6.36543 18.6135 6.36543C18.7727 6.36543 18.9092 6.41955 19.0154 6.53561C19.1215 6.6439 19.1746 6.78318 19.1746 6.96109C19.1746 7.13904 19.1215 7.27055 19.0078 7.38656C18.9016 7.50262 18.7651 7.55679 18.6059 7.55679C18.4846 7.55679 18.3784 7.52584 18.2951 7.47168C18.2117 7.40978 18.1282 7.30922 18.0448 7.16998L17.7416 7.433C17.9463 7.76564 18.2192 7.93582 18.5756 7.93582C18.8561 7.93582 19.0912 7.84303 19.2807 7.65735C19.4627 7.47168 19.5613 7.2396 19.5613 6.95336C19.5613 6.66712 19.4778 6.4505 19.3111 6.28031H19.3186Z" fill="white"/>
<path id="Vector_132" d="M17.2867 5.18931H16.9683L15.7476 7.27034V7.50241H16.8925V7.88922H17.2943V7.50241H17.5749V7.13106H17.2943V5.18158L17.2867 5.18931ZM16.8849 7.13883H16.2783L16.8849 6.07898V7.13883Z" fill="white"/>
</g>
</g>
</g>
<defs>
<linearGradient id="paint0_linear_7283_11040" x1="9.14357" y1="2.74479" x2="13.2199" y2="3.44413" gradientUnits="userSpaceOnUse">
<stop stop-color="#FCCE00"/>
<stop offset="0.23" stop-color="#F6A900"/>
<stop offset="0.43" stop-color="#F18E00"/>
<stop offset="0.61" stop-color="#EE7D00"/>
<stop offset="0.75" stop-color="#EE7800"/>
<stop offset="1" stop-color="#A84200"/>
</linearGradient>
<linearGradient id="paint1_linear_7283_11040" x1="4.92036" y1="3.74275" x2="9.35657" y2="2.7749" gradientUnits="userSpaceOnUse">
<stop stop-color="#AACE36"/>
<stop offset="0.8" stop-color="#00A33A"/>
<stop offset="1" stop-color="#306C30"/>
</linearGradient>
<linearGradient id="paint2_linear_7283_11040" x1="13.1468" y1="2.62121" x2="16.336" y2="3.65068" gradientUnits="userSpaceOnUse">
<stop stop-color="#00A0E9"/>
<stop offset="0.03" stop-color="#0098E2"/>
<stop offset="0.19" stop-color="#0076C4"/>
<stop offset="0.31" stop-color="#0062B2"/>
<stop offset="0.4" stop-color="#005BAC"/>
</linearGradient>
<linearGradient id="paint3_linear_7283_11040" x1="1.19771" y1="11.7325" x2="7.98755" y2="13.1393" gradientUnits="userSpaceOnUse">
<stop stop-color="#AACE36"/>
<stop offset="0.8" stop-color="#00A33A"/>
<stop offset="1" stop-color="#306C30"/>
</linearGradient>
<linearGradient id="paint4_linear_7283_11040" x1="14.7316" y1="13.1335" x2="20.5782" y2="11.5687" gradientUnits="userSpaceOnUse">
<stop stop-color="#00A0E9"/>
<stop offset="0.08" stop-color="#008CD7"/>
<stop offset="0.2" stop-color="#0071BF"/>
<stop offset="0.31" stop-color="#0060B1"/>
<stop offset="0.4" stop-color="#005BAC"/>
</linearGradient>
<linearGradient id="paint5_linear_7283_11040" x1="7.31617" y1="13.9226" x2="14.6902" y2="13.0378" gradientUnits="userSpaceOnUse">
<stop stop-color="#FCCE00"/>
<stop offset="0.23" stop-color="#F6A900"/>
<stop offset="0.43" stop-color="#F18E00"/>
<stop offset="0.61" stop-color="#EE7D00"/>
<stop offset="0.75" stop-color="#EE7800"/>
<stop offset="1" stop-color="#A84200"/>
</linearGradient>
<linearGradient id="paint6_linear_7283_11040" x1="11.2135" y1="20.5812" x2="11.2135" y2="17.3862" gradientUnits="userSpaceOnUse">
<stop stop-color="white" stop-opacity="0.67"/>
<stop offset="1" stop-color="white" stop-opacity="0"/>
</linearGradient>
<linearGradient id="paint7_linear_7283_11040" x1="0.25756" y1="16.2985" x2="7.04737" y2="17.7054" gradientUnits="userSpaceOnUse">
<stop stop-color="#AACE36"/>
<stop offset="0.8" stop-color="#00A33A"/>
<stop offset="1" stop-color="#306C30"/>
</linearGradient>
<linearGradient id="paint8_linear_7283_11040" x1="15.9599" y1="17.7297" x2="21.8065" y2="16.1649" gradientUnits="userSpaceOnUse">
<stop stop-color="#00A0E9"/>
<stop offset="0.08" stop-color="#008CD7"/>
<stop offset="0.2" stop-color="#0071BF"/>
<stop offset="0.31" stop-color="#0060B1"/>
<stop offset="0.4" stop-color="#005BAC"/>
</linearGradient>
<linearGradient id="paint9_linear_7283_11040" x1="7.78651" y1="17.807" x2="15.1607" y2="16.9148" gradientUnits="userSpaceOnUse">
<stop stop-color="#FCCE00"/>
<stop offset="0.23" stop-color="#F6A900"/>
<stop offset="0.43" stop-color="#F18E00"/>
<stop offset="0.61" stop-color="#EE7D00"/>
<stop offset="0.75" stop-color="#EE7800"/>
<stop offset="1" stop-color="#A84200"/>
</linearGradient>
</defs>
</svg>
