<svg width="20" height="21" viewBox="0 0 20 21" fill="none" xmlns="http://www.w3.org/2000/svg">
<path d="M17.499 14.834C17.8672 14.834 18.1659 15.1319 18.166 15.5C18.166 15.8682 17.8672 16.167 17.499 16.167H2.49902C2.13098 16.1668 1.83301 15.8681 1.83301 15.5C1.8331 15.132 2.13104 14.8342 2.49902 14.834H17.499ZM17.499 9.83398C17.8672 9.83398 18.1659 10.1319 18.166 10.5C18.166 10.8682 17.8672 11.167 17.499 11.167H2.49902C2.13098 11.1668 1.83301 10.8681 1.83301 10.5C1.8331 10.132 2.13104 9.83416 2.49902 9.83398H17.499ZM17.499 4.83301C17.8672 4.83301 18.1659 5.13188 18.166 5.5C18.166 5.86819 17.8672 6.16699 17.499 6.16699H2.49902C2.13098 6.16682 1.83301 5.86808 1.83301 5.5C1.8331 5.13199 2.13104 4.83318 2.49902 4.83301H17.499Z" fill="#33363D"/>
</svg>
